<?xml version="1.0" encoding="UTF-8"?><svg id="Layer_2" xmlns="http://www.w3.org/2000/svg" viewBox="0 0 264.72 52.36"><defs><style>.cls-1{fill:#a09d9e;}.cls-2{fill:#133165;}</style></defs><g id="svg2"><g><path id="path14" class="cls-2" d="M210.63,52.3h-13.07v-11.71h13.07v11.71"/><path id="path16" class="cls-2" d="M236.35,52.3h-13.07v-11.71h13.07v11.71"/><path id="path18" class="cls-2" d="M262.68,52.3h-13.07v-11.71h13.07v11.71"/><path id="path52" class="cls-1" d="M0,36.33V0H13.33V12.26h12.59V0h13.33V36.33h-13.33v-14.08H13.33v14.08H0"/><path id="path54" class="cls-1" d="M66.25,10.95l-4.12,13.02h8.42l-4.29-13.02Zm-21.24,25.38L59.59,0h13.55l14.57,36.33h-13.27l-1.58-4.79h-13.27l-1.53,4.79h-13.05"/><path id="path56" class="cls-1" d="M106.35,15.69h5.25c4.12,0,6.33-.91,6.33-3.43s-2.26-3.79-5.37-3.79h-6.21v7.22Zm0,7.97v12.67h-13.33V0h19.2c13.56,0,18.02,3.28,18.02,10.34,0,4.19-2.09,7.72-6.83,8.88,4.29,1.41,6.89,2.32,6.89,9.64,0,4.74-.17,6.36,1.41,6.36v1.11h-13.5c-.34-.81-.68-3.13-.68-6.36,0-4.74-.9-6.31-7.12-6.31h-4.07"/><path id="path58" class="cls-1" d="M134.99,0h13.44l7.12,24.17L162.95,0h13.44l-14.12,36.33h-13.39L134.99,0"/><path id="path60" class="cls-1" d="M183.22,36.33V0h33.15V8.48h-19.83v5.2h16.77v8.48h-16.77v5.7h20.61v8.48h-33.94"/><path id="path62" class="cls-1" d="M249.59,36.33h-13.33v-13.22L221.12,0h14.91l7.01,12.31,7-12.31h14.69l-15.14,22.91v13.42"/><path id="path64" class="cls-1" d="M184.49,52.36H0v-11.78H184.49v11.78"/></g></g></svg>