<?xml version="1.0" encoding="UTF-8"?><svg id="Layer_2" xmlns="http://www.w3.org/2000/svg" viewBox="0 0 190.45 130.29"><defs><style>.cls-1{fill:#fff;}</style></defs><g id="Layer_1-2"><g><g><path class="cls-1" d="M23.88,28.62h.95l22.75,54.27h-6l-3.63-9.01H10.76l-3.56,9.01H1.6L23.88,28.62Zm12.01,40.37l-9.48-23.86c-1.03-2.53-2.05-6.4-2.05-6.4,0,0-1.11,3.87-2.13,6.4l-9.48,23.86h23.15Z"/><path class="cls-1" d="M57.85,29.17h12.17c14.69,0,22.2,8.14,22.2,20.22s-7.5,20.14-22.2,20.14h-6.48v13.35h-5.69V29.17Zm11.85,35.39c12.09,0,16.59-6.32,16.59-15.17s-4.5-15.17-16.59-15.17h-6.16v30.33h6.16Z"/><path class="cls-1" d="M103.98,29.17h32.7v5.06h-27.02v25.2h24.09v4.98h-24.09v13.43h28.12v5.06h-33.81V29.17Z"/><path class="cls-1" d="M164.26,53.66l-15.48-24.49h6.48l10.67,16.75c.87,1.42,1.74,3.71,1.74,3.71,0,0,.79-2.37,1.66-3.71l10.58-16.75h6.24l-15.4,24.49,18.56,29.23h-6.48l-13.67-21.49c-.87-1.42-1.82-3.79-1.82-3.79,0,0-.79,2.37-1.66,3.79l-13.59,21.49h-6.24l18.41-29.23Z"/><path class="cls-1" d="M13.75,95.49h.6l13.8,34.4h-2.1l-2.6-6.6H4.65l-2.6,6.6H0l13.75-34.4Zm8.95,26l-7.65-19.4c-.5-1.2-1-3.1-1-3.1,0,0-.5,1.9-1,3.1l-7.7,19.4H22.7Z"/><path class="cls-1" d="M29.4,95.89h2.2l8.3,27.35c.3,.95,.55,2.5,.55,2.5,0,0,.3-1.55,.65-2.5l9.75-27.75h.6l9.75,27.75c.35,.95,.6,2.5,.6,2.5,0,0,.3-1.55,.6-2.5l8.3-27.35h2.1l-10.65,34.4h-.55l-9.9-28.2c-.35-1.05-.55-2.55-.55-2.55,0,0-.25,1.5-.6,2.55l-9.95,28.2h-.55l-10.65-34.4Z"/><path class="cls-1" d="M87.8,95.49h.6l13.8,34.4h-2.1l-2.6-6.6h-18.8l-2.6,6.6h-2.05l13.75-34.4Zm8.95,26l-7.65-19.4c-.5-1.2-1-3.1-1-3.1,0,0-.5,1.9-1,3.1l-7.7,19.4h17.35Z"/><path class="cls-1" d="M130.2,129.89h-2.45l-7.1-9.7c-1.25,.3-2.7,.45-4.25,.45h-4.8v9.25h-2.05v-34h6.85c9.2,0,13.55,5.5,13.55,12.4,0,5-2.35,9.3-7.3,11.25l7.55,10.35Zm-14-11.05c8.6,0,11.65-4.95,11.65-10.55s-3.05-10.6-11.65-10.6h-4.6v21.15h4.6Z"/><path class="cls-1" d="M138.95,95.89h7.25c11.75,0,18.6,6.55,18.6,17s-6.8,17-18.6,17h-7.25v-34Zm7,32.15c11.25,0,16.7-6.25,16.7-15.15s-5.45-15.15-16.7-15.15h-4.95v30.3h4.95Z"/><path class="cls-1" d="M169,123.49l1.75-.85c1.6,3,4.15,5.85,9.6,5.85,4.45,0,8.1-2.6,8.1-6.9,0-3.95-2.2-6.1-6.95-8.3l-3.15-1.45c-4.75-2.2-7.1-4.45-7.1-8.75,0-4.7,3.75-7.6,8.35-7.6s7.1,2.35,8.7,4.9l-1.6,1.05c-1.4-2.25-3.35-4.15-7.1-4.15-4,0-6.35,2.3-6.35,5.75s1.7,5.05,5.9,7l3.15,1.45c5.5,2.5,8.15,5.4,8.15,10.1,0,5.3-4.2,8.7-10.05,8.7-6.45,0-9.75-3.4-11.4-6.8Z"/></g><g><path class="cls-1" d="M8.55,.02h.23l5.47,13.05h-1.44l-.87-2.17H5.4l-.85,2.17h-1.35L8.55,.02Zm2.89,9.71l-2.28-5.74c-.25-.61-.49-1.54-.49-1.54,0,0-.27,.93-.51,1.54l-2.28,5.74h5.57Z"/><path class="cls-1" d="M20.18,6.61c0-3.88,2.96-6.61,6.65-6.61,2.2,0,4.1,.82,5.24,2.6l-1.08,.78c-.89-1.41-2.32-2.15-4.16-2.15-3.02,0-5.22,2.3-5.22,5.38s2.22,5.38,5.24,5.38,4.56-1.77,4.86-3.78h-4.62v-1.22h6.1c-.06,3.74-2.45,6.23-6.35,6.23s-6.67-2.74-6.67-6.61Z"/><path class="cls-1" d="M40.15,6.61c0-3.89,2.96-6.61,6.63-6.61,2.28,0,4.03,.86,5.13,2.51l-1.04,.76c-.84-1.23-2.22-2.03-4.08-2.03-3.02,0-5.21,2.3-5.21,5.38s2.18,5.38,5.21,5.38c1.88,0,3.32-.82,4.26-2.17l1.06,.74c-1.14,1.67-3,2.66-5.32,2.66-3.67,0-6.63-2.72-6.63-6.61Z"/><path class="cls-1" d="M69.64,.15h1.37V7.43h6.91V.15h1.37V13.07h-1.37v-4.39h-6.91v4.39h-1.37V.15Z"/><path class="cls-1" d="M87.31,6.61c0-3.89,2.96-6.61,6.63-6.61s6.65,2.72,6.65,6.61-2.96,6.61-6.65,6.61-6.63-2.72-6.63-6.61Zm11.85,0c0-3.08-2.2-5.38-5.22-5.38s-5.21,2.3-5.21,5.38,2.2,5.38,5.21,5.38,5.22-2.3,5.22-5.38Z"/><path class="cls-1" d="M108.49,8.66V.15h1.37V8.57c0,2.3,1.25,3.44,3.27,3.44s3.27-1.14,3.27-3.44V.15h1.37V8.66c0,3.02-2.01,4.56-4.64,4.56s-4.64-1.54-4.64-4.56Z"/><path class="cls-1" d="M125.19,10.6l1.14-.61c.61,1.08,1.5,2.01,3.33,2.01,1.5,0,2.68-.84,2.68-2.2s-.82-1.98-2.43-2.7l-1.03-.47c-1.84-.84-2.85-1.73-2.85-3.53s1.46-3.1,3.4-3.1c1.73,0,2.81,.8,3.5,1.94l-1.1,.68c-.49-.8-1.18-1.41-2.39-1.41s-2.05,.74-2.05,1.84,.61,1.65,2.05,2.32l1.03,.47c2.15,.95,3.25,2.01,3.25,3.95,0,2.13-1.69,3.42-4.01,3.42-2.47,0-3.82-1.25-4.5-2.62Z"/><path class="cls-1" d="M144.27,1.37h-3.97V.15h9.31V1.37h-3.97V13.07h-1.37V1.37Z"/><path class="cls-1" d="M155.73,6.61c0-3.89,2.96-6.61,6.63-6.61s6.65,2.72,6.65,6.61-2.96,6.61-6.65,6.61-6.63-2.72-6.63-6.61Zm11.85,0c0-3.08-2.2-5.38-5.22-5.38s-5.21,2.3-5.21,5.38,2.2,5.38,5.21,5.38,5.22-2.3,5.22-5.38Z"/><path class="cls-1" d="M179.1,4.08c-.36-.44-.89-1.2-.89-1.2,0,0,.11,.91,.11,1.46V13.07h-1.29V.02h.23l7.71,9.12c.36,.44,.89,1.2,.89,1.2,0,0-.09-.91-.09-1.46V.15h1.27V13.2h-.23l-7.71-9.12Z"/></g><rect class="cls-1" x="1.99" y="18.85" width="186.5" height="1"/></g></g></svg>