<?xml version="1.0" encoding="UTF-8"?><svg id="Layer_2" xmlns="http://www.w3.org/2000/svg" viewBox="0 0 580.98 162.09"><defs><style>.cls-1{fill:#fff;}</style></defs><g id="Layer_1-2"><g><g><path class="cls-1" d="M388.45,14.55c-5.01-2.7-10.17-4.05-15.48-4.05h0s-18.19,.01-18.19,.01v62.83l18.19,.03v-.03c5.43,0,10.64-1.38,15.63-4.15,4.99-2.77,8.87-6.64,11.64-11.61,2.77-4.97,4.15-10.14,4.15-15.63s-1.41-10.75-4.22-15.79c-2.81-5.04-6.72-8.91-11.72-11.61Zm7.49,40.57c-2.33,4.19-5.6,7.44-9.81,9.77-4.21,2.33-8.6,3.49-13.16,3.49v.03l-13.23-.03V15.46h13.23c4.48,0,8.82,1.14,13.03,3.41,4.21,2.27,7.5,5.53,9.87,9.77,2.37,4.25,3.56,8.67,3.56,13.28s-1.16,9.01-3.49,13.2Z"/><path class="cls-1" d="M385.59,19.6c-4.09-2.21-8.3-3.31-12.62-3.31h-12.4v51.28l12.4,.03v-.03c4.43,0,8.68-1.13,12.75-3.39,4.07-2.26,7.23-5.42,9.49-9.48s3.39-8.32,3.39-12.77-1.15-8.74-3.44-12.85c-2.29-4.12-5.48-7.27-9.57-9.48Zm5.31,32.62c-1.82,3.27-4.37,5.82-7.66,7.64-3.28,1.82-6.71,2.73-10.28,2.73v.03h-7.44V21.25h7.44c3.48,0,6.87,.89,10.17,2.66,3.29,1.78,5.87,4.32,7.72,7.64,1.85,3.32,2.78,6.78,2.78,10.37s-.91,7.03-2.73,10.3Z"/><path class="cls-1" d="M382.74,24.64c-3.16-1.71-6.42-2.56-9.77-2.56h-6.62V61.8h6.62v-.03c3.41,0,6.71-.87,9.87-2.61,3.16-1.75,5.62-4.19,7.36-7.33,1.74-3.15,2.61-6.45,2.61-9.91s-.89-6.78-2.66-9.95c-1.78-3.18-4.25-5.62-7.41-7.33Z"/><path class="cls-1" d="M39.1,0V84.18h502.79V0H39.1ZM485.83,8.85l8.2,16.4-.46,.93-8.67-17.33h.93Zm-6.48-.01l11.44,22.89h0s0,0,0,0h0s-.46,.92-.46,.92l-11.91-23.81h.93Zm-226.14,.02l.83,.03V51.84c0,1.72,.44,3.36,1.31,4.94s2.09,2.8,3.67,3.67c1.57,.87,3.22,1.31,4.94,1.31s3.38-.45,4.98-1.34c1.6-.89,2.82-2.12,3.67-3.7,.85-1.58,1.27-3.2,1.27-4.88h-.03V8.85h.83V51.85h.03c0,1.81-.46,3.57-1.39,5.29-.93,1.72-2.25,3.06-3.97,4.02-1.72,.96-3.51,1.44-5.39,1.44s-3.66-.47-5.36-1.42c-1.7-.95-3.02-2.28-3.97-3.99h0c-.95-1.71-1.42-3.49-1.42-5.34V8.86Zm-5.8,.03h.83V51.84c0,2.71,.69,5.32,2.07,7.82,1.37,2.5,3.31,4.44,5.8,5.82s5.11,2.07,7.84,2.07,5.36-.7,7.87-2.1c2.51-1.4,4.44-3.36,5.8-5.87,1.35-2.51,2.03-5.09,2.03-7.74h-.03V8.85h.83V51.84h.03c0,2.8-.71,5.52-2.13,8.15-1.42,2.64-3.45,4.69-6.1,6.17-2.64,1.48-5.44,2.22-8.3,2.22s-5.61-.72-8.23-2.18c-2.63-1.46-4.67-3.5-6.12-6.12h0c-1.45-2.62-2.18-5.36-2.18-8.23V8.89ZM74.1,17.12c1.48-2.64,3.54-4.68,6.17-6.1,2.63-1.42,5.35-2.13,8.15-2.13v-.03c2.8,0,5.52,.71,8.15,2.13,2.64,1.42,4.69,3.45,6.17,6.1,.17,.31,.33,.62,.46,.93v.02s-1.5,.73-1.5,.73c-.14-.27-.27-.54-.4-.83-1.34-2.38-3.2-4.21-5.57-5.49-2.37-1.28-4.81-1.92-7.32-1.92v.03c-2.52,0-4.96,.64-7.33,1.92s-4.23,3.11-5.56,5.49-2,4.84-2,7.44,.65,5.07,1.95,7.42c1.3,2.35,3.14,4.18,5.51,5.49,2.37,1.31,4.86,1.97,7.46,1.97,1.94,0,3.84,.5,5.69,1.49,1.86,.99,3.3,2.42,4.32,4.28,1.03,1.86,1.54,3.79,1.54,5.8s-.51,3.93-1.51,5.77c-1,1.84-2.43,3.27-4.28,4.27s-3.77,1.5-5.75,1.5v.03c-2.01,0-3.93-.51-5.77-1.52-1.84-1.02-3.27-2.44-4.3-4.27-1.03-1.83-1.54-3.76-1.54-5.79l1.65-.03c0,1.72,.44,3.36,1.31,4.94,.87,1.57,2.1,2.79,3.69,3.65,1.57,.88,3.21,1.32,4.93,1.32v-.03c1.72,0,3.36-.44,4.94-1.31,1.58-.87,2.8-2.08,3.67-3.65,.88-1.57,1.31-3.21,1.31-4.93s-.44-3.37-1.32-4.96c-.89-1.59-2.12-2.81-3.71-3.67-1.59-.86-3.21-1.28-4.86-1.26-2.89,0-5.65-.72-8.27-2.18-2.63-1.45-4.66-3.49-6.12-6.1-1.45-2.61-2.18-5.38-2.18-8.25s.74-5.62,2.22-8.27Zm-2.18,34.72c0,2.87,.73,5.61,2.17,8.22,1.44,2.61,3.48,4.64,6.13,6.1,2.65,1.45,5.39,2.18,8.24,2.18v-.03c2.87,0,5.62-.73,8.24-2.17,2.63-1.44,4.67-3.48,6.12-6.1s2.18-5.29,2.18-8.2-.74-5.68-2.22-8.32c-1.48-2.63-3.54-4.67-6.17-6.1-2.63-1.44-5.35-2.14-8.15-2.12-1.74,0-3.4-.44-4.98-1.31-1.58-.87-2.8-2.09-3.67-3.67-.87-1.57-1.31-3.22-1.31-4.94s.44-3.37,1.32-4.96c.88-1.58,2.11-2.8,3.7-3.65,1.59-.85,3.22-1.27,4.9-1.27v-.03c1.67,0,3.3,.43,4.89,1.29,1.59,.86,2.83,2.08,3.71,3.67,.08,.18,.17,.35,.26,.53h.01s-.01,0-.01,0c0,0,0,0,0,0l-.72,.35c-.08-.16-.17-.32-.26-.5-.82-1.46-1.95-2.58-3.39-3.36-1.44-.78-2.94-1.17-4.48-1.17v.03c-1.54,0-3.04,.39-4.48,1.16-1.44,.78-2.57,1.89-3.39,3.36-.81,1.47-1.22,2.96-1.22,4.55s.4,3.1,1.19,4.53c.79,1.44,1.91,2.56,3.37,3.36,1.45,.81,2.97,1.21,4.56,1.21,2.93,0,5.78,.75,8.55,2.25s4.93,3.64,6.48,6.42c1.55,2.78,2.33,5.68,2.33,8.7s-.77,5.9-2.3,8.63c-1.53,2.73-3.67,4.87-6.43,6.4-2.76,1.53-5.63,2.3-8.63,2.3v.03c-3.03,0-5.91-.77-8.67-2.3-2.76-1.54-4.9-3.68-6.42-6.42-1.52-2.75-2.28-5.63-2.28-8.65h.83Zm36.63,11.6c-2.03,3.67-4.89,6.52-8.57,8.55-3.68,2.03-7.47,3.04-11.51,3.04s-7.89-1.01-11.56-3.04c-3.68-2.03-6.53-4.87-8.57-8.53-2.04-3.66-3.06-7.52-3.06-11.58h.86c0,3.88,.98,7.58,2.93,11.11,1.95,3.53,4.7,6.28,8.25,8.24,3.55,1.96,7.27,2.94,11.15,2.94v-.03c3.86,0,7.56-.98,11.11-2.93,3.55-1.96,6.31-4.7,8.27-8.24,1.96-3.54,2.94-7.21,2.94-11.1s-1-7.62-2.99-11.2c-2-3.58-4.78-6.34-8.34-8.27-3.57-1.93-7.23-2.88-11-2.86-.72,0-1.42-.19-2.08-.55-.66-.36-1.18-.87-1.54-1.52-.37-.65-.55-1.37-.55-2.07s.18-1.39,.56-2.05c.37-.66,.89-1.18,1.55-1.54,.66-.37,1.32-.55,2.02-.55s1.38,.18,2.03,.53c.65,.35,1.16,.86,1.54,1.52,.04,.08,.09,.17,.13,.26l.03,.05-.73,.36c-.05-.07-.08-.13-.1-.2-.31-.53-.73-.93-1.26-1.22-.53-.29-1.07-.43-1.62-.43s-1.09,.14-1.62,.43c-.53,.28-.94,.69-1.24,1.22-.3,.53-.45,1.08-.45,1.65s.14,1.12,.43,1.65c.28,.53,.69,.93,1.22,1.22,.53,.29,1.09,.43,1.69,.43,3.9,0,7.7,.99,11.38,2.99s6.56,4.86,8.63,8.57,3.11,7.55,3.11,11.59-1.01,7.89-3.04,11.56Zm59.42,11.56l-19.12-38.23-19.12,38.23h-.96l20.04-40.08,20.04,40.08h-.88Zm6.45,0l-25.6-51.16-25.57,51.16h-.93l26.49-52.98,26.52,52.98h-.91Zm6.44,0L148.81,10.9l-32.05,64.1h-1.85L148.81,7.2l33.93,67.8h-1.88Zm18.51,.03h-1.65V22.08h-19.84v-.83h21.49v53.78Zm31.43-52.95h-19.84v52.95h-.83V21.25h20.67v.83Zm0-5.79h-25.63v58.74h-.83V16.29h-26.46v-.83h52.92v.83Zm0-5.79h-52.92v-1.65h52.92v1.65Zm56.3,41.35c0,3.92-1,7.73-2.99,11.41-2,3.68-4.85,6.56-8.55,8.63-3.71,2.07-7.58,3.11-11.61,3.11s-7.88-1.02-11.54-3.06c-3.66-2.04-6.51-4.9-8.55-8.57h0c-2.04-3.68-3.06-7.52-3.06-11.53V8.85h1.65V51.84c0,3.73,.94,7.3,2.84,10.72,1.9,3.41,4.54,6.06,7.94,7.95,3.39,1.89,6.96,2.83,10.71,2.83s7.34-.96,10.78-2.88c3.44-1.92,6.09-4.59,7.94-8.02,1.85-3.43,2.78-6.96,2.78-10.6h-.03V8.85h1.69V51.85Zm43.09,23.14l-16.57-33.07h6.62c1.74,0,3.4-.44,4.98-1.31s2.81-2.09,3.69-3.67c.88-1.57,1.32-3.22,1.32-4.94s-.45-3.38-1.34-4.98c-.89-1.6-2.12-2.82-3.7-3.67-1.57-.85-3.22-1.27-4.94-1.27h-9.92v52.91h-.86l.03-53.74h10.75c1.85,0,3.63,.46,5.34,1.39,1.71,.93,3.05,2.25,4.02,3.97,.98,1.72,1.46,3.51,1.46,5.39s-.47,3.66-1.42,5.36c-.94,1.7-2.27,3.02-3.98,3.97-1.71,.95-3.51,1.42-5.41,1.42h-.03s-5.26-.01-5.26-.01l16.11,32.25h-.89Zm6.48,.01l-13.73-27.52,.83-.17c1.5-.33,2.96-.9,4.37-1.69,2.49-1.37,4.43-3.3,5.82-5.79,1.39-2.49,2.08-5.11,2.08-7.84s-.71-5.36-2.12-7.87c-1.41-2.51-3.37-4.44-5.87-5.8-2.5-1.35-5.1-2.03-7.79-2.03h-15.71v58.71h-.83V15.47h16.54c2.82,0,5.55,.71,8.18,2.13,2.64,1.42,4.7,3.45,6.19,6.1,1.49,2.64,2.23,5.43,2.23,8.3s-.72,5.62-2.18,8.24c-1.46,2.63-3.5,4.66-6.12,6.12h.01c-1.43,.79-2.91,1.37-4.43,1.72l13.46,26.92h-.93Zm6.47,.01l-12.17-24.31,1.42-.89c2.75-1.81,4.95-4.17,6.58-7.08,1.89-3.4,2.84-6.97,2.84-10.72s-.96-7.34-2.89-10.78-4.61-6.09-8.04-7.94c-3.43-1.85-6.97-2.78-10.63-2.78h-21.5V75h-1.65V8.86h23.15c3.95,0,7.77,.99,11.46,2.99s6.58,4.85,8.65,8.55c2.07,3.71,3.11,7.58,3.11,11.61s-1.01,7.88-3.04,11.54h0c-1.81,3.23-4.24,5.82-7.28,7.78l11.84,23.68h-1.85Zm58.53-16.61c-2.91,5.24-6.99,9.31-12.25,12.22-5.26,2.92-10.74,4.37-16.45,4.37h-19.85s0-66.15,0-66.15h19.84c5.58,0,11.01,1.43,16.29,4.27,5.28,2.84,9.4,6.92,12.35,12.22,2.95,5.3,4.43,10.89,4.43,16.62s-1.45,11.21-4.36,16.45Zm58.03,16.59l-19.12-38.23-19.12,38.23h-.96l20.04-40.08,20.04,40.08h-.88Zm6.44,0l-25.6-51.16-25.56,51.16h-.93l26.49-52.98,26.52,52.98h-.92Zm6.45,0L440.54,10.89l-32.05,64.1h-1.84L440.55,7.19l33.93,67.8h-1.89Zm-1.51-66.14h1.85l14.65,29.3h0l-.93,1.85-15.58-31.15Zm18.12,66.14h-1.65V42.2l16.67-33.34h1.85l-16.87,33.73v32.4Zm5.8,0h-.83v-31.22h.01s17.46-34.93,17.46-34.93h.89l-17.53,35.06v31.09Zm5.79-29.7v29.7h-.83v-29.9l18.12-36.25h.93l-18.22,36.45Z"/></g><path class="cls-1" d="M47.95,137.46v-43.19h-1.65v39.19L0,92.61v67.8H1.65v-63.8l46.3,40.85h0Zm5.79,12.37v-55.56h-.83v53.54L6.61,106.97v53.45h.83v-51.46l46.3,40.88h0Zm5.79,12.23V94.27h-.83v65.88L12.4,119.3v41.11h.83v-39.16l46.3,40.81h0Zm8.27-67.79v66.14h1.65V94.27h-1.65Zm13.23,.03l-.83-.03v66.14h.83V94.3h0Zm-5.79,0h-.83v66.11h.83V94.3h0Zm69.39,45.81c-2.25,4.08-5.41,7.24-9.49,9.49s-8.33,3.37-12.77,3.37-8.69-1.12-12.77-3.37-7.24-5.41-9.49-9.48c-2.25-4.07-3.37-8.32-3.37-12.75s1.15-8.77,3.44-12.88,5.48-7.27,9.56-9.48c4.08-2.2,8.29-3.31,12.63-3.31s8.49,1.1,12.57,3.31c2.09,1.12,3.96,2.51,5.59,4.17l.6-.6c-1.7-1.67-3.63-3.11-5.79-4.3-4.21-2.27-8.53-3.41-12.97-3.41s-8.82,1.14-13.03,3.42-7.5,5.54-9.87,9.77-3.55,8.66-3.55,13.3,1.16,8.97,3.49,13.16c2.33,4.19,5.59,7.45,9.79,9.77,4.2,2.33,8.59,3.49,13.18,3.49s8.98-1.16,13.18-3.49,7.46-5.58,9.79-9.77c2.33-4.19,3.49-8.59,3.49-13.2h-26.46v.83h25.63c-.13,4.15-1.26,8.12-3.37,11.94h0v.02Zm9.15-12.73c0,5.45-1.38,10.66-4.15,15.63-2.77,4.97-6.64,8.84-11.62,11.61s-10.21,4.15-15.68,4.15-10.63-1.38-15.61-4.15c-4.98-2.77-8.86-6.64-11.62-11.61-2.77-4.97-4.15-10.18-4.15-15.63s1.41-10.75,4.22-15.79,6.72-8.91,11.72-11.61c5-2.7,10.15-4.05,15.44-4.05s10.44,1.35,15.45,4.04c2.58,1.41,4.86,3.12,6.85,5.13l1.19-1.19c-2.12-2.12-4.53-3.9-7.24-5.36-5.27-2.84-10.68-4.27-16.24-4.27s-11,1.42-16.27,4.27c-5.27,2.84-9.38,6.92-12.34,12.22-2.96,5.3-4.43,10.84-4.43,16.62s1.46,11.22,4.37,16.45c2.91,5.24,6.99,9.31,12.24,12.22s10.73,4.36,16.44,4.36,11.26-1.45,16.5-4.36c5.25-2.91,9.33-6.98,12.24-12.22s4.37-10.72,4.37-16.45c0-2.25-.23-4.46-.7-6.65h-32.38v1.65h31.02c.26,1.65,.4,3.32,.4,4.99h-.02Zm-14.19,9.86c-1.74,3.15-4.19,5.6-7.34,7.34-3.15,1.74-6.45,2.61-9.89,2.61s-6.74-.87-9.89-2.61-5.6-4.18-7.34-7.33-2.61-6.44-2.61-9.91,.89-6.78,2.66-9.95c1.77-3.17,4.24-5.62,7.41-7.33,3.16-1.71,6.42-2.56,9.77-2.56s6.58,.85,9.76,2.55c1.61,.88,3.04,1.96,4.3,3.24l.6-.6c-1.32-1.32-2.82-2.45-4.5-3.37-3.31-1.76-6.69-2.65-10.15-2.65s-6.9,.89-10.19,2.66c-3.29,1.77-5.85,4.32-7.71,7.64-1.85,3.32-2.78,6.78-2.78,10.37s.91,7.03,2.73,10.3,4.37,5.82,7.66,7.64c3.28,1.82,6.71,2.73,10.29,2.73s7-.91,10.29-2.73c3.29-1.82,5.84-4.37,7.67-7.66,.9-1.63,1.53-3.13,1.88-4.5h-19.84v.83h18.72c-.4,1.12-.89,2.22-1.49,3.27h0v.02Zm22.45-42.96v66.14h1.65V94.27h-1.65Zm52.09,33.91v32.25h.83V94.3h-.83v33.04h-44.65v-33.04h-.83v66.11h.83v-32.25h44.65v.02Zm-5.79,5.79v26.46h.83v-27.29h-34.73v27.29h.83v-26.46h33.07Zm-33.9-11.57h34.73v-28.11l-.83,.03v26.42h-33.07v-26.42l-.83-.03v28.11h0Zm45.48-28.11v66.14h1.65V94.27h-1.65v.02Zm61.18,0h-52.92v1.65h52.92v-1.65h0Zm0,7.44v-.83h-52.92v.83h26.46v58.74h.83v-58.74h25.63Zm-52.92,4.96v.83h19.84v52.95h1.65v-53.78h-21.49Zm32.25,53.78h.83v-52.95h19.84v-.83h-20.67v53.78h0Zm46.1-.03h1.65V95.95l44.65-.03v-1.65h-46.3v66.14h0v.03Zm7.44-58.67l38.86-.03v-.83l-39.69,.03v59.5h.83v-32.25h32.25v-.83h-32.25v-25.6h0Zm4.96,31.4v27.29h.83v-26.46h26.46v-.83h-27.29Zm.83-25.63h33.07v-.83l-33.93,.03v15.68h27.32v-1.65h-26.46v-13.23h0Zm41.34-11.54l44.68-.03v-1.65h-46.3v66.14h46.3v-1.65h-44.68v-62.81h0Zm38.03,32.21v-.83h-32.25v-25.6l38.89-.03v-.83l-39.72,.03v52.88h39.72v-.83h-38.89v-24.8h32.25Zm-27.29,4.97v14.88h33.93v-.83h-33.1v-13.23h26.46v-.83h-27.29Zm0-10.74h27.29v-1.65h-26.46v-13.2l33.1-.03v-.83l-33.93,.03v15.68h0Zm92.04-28.11h-1.85l-19.08,38.23-19.12-38.23h-1.85l20.97,41.94,20.93-41.94h0Zm-20.93,54.83l27.42-54.83h-.93l-26.49,52.98-26.49-52.98h-.93l27.42,54.83h0Zm0,12.96l33.9-67.8h-.93l-32.97,65.91-32.97-65.91h-.93l33.9,67.8h0Zm38.86-66.11l44.68-.03v-1.65h-46.3v66.14h46.3v-1.65h-44.68v-62.81h0Zm38.03,32.21v-.83h-32.25v-25.6l38.89-.03v-.83l-39.72,.03v52.88h39.72v-.83h-38.89v-24.8h32.25Zm-27.28,4.97v14.88h33.93v-.83h-33.11v-13.23h26.46v-.83h-27.28Zm0-10.74h27.28v-1.65h-26.46v-13.2l33.11-.03v-.83l-33.93,.03v15.68h0Zm83.84,6.58c2.03-3.66,3.04-7.51,3.04-11.54s-1.04-7.9-3.11-11.61c-2.07-3.7-4.96-6.55-8.65-8.55-3.69-1.99-7.51-2.99-11.46-2.99h-23.15v66.14h1.65V95.92h21.5c3.66,0,7.2,.93,10.63,2.78s6.11,4.5,8.04,7.94,2.89,7.03,2.89,10.78-.95,7.32-2.84,10.71c-1.63,2.91-3.83,5.27-6.58,7.08l-1.42,.89,12.17,24.31h1.85l-11.84-23.68c3.04-1.96,5.47-4.55,7.28-7.77h0v.02Zm-11.87,2.81c2.62-1.46,4.66-3.49,6.12-6.12,1.45-2.62,2.18-5.37,2.18-8.24s-.74-5.66-2.23-8.3-3.55-4.68-6.18-6.1c-2.64-1.42-5.36-2.13-8.19-2.13h-16.54v59.53h.83v-58.7h15.71c2.69,0,5.29,.68,7.79,2.03,2.5,1.36,4.46,3.29,5.87,5.8s2.12,5.14,2.12,7.87-.7,5.35-2.08,7.84c-1.39,2.49-3.33,4.42-5.82,5.79-1.41,.79-2.87,1.36-4.36,1.69l-.83,.17,13.73,27.52h.93l-13.46-26.92c1.52-.35,3-.93,4.43-1.72h-.02Zm-8.3-3.62c1.9,0,3.7-.47,5.41-1.42,1.71-.95,3.04-2.27,3.99-3.97s1.42-3.48,1.42-5.36-.49-3.67-1.46-5.39-2.31-3.04-4.02-3.97-3.49-1.39-5.34-1.39h-10.75l-.03,53.74h.86v-52.92h9.92c1.72,0,3.37,.42,4.94,1.27,1.58,.85,2.81,2.07,3.7,3.67s1.34,3.26,1.34,4.98-.44,3.37-1.32,4.94c-.88,1.58-2.11,2.8-3.69,3.67s-3.24,1.31-4.98,1.31h-6.61l16.57,33.07h.89l-16.11-32.25h5.26v.02Z"/></g></g></svg>