<?xml version="1.0" encoding="UTF-8"?><svg id="Layer_2" xmlns="http://www.w3.org/2000/svg" viewBox="0 0 580.98 154.9"><g id="Layer_1-2"><g><path d="M92.12,16.38c-.04-.09-.09-.18-.13-.26-.38-.66-.89-1.17-1.54-1.52-.65-.35-1.33-.53-2.03-.53s-1.36,.18-2.02,.55c-.66,.36-1.18,.88-1.55,1.54-.38,.66-.56,1.35-.56,2.05s.18,1.42,.55,2.07c.36,.65,.88,1.16,1.54,1.52s1.36,.55,2.08,.55c3.77-.02,7.43,.93,11,2.86,3.56,1.93,6.34,4.69,8.34,8.27,1.99,3.58,2.99,7.31,2.99,11.2s-.98,7.56-2.94,11.1-4.72,6.28-8.27,8.24c-3.55,1.95-7.25,2.93-11.11,2.93v.03c-3.88,0-7.6-.98-11.15-2.94s-6.3-4.71-8.25-8.24-2.93-7.23-2.93-11.11h-.86c0,4.06,1.02,7.92,3.06,11.58s4.89,6.5,8.57,8.53c3.67,2.03,7.52,3.04,11.56,3.04s7.83-1.01,11.51-3.04,6.54-4.88,8.57-8.55c2.03-3.67,3.04-7.52,3.04-11.56s-1.04-7.88-3.11-11.59-4.95-6.57-8.63-8.57-7.48-2.99-11.38-2.99c-.6,0-1.16-.14-1.69-.43s-.94-.69-1.22-1.22c-.29-.53-.43-1.08-.43-1.65s.15-1.12,.45-1.65c.3-.53,.71-.94,1.24-1.22,.53-.29,1.07-.43,1.62-.43s1.09,.14,1.62,.43c.53,.29,.95,.69,1.26,1.22,.02,.07,.05,.13,.1,.2l.73-.36h0l-.03-.05Zm5.16-2.61c-.09-.18-.18-.35-.26-.53-.88-1.59-2.12-2.81-3.71-3.67-1.59-.86-3.22-1.29-4.89-1.29v.03c-1.68,0-3.31,.42-4.9,1.27-1.59,.85-2.82,2.07-3.7,3.65-.88,1.59-1.32,3.24-1.32,4.96s.44,3.37,1.31,4.94c.87,1.58,2.09,2.8,3.67,3.67,1.58,.87,3.24,1.31,4.98,1.31,2.8-.02,5.52,.68,8.15,2.12,2.63,1.43,4.69,3.47,6.17,6.1,1.48,2.64,2.22,5.41,2.22,8.32s-.73,5.58-2.18,8.2c-1.45,2.62-3.49,4.66-6.12,6.1-2.62,1.44-5.37,2.17-8.24,2.17v.03c-2.85,0-5.59-.73-8.24-2.18-2.65-1.46-4.69-3.49-6.13-6.1-1.44-2.61-2.17-5.35-2.17-8.22h-.83c0,3.02,.76,5.9,2.28,8.65,1.52,2.74,3.66,4.88,6.42,6.42,2.76,1.53,5.64,2.3,8.67,2.3v-.03c3,0,5.87-.77,8.63-2.3,2.76-1.53,4.9-3.67,6.43-6.4s2.3-5.61,2.3-8.63-.78-5.92-2.33-8.7c-1.55-2.78-3.71-4.92-6.48-6.42-2.77-1.5-5.62-2.25-8.55-2.25-1.59,0-3.11-.4-4.56-1.21-1.46-.8-2.58-1.92-3.37-3.36-.79-1.43-1.19-2.94-1.19-4.53s.41-3.08,1.22-4.55c.82-1.47,1.95-2.58,3.39-3.36,1.44-.77,2.94-1.16,4.48-1.16v-.03c1.54,0,3.04,.39,4.48,1.17,1.44,.78,2.57,1.9,3.39,3.36,.09,.18,.18,.34,.26,.5l.73-.36h-.01Zm5.92-2.93c-.13-.31-.29-.62-.46-.93-1.48-2.65-3.53-4.68-6.17-6.1-2.63-1.42-5.35-2.13-8.15-2.13v.03c-2.8,0-5.52,.71-8.15,2.13-2.63,1.42-4.69,3.46-6.17,6.1-1.48,2.65-2.22,5.4-2.22,8.27s.73,5.64,2.18,8.25c1.46,2.61,3.49,4.65,6.12,6.1,2.62,1.46,5.38,2.18,8.27,2.18,1.65-.02,3.27,.4,4.86,1.26,1.59,.86,2.82,2.08,3.71,3.67,.88,1.59,1.32,3.24,1.32,4.96s-.43,3.36-1.31,4.93c-.87,1.57-2.09,2.78-3.67,3.65s-3.22,1.31-4.94,1.31v.03c-1.72,0-3.36-.44-4.93-1.32-1.59-.86-2.82-2.08-3.69-3.65-.87-1.58-1.31-3.22-1.31-4.94l-1.65,.03c0,2.03,.51,3.96,1.54,5.79s2.46,3.25,4.3,4.27c1.84,1.01,3.76,1.52,5.77,1.52v-.03c1.98,0,3.9-.5,5.75-1.5s3.28-2.43,4.28-4.27,1.51-3.76,1.51-5.77-.51-3.94-1.54-5.8c-1.02-1.86-2.46-3.29-4.32-4.28-1.85-.99-3.75-1.49-5.69-1.49-2.6,0-5.09-.66-7.46-1.97-2.37-1.31-4.21-3.14-5.51-5.49s-1.95-4.82-1.95-7.42,.67-5.06,2-7.44c1.33-2.38,3.19-4.21,5.56-5.49,2.37-1.28,4.81-1.92,7.33-1.92v-.03c2.51,0,4.95,.64,7.32,1.92s4.23,3.11,5.57,5.49c.13,.29,.26,.56,.4,.83l1.49-.73h0v-.02Zm13.57,56.98L148.81,3.71l32.05,64.1h1.88L148.81,.01l-33.9,67.8h1.85Zm52.09,0l-20.04-40.08-20.04,40.08h.96l19.12-38.23,19.12,38.23h.88Zm6.48,0l-26.52-52.98-26.49,52.98h.93l25.57-51.16,25.6,51.16h.91ZM230.8,1.66h-52.92v1.65h52.92V1.66h0Zm0,7.44v-.83h-52.92v.83h26.46v58.74h.83V9.1h25.63Zm-52.92,4.96v.83h19.84v52.95h1.65V14.06h-21.49Zm32.25,53.78h.83V14.89h19.84v-.83h-20.67v53.78h0Zm33.73-11.66c2.04,3.67,4.89,6.53,8.55,8.57,3.66,2.04,7.51,3.06,11.54,3.06s7.9-1.04,11.61-3.11c3.7-2.07,6.55-4.95,8.55-8.63,1.99-3.68,2.99-7.49,2.99-11.41V1.66h-1.69V44.65h.03c0,3.64-.93,7.17-2.78,10.6s-4.5,6.1-7.94,8.02c-3.44,1.92-7.03,2.88-10.78,2.88s-7.32-.94-10.71-2.83c-3.4-1.89-6.04-4.54-7.94-7.95-1.9-3.42-2.84-6.99-2.84-10.72V1.66h-1.65V44.65c0,4.01,1.02,7.85,3.06,11.53h0Zm5.74-3.29c1.45,2.62,3.49,4.66,6.12,6.12,2.62,1.46,5.37,2.18,8.23,2.18s5.66-.74,8.3-2.22c2.65-1.48,4.68-3.53,6.1-6.17,1.42-2.63,2.13-5.35,2.13-8.15h-.03V1.66h-.83V44.65h.03c0,2.65-.68,5.23-2.03,7.74-1.36,2.51-3.29,4.47-5.8,5.87-2.51,1.4-5.14,2.1-7.87,2.1s-5.35-.69-7.84-2.07-4.43-3.32-5.8-5.82c-1.38-2.5-2.07-5.11-2.07-7.82V1.7h-.83V44.66c0,2.87,.73,5.61,2.18,8.24h0Zm5.03-2.9c.95,1.71,2.27,3.04,3.97,3.99s3.48,1.42,5.36,1.42,3.67-.48,5.39-1.44,3.04-2.3,3.97-4.02c.93-1.72,1.39-3.48,1.39-5.29h-.03V1.66h-.83V44.65h.03c0,1.68-.42,3.3-1.27,4.88-.85,1.58-2.07,2.81-3.67,3.7s-3.26,1.34-4.98,1.34-3.37-.44-4.94-1.31c-1.58-.87-2.8-2.09-3.67-3.67-.87-1.58-1.31-3.22-1.31-4.94V1.7l-.83-.03V44.66c0,1.85,.47,3.63,1.42,5.34h0Zm85.8-13.64c2.03-3.66,3.04-7.51,3.04-11.54s-1.04-7.9-3.11-11.61c-2.07-3.7-4.96-6.55-8.65-8.55s-7.51-2.99-11.46-2.99h-23.15V67.81h1.65V3.32h21.5c3.66,0,7.2,.93,10.63,2.78s6.11,4.5,8.04,7.94c1.93,3.44,2.89,7.03,2.89,10.78s-.95,7.32-2.84,10.72c-1.63,2.91-3.83,5.27-6.58,7.08l-1.42,.89,12.17,24.31h1.85l-11.84-23.68c3.04-1.96,5.47-4.55,7.28-7.77h0Zm-11.87,2.8c2.62-1.46,4.66-3.49,6.12-6.12,1.46-2.62,2.18-5.37,2.18-8.24s-.74-5.66-2.23-8.3c-1.49-2.65-3.55-4.68-6.19-6.1-2.63-1.42-5.36-2.13-8.18-2.13h-16.54v59.53h.83V9.1h15.71c2.69,0,5.29,.68,7.79,2.03,2.5,1.36,4.46,3.29,5.87,5.8s2.12,5.14,2.12,7.87-.69,5.35-2.08,7.84c-1.39,2.49-3.33,4.42-5.82,5.79-1.41,.79-2.87,1.36-4.37,1.69l-.83,.17,13.73,27.52h.93l-13.46-26.92c1.52-.35,3-.93,4.43-1.72h0Zm-8.3-3.61c1.9,0,3.7-.47,5.41-1.42,1.71-.95,3.04-2.27,3.98-3.97,.95-1.7,1.42-3.48,1.42-5.36s-.48-3.67-1.46-5.39c-.97-1.72-2.31-3.04-4.02-3.97s-3.49-1.39-5.34-1.39h-10.75l-.03,53.74h.86V14.89h9.92c1.72,0,3.37,.42,4.94,1.27,1.58,.85,2.81,2.07,3.7,3.67s1.34,3.26,1.34,4.98-.44,3.37-1.32,4.94c-.88,1.58-2.11,2.8-3.69,3.67-1.58,.87-3.24,1.31-4.98,1.31h-6.62l16.57,33.07h.89l-16.11-32.25h5.29Zm45.26-21.49V55.43h7.44v-.03c3.57,0,7-.91,10.28-2.73,3.29-1.82,5.84-4.37,7.66-7.64s2.73-6.71,2.73-10.3-.93-7.05-2.78-10.37-4.43-5.86-7.72-7.64c-3.3-1.77-6.69-2.66-10.17-2.66h-7.44Zm.83,40.55V14.89h6.62c3.35,0,6.61,.85,9.77,2.56,3.16,1.71,5.63,4.15,7.41,7.33,1.77,3.17,2.66,6.49,2.66,9.95s-.87,6.76-2.61,9.91c-1.74,3.14-4.2,5.58-7.36,7.33-3.16,1.74-6.46,2.61-9.87,2.61v.03h-6.62Zm6.62,6.61v-.03c4.56,0,8.95-1.16,13.16-3.49,4.21-2.33,7.48-5.58,9.81-9.77s3.49-8.59,3.49-13.2-1.19-9.03-3.56-13.28c-2.37-4.24-5.66-7.5-9.87-9.77s-8.55-3.41-13.03-3.41h-13.23V61.19l13.23,.03h0Zm0-52.12c4.32,0,8.53,1.1,12.62,3.31,4.09,2.21,7.28,5.36,9.57,9.48,2.29,4.11,3.44,8.4,3.44,12.85s-1.13,8.71-3.39,12.77-5.42,7.22-9.49,9.48c-4.07,2.26-8.32,3.39-12.75,3.39v.03l-12.4-.03V9.1h12.4Zm-19.84,58.7h19.84c5.71,0,11.19-1.45,16.45-4.37,5.26-2.91,9.34-6.98,12.25-12.22s4.36-10.72,4.36-16.45-1.48-11.32-4.43-16.62c-2.95-5.3-7.07-9.38-12.35-12.22s-10.71-4.27-16.29-4.27h-19.84V67.81h.01ZM372.97,3.31c5.31,0,10.47,1.35,15.48,4.05,5,2.7,8.91,6.57,11.72,11.61s4.22,10.3,4.22,15.79-1.38,10.66-4.15,15.63-6.65,8.84-11.64,11.61c-4.99,2.77-10.2,4.15-15.63,4.15v.03l-18.19-.03V3.32h18.19Zm35.52,64.48L440.54,3.7l32.05,64.1h1.89L440.55,0l-33.9,67.8h1.84Zm52.09,0l-20.04-40.08-20.04,40.08h.96l19.12-38.23,19.12,38.23h.88Zm6.48,0l-26.52-52.98-26.49,52.98h.93l25.56-51.16,25.6,51.16h.92Zm20.52-36.84l-14.65-29.3h-1.85l15.58,31.15,.93-1.85h0Zm3.21-6.42l-11.44-22.89h-.93l11.91,23.81,.46-.93h0Zm3.24-6.47l-8.2-16.4h-.93l8.67,17.33,.46-.93h0Zm-6.48,49.74h1.65V35.4L506.07,1.67h-1.85l-16.67,33.34v32.81h0v-.02Zm6.62-31.22v31.22h.83v-31.09L512.53,1.65h-.89l-17.46,34.92h-.01Zm5.79,1.33v29.9h.83v-29.7L519.01,1.65h-.93l-18.12,36.25h0Z"/><path d="M47.95,130.27v-43.19h-1.65v39.19L0,85.42v67.8H1.65v-63.8l46.3,40.85h0Zm5.79,12.37v-55.56h-.83v53.54L6.61,99.78v53.45h.83v-51.46l46.3,40.88h0Zm5.79,12.23V87.08h-.83v65.88L12.4,112.11v41.11h.83v-39.16l46.3,40.81h0Zm8.27-67.79v66.14h1.65V87.08h-1.65Zm13.23,.03l-.83-.03v66.14h.83V87.11h0Zm-5.79,0h-.83v66.11h.83V87.11h0Zm69.39,45.81c-2.25,4.08-5.41,7.24-9.49,9.49s-8.33,3.37-12.77,3.37-8.69-1.12-12.77-3.37-7.24-5.41-9.49-9.48c-2.25-4.07-3.37-8.32-3.37-12.75s1.15-8.77,3.44-12.88,5.48-7.27,9.56-9.48c4.08-2.2,8.29-3.31,12.63-3.31s8.49,1.1,12.57,3.31c2.09,1.12,3.96,2.51,5.59,4.17l.6-.6c-1.7-1.67-3.63-3.11-5.79-4.3-4.21-2.27-8.53-3.41-12.97-3.41s-8.82,1.14-13.03,3.42-7.5,5.54-9.87,9.77-3.55,8.66-3.55,13.3,1.16,8.97,3.49,13.16c2.33,4.19,5.59,7.45,9.79,9.77,4.2,2.33,8.59,3.49,13.18,3.49s8.98-1.16,13.18-3.49,7.46-5.58,9.79-9.77c2.33-4.19,3.49-8.59,3.49-13.2h-26.46v.83h25.63c-.13,4.15-1.26,8.12-3.37,11.94h0v.02Zm9.15-12.73c0,5.45-1.38,10.66-4.15,15.63-2.77,4.97-6.64,8.84-11.62,11.61s-10.21,4.15-15.68,4.15-10.63-1.38-15.61-4.15c-4.98-2.77-8.86-6.64-11.62-11.61-2.77-4.97-4.15-10.18-4.15-15.63s1.41-10.75,4.22-15.79,6.72-8.91,11.72-11.61c5-2.7,10.15-4.05,15.44-4.05s10.44,1.35,15.45,4.04c2.58,1.41,4.86,3.12,6.85,5.13l1.19-1.19c-2.12-2.12-4.53-3.9-7.24-5.36-5.27-2.84-10.68-4.27-16.24-4.27s-11,1.42-16.27,4.27c-5.27,2.84-9.38,6.92-12.34,12.22-2.96,5.3-4.43,10.84-4.43,16.62s1.46,11.22,4.37,16.45c2.91,5.24,6.99,9.31,12.24,12.22s10.73,4.36,16.44,4.36,11.26-1.45,16.5-4.36c5.25-2.91,9.33-6.98,12.24-12.22s4.37-10.72,4.37-16.45c0-2.25-.23-4.46-.7-6.65h-32.38v1.65h31.02c.26,1.65,.4,3.32,.4,4.99h-.02Zm-14.19,9.86c-1.74,3.15-4.19,5.6-7.34,7.34-3.15,1.74-6.45,2.61-9.89,2.61s-6.74-.87-9.89-2.61-5.6-4.18-7.34-7.33-2.61-6.44-2.61-9.91,.89-6.78,2.66-9.95c1.77-3.17,4.24-5.62,7.41-7.33,3.16-1.71,6.42-2.56,9.77-2.56s6.58,.85,9.76,2.55c1.61,.88,3.04,1.96,4.3,3.24l.6-.6c-1.32-1.32-2.82-2.45-4.5-3.37-3.31-1.76-6.69-2.65-10.15-2.65s-6.9,.89-10.19,2.66c-3.29,1.77-5.85,4.32-7.71,7.64-1.85,3.32-2.78,6.78-2.78,10.37s.91,7.03,2.73,10.3,4.37,5.82,7.66,7.64c3.28,1.82,6.71,2.73,10.29,2.73s7-.91,10.29-2.73c3.29-1.82,5.84-4.37,7.67-7.66,.9-1.63,1.53-3.13,1.88-4.5h-19.84v.83h18.72c-.4,1.12-.89,2.22-1.49,3.27h0v.02Zm22.45-42.96v66.14h1.65V87.08h-1.65Zm52.09,33.91v32.25h.83V87.11h-.83v33.04h-44.65v-33.04h-.83v66.11h.83v-32.25h44.65v.02Zm-5.79,5.79v26.46h.83v-27.29h-34.73v27.29h.83v-26.46h33.07Zm-33.9-11.57h34.73v-28.11l-.83,.03v26.42h-33.07v-26.42l-.83-.03v28.11h0Zm45.48-28.11v66.14h1.65V87.08h-1.65v.02Zm61.18,0h-52.92v1.65h52.92v-1.65h0Zm0,7.44v-.83h-52.92v.83h26.46v58.74h.83v-58.74h25.63Zm-52.92,4.96v.83h19.84v52.95h1.65v-53.78h-21.49Zm32.25,53.78h.83v-52.95h19.84v-.83h-20.67v53.78h0Zm46.1-.03h1.65V88.76l44.65-.03v-1.65h-46.3v66.14h0v.03Zm7.44-58.67l38.86-.03v-.83l-39.69,.03v59.5h.83v-32.25h32.25v-.83h-32.25v-25.6h0Zm4.96,31.4v27.29h.83v-26.46h26.46v-.83h-27.29Zm.83-25.63h33.07v-.83l-33.93,.03v15.68h27.32v-1.65h-26.46v-13.23h0Zm41.34-11.54l44.68-.03v-1.65h-46.3v66.14h46.3v-1.65h-44.68v-62.81h0Zm38.03,32.21v-.83h-32.25v-25.6l38.89-.03v-.83l-39.72,.03v52.88h39.72v-.83h-38.89v-24.8h32.25Zm-27.29,4.97v14.88h33.93v-.83h-33.1v-13.23h26.46v-.83h-27.29Zm0-10.74h27.29v-1.65h-26.46v-13.2l33.1-.03v-.83l-33.93,.03v15.68h0Zm92.04-28.11h-1.85l-19.08,38.23-19.12-38.23h-1.85l20.97,41.94,20.93-41.94h0Zm-20.93,54.83l27.42-54.83h-.93l-26.49,52.98-26.49-52.98h-.93l27.42,54.83h0Zm0,12.96l33.9-67.8h-.93l-32.97,65.91-32.97-65.91h-.93l33.9,67.8h0Zm38.86-66.11l44.68-.03v-1.65h-46.3v66.14h46.3v-1.65h-44.68v-62.81h0Zm38.03,32.21v-.83h-32.25v-25.6l38.89-.03v-.83l-39.72,.03v52.88h39.72v-.83h-38.89v-24.8h32.25Zm-27.28,4.97v14.88h33.93v-.83h-33.11v-13.23h26.46v-.83h-27.28Zm0-10.74h27.28v-1.65h-26.46v-13.2l33.11-.03v-.83l-33.93,.03v15.68h0Zm83.84,6.58c2.03-3.66,3.04-7.51,3.04-11.54s-1.04-7.9-3.11-11.61c-2.07-3.7-4.96-6.55-8.65-8.55-3.69-1.99-7.51-2.99-11.46-2.99h-23.15v66.14h1.65V88.73h21.5c3.66,0,7.2,.93,10.63,2.78s6.11,4.5,8.04,7.94,2.89,7.03,2.89,10.78-.95,7.32-2.84,10.71c-1.63,2.91-3.83,5.27-6.58,7.08l-1.42,.89,12.17,24.31h1.85l-11.84-23.68c3.04-1.96,5.47-4.55,7.28-7.77h0v.02Zm-11.87,2.81c2.62-1.46,4.66-3.49,6.12-6.12,1.45-2.62,2.18-5.37,2.18-8.24s-.74-5.66-2.23-8.3-3.55-4.68-6.18-6.1c-2.64-1.42-5.36-2.13-8.19-2.13h-16.54v59.53h.83v-58.7h15.71c2.69,0,5.29,.68,7.79,2.03,2.5,1.36,4.46,3.29,5.87,5.8s2.12,5.14,2.12,7.87-.7,5.35-2.08,7.84c-1.39,2.49-3.33,4.42-5.82,5.79-1.41,.79-2.87,1.36-4.36,1.69l-.83,.17,13.73,27.52h.93l-13.46-26.92c1.52-.35,3-.93,4.43-1.72h-.02Zm-8.3-3.62c1.9,0,3.7-.47,5.41-1.42,1.71-.95,3.04-2.27,3.99-3.97s1.42-3.48,1.42-5.36-.49-3.67-1.46-5.39-2.31-3.04-4.02-3.97-3.49-1.39-5.34-1.39h-10.75l-.03,53.74h.86v-52.92h9.92c1.72,0,3.37,.42,4.94,1.27,1.58,.85,2.81,2.07,3.7,3.67s1.34,3.26,1.34,4.98-.44,3.37-1.32,4.94c-.88,1.58-2.11,2.8-3.69,3.67s-3.24,1.31-4.98,1.31h-6.61l16.57,33.07h.89l-16.11-32.25h5.26v.02Z"/></g></g></svg>