<?xml version="1.0" encoding="utf-8"?>
<!-- Generator: Adobe Illustrator 26.3.1, SVG Export Plug-In . SVG Version: 6.00 Build 0)  -->
<svg version="1.1" id="Layer_1" xmlns="http://www.w3.org/2000/svg" xmlns:xlink="http://www.w3.org/1999/xlink" x="0px" y="0px"
	 viewBox="0 0 500 300" style="enable-background:new 0 0 500 300;" xml:space="preserve">
<style type="text/css">
	.st0{fill:none;}
	.st1{fill:url(#SVGID_1_);}
	.st2{opacity:0.15;}
	.st3{fill:#FFFFFF;}
</style>
<rect class="st0" width="500" height="300"/>
<linearGradient id="SVGID_1_" gradientUnits="userSpaceOnUse" x1="431.8735" y1="-57.2215" x2="68.1265" y2="361.2215" gradientTransform="matrix(1 0 0 -1 0 302)">
	<stop  offset="0.2639" style="stop-color:#E2002B"/>
	<stop  offset="1" style="stop-color:#FF6ABD"/>
</linearGradient>
<path class="st1" d="M500,0H0v300h500V0z"/>
<g class="st2">
	<path class="st3" d="M212.5,144.1c-0.5-1.2-0.6-2.6-0.5-4c0.1-1.4,0.4-2.7,1-3.7c0.6-1.1,1.2-1.9,2-2.6c0.8-0.7,1.6-1.2,2.5-1.6
		c0.9-0.4,1.7-0.6,2.4-0.7l-0.4,4.8c-0.3,0.1-0.7,0.3-1.1,0.5c-0.4,0.2-0.7,0.5-1.1,0.8c-0.3,0.3-0.6,0.7-0.9,1.2
		c-0.2,0.5-0.4,1-0.4,1.6c-0.1,0.8,0,1.5,0.3,2.1c0.3,0.6,0.6,1.2,1.1,1.6c0.5,0.4,1,0.8,1.6,1.1s1.2,0.4,1.9,0.5c0.7,0,1.4,0,2-0.2
		c0.7-0.2,1.3-0.5,1.8-0.8c0.5-0.4,1-0.9,1.3-1.4c0.4-0.6,0.6-1.2,0.6-2c0.1-0.7,0-1.3-0.3-1.9c-0.2-0.5-0.5-1-0.8-1.4
		c-0.3-0.4-0.6-0.7-1-0.9c-0.3-0.2-0.6-0.4-0.7-0.5l0.4-4.8c1.1,0.3,2,0.8,2.8,1.5c0.8,0.7,1.5,1.4,2.1,2.2c0.6,0.8,1,1.8,1.2,2.8
		c0.3,1,0.4,2.1,0.3,3.2c-0.1,1.4-0.5,2.7-1.1,3.8c-0.6,1.1-1.4,2.1-2.3,2.9c-0.9,0.8-2,1.3-3.1,1.7c-1.2,0.4-2.4,0.5-3.6,0.4
		c-1.2-0.1-2.3-0.4-3.4-0.9c-1.1-0.5-2-1.2-2.9-2.1C213.6,146.4,213,145.3,212.5,144.1z"/>
	<path class="st3" d="M231.2,163.3c-0.2-1.4-0.6-2.6-1.2-3.8c-0.6-1.1-1.4-2-2.4-2.8c-1-0.7-2-1.3-3.2-1.6c-1.2-0.3-2.4-0.4-3.7-0.3
		c-1.2,0.1-2.4,0.5-3.5,1.1c-1.1,0.6-2,1.4-2.8,2.3c-0.8,0.9-1.3,2-1.7,3.2c-0.4,1.2-0.5,2.5-0.3,3.9c0.1,1.3,0.5,2.4,0.9,3.3
		c0.5,0.9,1.1,1.7,1.7,2.4c0.6,0.7,1.3,1.2,2.1,1.6c0.7,0.4,1.4,0.7,2,0.8c0.7,0.2,1.4,0.3,2,0.3c0.7,0,1.3,0,1.9-0.1
		c1.2-0.1,2.2-0.5,3.3-1.1c1-0.6,1.9-1.3,2.7-2.3c0.8-0.9,1.3-2,1.7-3.2C231.2,166,231.4,164.7,231.2,163.3z M226.9,165.8
		c-0.2,0.6-0.6,1.2-1,1.7c-0.4,0.5-1,0.9-1.6,1.2c-0.6,0.3-1.3,0.5-2,0.6c-0.6,0.1-1.3,0.1-1.9-0.1c-0.6-0.1-1.2-0.4-1.8-0.8
		c-0.6-0.4-1-0.8-1.4-1.4c-0.4-0.6-0.6-1.3-0.7-2.1c-0.1-0.8,0-1.6,0.2-2.2c0.3-0.7,0.6-1.2,1.1-1.7c0.5-0.4,1-0.8,1.6-1.1
		c0.6-0.3,1.2-0.4,1.8-0.5c0.6-0.1,1.2,0,1.8,0.1c0.6,0.1,1.2,0.4,1.8,0.7c0.6,0.3,1,0.8,1.5,1.4c0.4,0.6,0.6,1.3,0.8,2.1
		C227.2,164.4,227.2,165.2,226.9,165.8z"/>
	<polygon class="st3" points="232,128.7 214.3,125 215.2,120.4 233,124.2 	"/>
	<path class="st3" d="M221.2,191.1c-0.7-0.2-1.4-0.5-2-1c-0.6-0.5-1.1-1-1.6-1.7c-0.4-0.7-0.8-1.3-1-2.1c-0.2-0.9-0.3-1.8-0.2-2.7
		c0.1-0.9,0.4-1.8,0.9-2.6c0.2-0.3,0.5-0.6,0.8-0.9c0.3-0.2,0.5-0.4,0.8-0.6c0.3-0.2,0.5-0.3,0.8-0.4s0.5-0.2,0.8-0.3l1.2,4.4
		c-0.1,0.1-0.3,0.1-0.5,0.2c-0.2,0.1-0.4,0.2-0.5,0.4c-0.1,0.2-0.3,0.4-0.3,0.6c-0.1,0.2,0,0.5,0.1,0.9c0.1,0.4,0.3,0.7,0.7,1
		c0.4,0.2,0.7,0.3,1.1,0.2c0.3-0.1,0.5-0.2,0.6-0.3c0.2-0.1,0.3-0.3,0.4-0.7c0.1-0.3,0.2-0.7,0.3-1.3c0.1-0.5,0.2-1.2,0.3-2.1
		c0.1-0.9,0.3-1.7,0.5-2.3c0.2-0.6,0.5-1.2,0.8-1.6c0.3-0.4,0.7-0.8,1.1-1c0.4-0.2,0.9-0.4,1.4-0.6c0.6-0.2,1.3-0.3,2-0.2
		c0.7,0,1.4,0.2,2,0.5c0.6,0.3,1.2,0.8,1.8,1.5c0.5,0.7,1,1.6,1.3,2.8c0.4,1.3,0.5,2.4,0.3,3.3c-0.1,0.9-0.4,1.7-0.8,2.3
		c-0.4,0.6-0.9,1.1-1.5,1.5c-0.6,0.4-1.2,0.6-1.7,0.8l-0.6,0.2l-1.3-4.4c0.5-0.1,0.9-0.3,1.2-0.6c0.3-0.2,0.5-0.4,0.6-0.7
		s0.2-0.5,0.2-0.7c0-0.2,0-0.4-0.1-0.5c-0.1-0.5-0.4-0.9-0.9-1.1c-0.4-0.2-0.9-0.2-1.3-0.1c-0.3,0.1-0.5,0.2-0.7,0.4
		c-0.2,0.2-0.3,0.4-0.4,0.7c-0.1,0.3-0.2,0.7-0.2,1.2c-0.1,0.5-0.1,1.1-0.2,1.9c0,0.4-0.1,0.8-0.2,1.3c-0.1,0.5-0.3,1.1-0.5,1.7
		c-0.3,0.6-0.6,1.1-1.1,1.6c-0.5,0.5-1.1,0.9-1.9,1.1C222.7,191.2,221.9,191.3,221.2,191.1z"/>
	<path class="st3" d="M237.7,108.6l1.6-4.7l-19.5,0.9l-1.2,3.5l14.7,12.8l1.6-4.7l-2.2-1.8l2.1-5.9L237.7,108.6z M229.8,112.1
		l-5.2-3.8l0,0v0l6.5,0.3L229.8,112.1z"/>
	<path class="st3" d="M231.9,205.4c-0.4,0.6-1,1-1.8,1.3c-0.8,0.3-1.5,0.5-2.3,0.4c-0.8-0.1-1.5-0.3-2.1-0.7
		c-0.7-0.4-1.2-0.8-1.8-1.5c-0.5-0.6-0.9-1.2-1.2-1.9c-0.4-0.8-0.6-1.7-0.6-2.7c0-0.9,0.1-1.8,0.5-2.7c0.2-0.4,0.4-0.7,0.6-1
		s0.5-0.5,0.7-0.7c0.2-0.2,0.5-0.4,0.7-0.5c0.2-0.1,0.5-0.3,0.7-0.4l1.8,4.2c-0.1,0.1-0.3,0.2-0.4,0.3c-0.2,0.1-0.3,0.3-0.4,0.5
		c-0.1,0.2-0.2,0.4-0.2,0.6c0,0.2,0,0.5,0.2,0.8c0.2,0.4,0.4,0.7,0.8,0.8c0.4,0.2,0.8,0.2,1.1,0c0.3-0.1,0.4-0.2,0.6-0.4
		c0.1-0.1,0.2-0.4,0.3-0.7c0.1-0.3,0.1-0.8,0.1-1.3c0-0.5,0-1.3,0-2.2c0-0.9,0.1-1.7,0.2-2.4c0.1-0.7,0.3-1.2,0.6-1.7
		c0.3-0.5,0.6-0.8,1-1.1s0.8-0.6,1.3-0.8c0.6-0.3,1.3-0.4,2-0.5c0.7-0.1,1.4,0,2.1,0.2c0.7,0.2,1.3,0.7,2,1.3s1.2,1.5,1.7,2.6
		c0.5,1.2,0.8,2.3,0.8,3.2c0,0.9-0.2,1.7-0.5,2.4c-0.3,0.7-0.8,1.2-1.3,1.7c-0.5,0.4-1.1,0.8-1.6,1l-0.5,0.2l-1.8-4.2
		c0.5-0.2,0.8-0.4,1.1-0.7c0.2-0.3,0.4-0.5,0.5-0.8c0.1-0.2,0.1-0.5,0.1-0.7c0-0.2-0.1-0.4-0.1-0.5c-0.2-0.5-0.6-0.8-1-1
		c-0.5-0.1-0.9-0.1-1.3,0.1c-0.3,0.1-0.5,0.3-0.6,0.4c-0.1,0.2-0.2,0.4-0.3,0.8c-0.1,0.3-0.1,0.7-0.1,1.2c0,0.5,0,1.1,0,1.9
		c0,0.3,0,0.8,0,1.3c0,0.5-0.1,1.1-0.3,1.7C232.6,204.3,232.3,204.9,231.9,205.4z"/>
	<polygon class="st3" points="227.5,96.5 223.9,94.6 229.3,84.2 232.9,86 231.3,89.2 243.8,95.6 241.6,99.7 229.1,93.3 	"/>
	<path class="st3" d="M250,214.7l-2.7,0.6l-3.4-5.3l1.7-2.1l-2.7-4.2l-11.4,15.8l1.9,3.1l19.2-3.6L250,214.7z M237.3,218L237.3,218
		L237.3,218l4.2-5l2,3.2L237.3,218z"/>
	<polygon class="st3" points="247.1,89.8 232.1,79.6 237.7,71.3 241.1,73.5 237.9,78.2 240.2,79.8 243.3,75.3 246.7,77.6 
		243.6,82.1 246.2,83.8 249.3,79.2 252.7,81.4 	"/>
	<path class="st3" d="M262.2,66.5c-0.1-1.1-0.5-2.2-1.1-3.1c-0.6-1-1.4-1.9-2.3-2.7c-0.7-0.7-1.5-1.2-2.4-1.7
		c-0.9-0.5-1.8-0.8-2.9-0.9c-1-0.1-1.9-0.1-2.8,0.1c-0.8,0.2-1.5,0.5-2.2,0.9c-0.6,0.4-1.2,0.8-1.7,1.3c-0.5,0.5-0.9,0.9-1.2,1.3
		l-4.1,4.4L255,78.3l4.3-4.7c1.2-1.3,2-2.5,2.4-3.7C262.1,68.7,262.3,67.6,262.2,66.5z M257.6,68.8c-0.2,0.6-0.6,1.2-1.1,1.9
		l-1.3,1.5l-7.4-6.8l1.4-1.5c0.3-0.4,0.7-0.7,1-0.9c0.3-0.2,0.6-0.4,1-0.5c0.3-0.1,0.6-0.2,0.9-0.2c0.3,0,0.5,0,0.8,0
		c0.6,0.1,1.2,0.3,1.7,0.6c0.5,0.3,1,0.6,1.4,1c0.5,0.4,0.9,0.9,1.2,1.4c0.4,0.5,0.6,1,0.7,1.6C257.8,67.6,257.8,68.2,257.6,68.8z"
		/>
	<path class="st3" d="M268.4,47.5c-0.2-1.2-0.1-2.4,0.2-3.6c0.3-1.2,0.8-2.3,1.5-3.3c0.7-1,1.7-1.9,2.8-2.6c0.9-0.6,1.9-1,2.9-1.2
		c1-0.2,2-0.3,3-0.3c1,0.1,1.9,0.3,2.8,0.6c0.9,0.4,1.7,0.8,2.4,1.4l-4.4,2.8c-0.7-0.3-1.4-0.5-2.2-0.6c-0.8,0-1.6,0.2-2.5,0.8
		c-0.5,0.3-0.9,0.7-1.3,1.2c-0.4,0.5-0.6,1.1-0.8,1.7c-0.2,0.6-0.2,1.3-0.1,2c0.1,0.7,0.4,1.4,0.9,2.2c0.5,0.8,1.1,1.4,1.7,1.8
		c0.6,0.4,1.3,0.7,1.9,0.8c0.6,0.1,1.3,0.1,1.9,0c0.6-0.1,1.1-0.4,1.6-0.7c1-0.6,1.6-1.4,2-2.2c0.3-0.8,0.4-1.7,0.1-2.6l-4.6,2.9
		l-2-3.1l9.1-5.8c0.1,0.1,0.2,0.2,0.3,0.4c0.1,0.1,0.2,0.3,0.3,0.4c0.8,1.3,1.3,2.6,1.5,3.9c0.2,1.3,0.1,2.5-0.1,3.7
		c-0.3,1.2-0.8,2.3-1.6,3.3c-0.8,1-1.6,1.8-2.7,2.5c-1.1,0.7-2.4,1.2-3.6,1.4c-1.2,0.2-2.5,0.2-3.7-0.1c-1.2-0.3-2.3-0.8-3.3-1.5
		c-1-0.7-1.9-1.6-2.6-2.7C269.1,49.9,268.6,48.7,268.4,47.5z"/>
	<polygon class="st3" points="294.3,47 287,30.4 296.3,26.3 297.9,30 292.7,32.3 293.9,34.9 298.9,32.7 300.5,36.4 295.5,38.6 
		296.7,41.5 301.9,39.2 303.5,42.9 	"/>
	<polygon class="st3" points="307.3,41.4 302.6,23.9 306.5,22.9 316.2,32 316.2,32 313.1,21.1 317.4,19.9 322.1,37.4 318.2,38.5 
		308.7,29.6 308.6,29.7 311.6,40.2 	"/>
	<polygon class="st3" points="326.6,36.8 324.5,18.8 334.5,17.6 335,21.7 329.4,22.3 329.7,25.1 335.1,24.5 335.6,28.5 330.2,29.1 
		330.5,32.2 336.1,31.6 336.6,35.6 	"/>
	<path class="st3" d="M349.8,29.4c0.9-0.1,1.6-0.4,2.2-0.8c0.6-0.4,1.1-0.9,1.4-1.4c0.4-0.5,0.6-1.1,0.8-1.7
		c0.2-0.6,0.2-1.2,0.2-1.7c0-0.9-0.1-1.8-0.5-2.8c-0.4-0.9-0.9-1.6-1.6-2.2c-0.3-0.2-0.6-0.4-0.9-0.6c-0.3-0.2-0.7-0.3-1.1-0.4
		c-0.4-0.1-0.9-0.2-1.5-0.3c-0.6-0.1-1.2-0.1-2-0.1l-5.7-0.1l-0.4,18.1l4.4,0.1l0.1-5.8h0l4.1,5.9l5.3,0.1L349.8,29.4z M348.6,26.2
		c-0.4,0.2-1,0.3-1.6,0.2l-1.6,0l0.1-5l1.7,0c0.9,0,1.6,0.2,2.1,0.7c0.5,0.4,0.8,1,0.8,1.9c0,0.2,0,0.5-0.1,0.8
		c-0.1,0.3-0.2,0.6-0.4,0.8C349.3,25.8,349,26,348.6,26.2z"/>
	<path class="st3" d="M370.5,19.8l-3.6-0.7l-10.4,16.5l4.9,0.9l1.4-2.4l6.2,1.1l0.4,2.7l4.9,0.9L370.5,19.8z M364.7,30.8l3-5.8l0,0
		h0l0.7,6.4L364.7,30.8z"/>
	<polygon class="st3" points="386.8,43.3 377.4,40.1 383.2,22.9 387.5,24.4 383,37.7 388.1,39.5 	"/>
	<path class="st3" d="M345,48.6C289,48.6,243.6,94,243.6,150c0,56,45.4,101.4,101.4,101.4c56,0,101.4-45.4,101.4-101.4
		C446.4,94,401,48.6,345,48.6z M345,246.9c-53.5,0-96.9-43.4-96.9-96.9c0-53.5,43.4-96.9,96.9-96.9s96.9,43.4,96.9,96.9
		C441.9,203.5,398.5,246.9,345,246.9z"/>
	<path class="st3" d="M400.8,47.1c-0.2-1.2-0.3-2.4,0-3.6c0.2-1.2,0.6-2.3,1.3-3.4c0.6-1,1.4-1.8,2.3-2.6s2-1.2,3.2-1.6
		c1.2-0.3,2.4-0.4,3.7-0.2c1.3,0.2,2.6,0.6,3.8,1.4c1.2,0.8,2.1,1.6,2.8,2.6c0.7,1,1.1,2,1.4,3c0.3,1,0.4,2,0.3,2.9
		c-0.1,1-0.2,1.8-0.5,2.4l-4.1-2.6c0.1-0.4,0.1-0.8,0.1-1.2c0-0.4-0.1-0.9-0.2-1.3c-0.1-0.4-0.4-0.9-0.7-1.3
		c-0.3-0.4-0.7-0.8-1.2-1.1c-0.7-0.4-1.3-0.7-2-0.7c-0.7-0.1-1.3,0-1.9,0.2c-0.6,0.2-1.2,0.5-1.7,0.9c-0.5,0.4-1,0.9-1.3,1.5
		c-0.4,0.6-0.6,1.2-0.8,1.9c-0.2,0.7-0.2,1.3-0.1,2c0.1,0.6,0.3,1.3,0.7,1.8c0.4,0.6,0.9,1.1,1.5,1.5c0.6,0.4,1.2,0.6,1.8,0.7
		c0.6,0.1,1.1,0,1.6-0.1c0.5-0.1,0.9-0.3,1.2-0.4c0.3-0.2,0.6-0.3,0.7-0.4l4.1,2.6c-0.8,0.8-1.7,1.4-2.6,1.8c-1,0.4-1.9,0.7-2.9,0.8
		c-1,0.1-2,0-3-0.2c-1-0.2-2-0.7-2.9-1.2c-1.2-0.8-2.2-1.7-2.9-2.7C401.6,49.4,401.1,48.2,400.8,47.1z"/>
	<path class="st3" d="M437.1,55.4c-0.5-1.2-1.3-2.2-2.3-3.2c-0.9-0.9-1.9-1.5-2.9-1.9c-1-0.4-1.9-0.6-2.9-0.7
		c-0.9-0.1-1.8,0-2.6,0.2c-0.8,0.2-1.5,0.4-2.1,0.7c-0.7,0.3-1.2,0.7-1.8,1.1c-0.5,0.4-1,0.8-1.4,1.3c-0.8,0.8-1.4,1.8-1.8,3
		c-0.4,1.1-0.6,2.3-0.6,3.5c0,1.2,0.3,2.4,0.8,3.6c0.5,1.2,1.3,2.2,2.3,3.2c1,1,2.1,1.6,3.4,2.1c1.2,0.4,2.4,0.6,3.6,0.6
		c1.2-0.1,2.4-0.3,3.5-0.9c1.1-0.5,2.1-1.2,3-2.2c0.9-0.9,1.5-2,1.9-3.1c0.4-1.2,0.6-2.3,0.6-3.5C437.9,57.8,437.7,56.6,437.1,55.4z
		 M433.1,61c-0.3,0.6-0.6,1.1-1,1.5c-0.4,0.4-0.9,0.8-1.5,1.1c-0.6,0.3-1.2,0.5-1.8,0.6c-0.6,0.1-1.3,0.1-2-0.1
		c-0.7-0.2-1.3-0.5-1.9-1.1c-0.6-0.5-1-1.1-1.2-1.8c-0.2-0.6-0.4-1.3-0.3-2c0-0.7,0.2-1.3,0.4-1.9c0.3-0.6,0.6-1.2,1.1-1.7
		c0.4-0.5,0.9-0.9,1.5-1.2c0.6-0.3,1.2-0.5,1.8-0.6c0.7-0.1,1.3,0,2,0.2c0.7,0.2,1.3,0.6,1.9,1.1c0.6,0.6,1,1.2,1.3,1.9
		c0.2,0.7,0.3,1.3,0.2,2C433.5,59.7,433.4,60.4,433.1,61z"/>
	<path class="st3" d="M345,4.2c-80.6,0-145.8,65.3-145.8,145.8c0,80.6,65.3,145.9,145.8,145.9c80.6,0,145.9-65.3,145.9-145.9
		C490.9,69.4,425.6,4.2,345,4.2z M345,291.8c-78.3,0-141.8-63.5-141.8-141.8C203.2,71.7,266.7,8.2,345,8.2
		c78.3,0,141.8,63.5,141.8,141.8C486.8,228.3,423.3,291.8,345,291.8z"/>
	<polygon class="st3" points="431.6,75.1 446.1,64.2 448.5,67.4 443.6,79.9 443.7,79.9 452.7,72.9 455.3,76.4 440.8,87.3 
		438.4,84.1 443.1,72 443,71.9 434.3,78.7 	"/>
	<path class="st3" d="M456.2,217c0.3,0.7,0.5,1.4,0.6,2.2c0.1,0.8,0,1.5-0.3,2.3c-0.2,0.8-0.5,1.4-1,2.1c-0.5,0.8-1.1,1.4-1.9,2
		c-0.8,0.6-1.6,0.9-2.5,1c-0.4,0-0.8,0-1.2,0c-0.3,0-0.7-0.1-1-0.2c-0.3-0.1-0.6-0.2-0.8-0.3c-0.2-0.1-0.5-0.3-0.7-0.4l2.5-3.8
		c0.1,0.1,0.3,0.1,0.5,0.2c0.2,0.1,0.4,0.1,0.6,0.1s0.4,0,0.6-0.1c0.2-0.1,0.4-0.3,0.6-0.6c0.2-0.3,0.3-0.7,0.3-1.1
		c0-0.4-0.2-0.7-0.6-1c-0.2-0.2-0.4-0.2-0.6-0.3c-0.2,0-0.4,0-0.8,0.1c-0.3,0.1-0.7,0.3-1.2,0.6c-0.5,0.3-1.1,0.7-1.8,1.1
		c-0.8,0.5-1.5,0.9-2.1,1.1c-0.6,0.2-1.2,0.4-1.7,0.4c-0.5,0-1,0-1.5-0.2c-0.5-0.2-0.9-0.4-1.3-0.7c-0.6-0.4-1.1-0.8-1.5-1.4
		c-0.4-0.5-0.7-1.2-0.9-1.9c-0.2-0.7-0.2-1.5,0-2.3c0.2-0.8,0.6-1.8,1.2-2.8c0.7-1.1,1.5-1.9,2.3-2.4c0.8-0.5,1.6-0.8,2.3-0.9
		c0.8-0.1,1.5,0,2.1,0.2c0.7,0.2,1.2,0.5,1.7,0.8l0.5,0.3l-2.5,3.8c-0.4-0.3-0.8-0.5-1.2-0.5c-0.4-0.1-0.7-0.1-0.9,0
		c-0.3,0.1-0.5,0.2-0.6,0.3c-0.2,0.1-0.3,0.3-0.4,0.4c-0.3,0.5-0.4,0.9-0.3,1.4c0.1,0.5,0.4,0.8,0.7,1c0.2,0.2,0.5,0.3,0.7,0.3
		c0.2,0,0.5,0,0.8-0.2c0.3-0.1,0.7-0.3,1.1-0.6s0.9-0.6,1.6-1c0.3-0.2,0.7-0.4,1.1-0.7c0.5-0.3,1-0.5,1.6-0.7
		c0.6-0.2,1.2-0.2,1.9-0.2c0.7,0,1.4,0.3,2.1,0.8C455.3,215.7,455.8,216.3,456.2,217z"/>
	<polygon class="st3" points="454.8,83.3 458.3,81.3 464,91.7 460.4,93.6 458.7,90.5 446.4,97.2 444.1,93.2 456.5,86.4 	"/>
	<path class="st3" d="M450.9,193.3l-1.9,4l5.3,2.5l0,0.1l-7.1,1.3l-2.3,4.8l7.7-1.8c-0.2,0.8-0.3,1.6-0.2,2.3
		c0.1,0.7,0.4,1.3,0.7,1.9c0.3,0.6,0.8,1,1.2,1.4c0.5,0.4,1,0.7,1.4,0.9c0.8,0.4,1.8,0.6,2.7,0.7c1,0.1,1.9-0.1,2.7-0.6
		c0.3-0.2,0.6-0.4,0.9-0.6c0.3-0.2,0.6-0.5,0.9-0.8c0.3-0.3,0.6-0.8,0.9-1.2c0.3-0.5,0.6-1.1,0.9-1.8l2.5-5.2L450.9,193.3z
		 M461,204.8c-0.4,0.8-0.9,1.4-1.5,1.7c-0.6,0.3-1.3,0.3-2-0.1c-0.2-0.1-0.4-0.2-0.7-0.4c-0.2-0.2-0.4-0.4-0.6-0.7
		c-0.1-0.3-0.2-0.7-0.2-1.1s0.1-1,0.4-1.6l0.7-1.5l4.6,2.2L461,204.8z"/>
	<path class="st3" d="M469.4,105.5c0-0.4-0.1-0.9-0.3-1.5c-0.2-0.6-0.4-1.2-0.7-1.9l-2-5.4l-16.9,6.5l1.6,4.1l5.5-2.1l0,0.1l-4,6
		l1.9,4.9l4-6.8c0.4,0.7,1,1.3,1.5,1.7c0.6,0.4,1.2,0.7,1.9,0.8c0.6,0.1,1.3,0.2,1.9,0.1c0.6-0.1,1.2-0.2,1.6-0.4
		c0.9-0.3,1.7-0.8,2.4-1.5c0.7-0.7,1.2-1.4,1.5-2.4c0.1-0.4,0.2-0.7,0.2-1.1C469.4,106.3,469.4,106,469.4,105.5z M464.9,106.2
		c-0.2,0.7-0.7,1.1-1.4,1.4c-0.2,0.1-0.5,0.1-0.8,0.2c-0.3,0-0.6,0-0.9-0.1c-0.3-0.1-0.6-0.3-1-0.6c-0.3-0.3-0.6-0.8-0.9-1.4
		l-0.6-1.5l4.7-1.8l0.6,1.6C465,104.7,465.1,105.5,464.9,106.2z"/>
	<path class="st3" d="M473.2,182.2c-0.1-1-0.3-2-0.7-2.9c-0.4-0.9-0.8-1.6-1.3-2.2c-0.5-0.6-1-1.2-1.5-1.5c-0.6-0.4-1.2-0.8-1.8-1.1
		c-0.6-0.3-1.2-0.5-1.8-0.6c-1.1-0.3-2.3-0.4-3.4-0.2c-1.2,0.1-2.3,0.5-3.4,1.1c-1.1,0.6-2,1.4-2.8,2.3c-0.8,1-1.4,2.2-1.8,3.5
		c-0.4,1.4-0.5,2.7-0.3,3.9c0.2,1.3,0.5,2.4,1.1,3.5c0.6,1.1,1.4,2,2.4,2.7c1,0.8,2.1,1.3,3.3,1.7c1.2,0.3,2.4,0.4,3.7,0.3
		c1.2-0.2,2.4-0.5,3.4-1.1c1.1-0.6,2-1.4,2.8-2.4c0.8-1,1.4-2.2,1.8-3.5C473.2,184.4,473.3,183.3,473.2,182.2z M468.9,184.6
		c-0.2,0.8-0.6,1.4-1.1,2c-0.5,0.5-1,0.9-1.7,1.1c-0.6,0.2-1.3,0.4-1.9,0.4s-1.3,0-1.8-0.2c-0.6-0.2-1.1-0.4-1.7-0.8
		c-0.5-0.4-1-0.8-1.4-1.3c-0.4-0.5-0.7-1.1-0.8-1.8c-0.2-0.7-0.1-1.4,0.1-2.2c0.2-0.8,0.5-1.4,1-1.9c0.5-0.5,1-0.9,1.6-1.2
		c0.6-0.3,1.2-0.5,1.9-0.5c0.7,0,1.4,0,2,0.2c0.6,0.2,1.2,0.4,1.7,0.8c0.5,0.4,1,0.8,1.4,1.4c0.4,0.5,0.6,1.1,0.8,1.8
		C469.1,183.1,469.1,183.8,468.9,184.6z"/>
	<path class="st3" d="M474.2,121.4l-19.2-3.5l1,4.9l2.8,0.4l1.3,6.2l-2.4,1.4l1,4.9L475,125L474.2,121.4z M469.1,124.3l-5.7,3.1
		l-0.8-3.7L469.1,124.3L469.1,124.3L469.1,124.3z"/>
	<polygon class="st3" points="473,159.5 477.1,160 475.7,171.7 471.6,171.2 472.1,167.7 458.1,166 458.6,161.4 472.6,163.1 	"/>
	<path class="st3" d="M474.4,139c0.9,0.8,1.7,1.8,2.2,2.9c0.6,1.1,0.9,2.5,0.9,4c0.1,1.4-0.2,2.7-0.6,3.8c-0.5,1.1-1,2.1-1.7,2.8
		c-0.7,0.8-1.5,1.4-2.3,1.9c-0.8,0.5-1.6,0.8-2.3,0.9l-0.2-4.8c0.3-0.1,0.7-0.3,1-0.6c0.4-0.2,0.7-0.6,1-0.9
		c0.3-0.4,0.5-0.8,0.7-1.3c0.2-0.5,0.3-1.1,0.3-1.7c0-0.8-0.2-1.5-0.5-2.1c-0.3-0.6-0.7-1.1-1.3-1.5c-0.5-0.4-1.1-0.7-1.7-0.9
		c-0.6-0.2-1.3-0.3-1.9-0.3c-0.7,0-1.3,0.2-2,0.4s-1.2,0.6-1.7,1c-0.5,0.4-0.9,1-1.2,1.6c-0.3,0.6-0.4,1.3-0.4,2.1
		c0,0.7,0.2,1.3,0.4,1.8c0.3,0.5,0.6,0.9,0.9,1.3c0.4,0.3,0.7,0.6,1.1,0.8c0.3,0.2,0.6,0.3,0.8,0.4l0.1,4.8c-1.1-0.2-2.1-0.6-3-1.2
		c-0.9-0.6-1.7-1.2-2.3-2c-0.6-0.8-1.2-1.7-1.5-2.6c-0.4-1-0.6-2-0.6-3.1c0-1.4,0.2-2.7,0.7-3.9c0.5-1.2,1.1-2.2,2-3.1
		c0.8-0.9,1.8-1.5,2.9-2s2.3-0.8,3.5-0.8c1.2,0,2.3,0.1,3.4,0.5C472.5,137.6,473.5,138.2,474.4,139z"/>
	<path class="st3" d="M212.5,144.1c-0.5-1.2-0.6-2.6-0.5-4c0.1-1.4,0.4-2.7,1-3.7c0.6-1.1,1.2-1.9,2-2.6c0.8-0.7,1.6-1.2,2.5-1.6
		c0.9-0.4,1.7-0.6,2.4-0.7l-0.4,4.8c-0.3,0.1-0.7,0.3-1.1,0.5c-0.4,0.2-0.7,0.5-1.1,0.8c-0.3,0.3-0.6,0.7-0.9,1.2
		c-0.2,0.5-0.4,1-0.4,1.6c-0.1,0.8,0,1.5,0.3,2.1c0.3,0.6,0.6,1.2,1.1,1.6c0.5,0.4,1,0.8,1.6,1.1s1.2,0.4,1.9,0.5c0.7,0,1.4,0,2-0.2
		c0.7-0.2,1.3-0.5,1.8-0.8c0.5-0.4,1-0.9,1.3-1.4c0.4-0.6,0.6-1.2,0.6-2c0.1-0.7,0-1.3-0.3-1.9c-0.2-0.5-0.5-1-0.8-1.4
		c-0.3-0.4-0.6-0.7-1-0.9c-0.3-0.2-0.6-0.4-0.7-0.5l0.4-4.8c1.1,0.3,2,0.8,2.8,1.5c0.8,0.7,1.5,1.4,2.1,2.2c0.6,0.8,1,1.8,1.2,2.8
		c0.3,1,0.4,2.1,0.3,3.2c-0.1,1.4-0.5,2.7-1.1,3.8c-0.6,1.1-1.4,2.1-2.3,2.9c-0.9,0.8-2,1.3-3.1,1.7c-1.2,0.4-2.4,0.5-3.6,0.4
		c-1.2-0.1-2.3-0.4-3.4-0.9c-1.1-0.5-2-1.2-2.9-2.1C213.6,146.4,213,145.3,212.5,144.1z"/>
	<path class="st3" d="M231.2,163.3c-0.2-1.4-0.6-2.6-1.2-3.8c-0.6-1.1-1.4-2-2.4-2.8c-1-0.7-2-1.3-3.2-1.6c-1.2-0.3-2.4-0.4-3.7-0.3
		c-1.2,0.1-2.4,0.5-3.5,1.1c-1.1,0.6-2,1.4-2.8,2.3c-0.8,0.9-1.3,2-1.7,3.2c-0.4,1.2-0.5,2.5-0.3,3.9c0.1,1.3,0.5,2.4,0.9,3.3
		c0.5,0.9,1.1,1.7,1.7,2.4c0.6,0.7,1.3,1.2,2.1,1.6c0.7,0.4,1.4,0.7,2,0.8c0.7,0.2,1.4,0.3,2,0.3c0.7,0,1.3,0,1.9-0.1
		c1.2-0.1,2.2-0.5,3.3-1.1c1-0.6,1.9-1.3,2.7-2.3c0.8-0.9,1.3-2,1.7-3.2C231.2,166,231.4,164.7,231.2,163.3z M226.9,165.8
		c-0.2,0.6-0.6,1.2-1,1.7c-0.4,0.5-1,0.9-1.6,1.2c-0.6,0.3-1.3,0.5-2,0.6c-0.6,0.1-1.3,0.1-1.9-0.1c-0.6-0.1-1.2-0.4-1.8-0.8
		c-0.6-0.4-1-0.8-1.4-1.4c-0.4-0.6-0.6-1.3-0.7-2.1c-0.1-0.8,0-1.6,0.2-2.2c0.3-0.7,0.6-1.2,1.1-1.7c0.5-0.4,1-0.8,1.6-1.1
		c0.6-0.3,1.2-0.4,1.8-0.5c0.6-0.1,1.2,0,1.8,0.1c0.6,0.1,1.2,0.4,1.8,0.7c0.6,0.3,1,0.8,1.5,1.4c0.4,0.6,0.6,1.3,0.8,2.1
		C227.2,164.4,227.2,165.2,226.9,165.8z"/>
	<polygon class="st3" points="232,128.7 214.3,125 215.2,120.4 233,124.2 	"/>
	<path class="st3" d="M221.2,191.1c-0.7-0.2-1.4-0.5-2-1c-0.6-0.5-1.1-1-1.6-1.7c-0.4-0.7-0.8-1.3-1-2.1c-0.2-0.9-0.3-1.8-0.2-2.7
		c0.1-0.9,0.4-1.8,0.9-2.6c0.2-0.3,0.5-0.6,0.8-0.9c0.3-0.2,0.5-0.4,0.8-0.6c0.3-0.2,0.5-0.3,0.8-0.4s0.5-0.2,0.8-0.3l1.2,4.4
		c-0.1,0.1-0.3,0.1-0.5,0.2c-0.2,0.1-0.4,0.2-0.5,0.4c-0.1,0.2-0.3,0.4-0.3,0.6c-0.1,0.2,0,0.5,0.1,0.9c0.1,0.4,0.3,0.7,0.7,1
		c0.4,0.2,0.7,0.3,1.1,0.2c0.3-0.1,0.5-0.2,0.6-0.3c0.2-0.1,0.3-0.3,0.4-0.7c0.1-0.3,0.2-0.7,0.3-1.3c0.1-0.5,0.2-1.2,0.3-2.1
		c0.1-0.9,0.3-1.7,0.5-2.3c0.2-0.6,0.5-1.2,0.8-1.6c0.3-0.4,0.7-0.8,1.1-1c0.4-0.2,0.9-0.4,1.4-0.6c0.6-0.2,1.3-0.3,2-0.2
		c0.7,0,1.4,0.2,2,0.5c0.6,0.3,1.2,0.8,1.8,1.5c0.5,0.7,1,1.6,1.3,2.8c0.4,1.3,0.5,2.4,0.3,3.3c-0.1,0.9-0.4,1.7-0.8,2.3
		c-0.4,0.6-0.9,1.1-1.5,1.5c-0.6,0.4-1.2,0.6-1.7,0.8l-0.6,0.2l-1.3-4.4c0.5-0.1,0.9-0.3,1.2-0.6c0.3-0.2,0.5-0.4,0.6-0.7
		s0.2-0.5,0.2-0.7c0-0.2,0-0.4-0.1-0.5c-0.1-0.5-0.4-0.9-0.9-1.1c-0.4-0.2-0.9-0.2-1.3-0.1c-0.3,0.1-0.5,0.2-0.7,0.4
		c-0.2,0.2-0.3,0.4-0.4,0.7c-0.1,0.3-0.2,0.7-0.2,1.2c-0.1,0.5-0.1,1.1-0.2,1.9c0,0.4-0.1,0.8-0.2,1.3c-0.1,0.5-0.3,1.1-0.5,1.7
		c-0.3,0.6-0.6,1.1-1.1,1.6c-0.5,0.5-1.1,0.9-1.9,1.1C222.7,191.2,221.9,191.3,221.2,191.1z"/>
	<path class="st3" d="M237.7,108.6l1.6-4.7l-19.5,0.9l-1.2,3.5l14.7,12.8l1.6-4.7l-2.2-1.8l2.1-5.9L237.7,108.6z M229.8,112.1
		l-5.2-3.8l0,0v0l6.5,0.3L229.8,112.1z"/>
	<path class="st3" d="M231.9,205.4c-0.4,0.6-1,1-1.8,1.3c-0.8,0.3-1.5,0.5-2.3,0.4c-0.8-0.1-1.5-0.3-2.1-0.7
		c-0.7-0.4-1.2-0.8-1.8-1.5c-0.5-0.6-0.9-1.2-1.2-1.9c-0.4-0.8-0.6-1.7-0.6-2.7c0-0.9,0.1-1.8,0.5-2.7c0.2-0.4,0.4-0.7,0.6-1
		s0.5-0.5,0.7-0.7c0.2-0.2,0.5-0.4,0.7-0.5c0.2-0.1,0.5-0.3,0.7-0.4l1.8,4.2c-0.1,0.1-0.3,0.2-0.4,0.3c-0.2,0.1-0.3,0.3-0.4,0.5
		c-0.1,0.2-0.2,0.4-0.2,0.6c0,0.2,0,0.5,0.2,0.8c0.2,0.4,0.4,0.7,0.8,0.8c0.4,0.2,0.8,0.2,1.1,0c0.3-0.1,0.4-0.2,0.6-0.4
		c0.1-0.1,0.2-0.4,0.3-0.7c0.1-0.3,0.1-0.8,0.1-1.3c0-0.5,0-1.3,0-2.2c0-0.9,0.1-1.7,0.2-2.4c0.1-0.7,0.3-1.2,0.6-1.7
		c0.3-0.5,0.6-0.8,1-1.1s0.8-0.6,1.3-0.8c0.6-0.3,1.3-0.4,2-0.5c0.7-0.1,1.4,0,2.1,0.2c0.7,0.2,1.3,0.7,2,1.3s1.2,1.5,1.7,2.6
		c0.5,1.2,0.8,2.3,0.8,3.2c0,0.9-0.2,1.7-0.5,2.4c-0.3,0.7-0.8,1.2-1.3,1.7c-0.5,0.4-1.1,0.8-1.6,1l-0.5,0.2l-1.8-4.2
		c0.5-0.2,0.8-0.4,1.1-0.7c0.2-0.3,0.4-0.5,0.5-0.8c0.1-0.2,0.1-0.5,0.1-0.7c0-0.2-0.1-0.4-0.1-0.5c-0.2-0.5-0.6-0.8-1-1
		c-0.5-0.1-0.9-0.1-1.3,0.1c-0.3,0.1-0.5,0.3-0.6,0.4c-0.1,0.2-0.2,0.4-0.3,0.8c-0.1,0.3-0.1,0.7-0.1,1.2c0,0.5,0,1.1,0,1.9
		c0,0.3,0,0.8,0,1.3c0,0.5-0.1,1.1-0.3,1.7C232.6,204.3,232.3,204.9,231.9,205.4z"/>
	<polygon class="st3" points="227.5,96.5 223.9,94.6 229.3,84.2 232.9,86 231.3,89.2 243.8,95.6 241.6,99.7 229.1,93.3 	"/>
	<path class="st3" d="M250,214.7l-2.7,0.6l-3.4-5.3l1.7-2.1l-2.7-4.2l-11.4,15.8l1.9,3.1l19.2-3.6L250,214.7z M237.3,218L237.3,218
		L237.3,218l4.2-5l2,3.2L237.3,218z"/>
	<polygon class="st3" points="247.1,89.8 232.1,79.6 237.7,71.3 241.1,73.5 237.9,78.2 240.2,79.8 243.3,75.3 246.7,77.6 
		243.6,82.1 246.2,83.8 249.3,79.2 252.7,81.4 	"/>
	<path class="st3" d="M262.2,66.5c-0.1-1.1-0.5-2.2-1.1-3.1c-0.6-1-1.4-1.9-2.3-2.7c-0.7-0.7-1.5-1.2-2.4-1.7
		c-0.9-0.5-1.8-0.8-2.9-0.9c-1-0.1-1.9-0.1-2.8,0.1c-0.8,0.2-1.5,0.5-2.2,0.9c-0.6,0.4-1.2,0.8-1.7,1.3c-0.5,0.5-0.9,0.9-1.2,1.3
		l-4.1,4.4L255,78.3l4.3-4.7c1.2-1.3,2-2.5,2.4-3.7C262.1,68.7,262.3,67.6,262.2,66.5z M257.6,68.8c-0.2,0.6-0.6,1.2-1.1,1.9
		l-1.3,1.5l-7.4-6.8l1.4-1.5c0.3-0.4,0.7-0.7,1-0.9c0.3-0.2,0.6-0.4,1-0.5c0.3-0.1,0.6-0.2,0.9-0.2c0.3,0,0.5,0,0.8,0
		c0.6,0.1,1.2,0.3,1.7,0.6c0.5,0.3,1,0.6,1.4,1c0.5,0.4,0.9,0.9,1.2,1.4c0.4,0.5,0.6,1,0.7,1.6C257.8,67.6,257.8,68.2,257.6,68.8z"
		/>
	<path class="st3" d="M268.4,47.5c-0.2-1.2-0.1-2.4,0.2-3.6c0.3-1.2,0.8-2.3,1.5-3.3c0.7-1,1.7-1.9,2.8-2.6c0.9-0.6,1.9-1,2.9-1.2
		c1-0.2,2-0.3,3-0.3c1,0.1,1.9,0.3,2.8,0.6c0.9,0.4,1.7,0.8,2.4,1.4l-4.4,2.8c-0.7-0.3-1.4-0.5-2.2-0.6c-0.8,0-1.6,0.2-2.5,0.8
		c-0.5,0.3-0.9,0.7-1.3,1.2c-0.4,0.5-0.6,1.1-0.8,1.7c-0.2,0.6-0.2,1.3-0.1,2c0.1,0.7,0.4,1.4,0.9,2.2c0.5,0.8,1.1,1.4,1.7,1.8
		c0.6,0.4,1.3,0.7,1.9,0.8c0.6,0.1,1.3,0.1,1.9,0c0.6-0.1,1.1-0.4,1.6-0.7c1-0.6,1.6-1.4,2-2.2c0.3-0.8,0.4-1.7,0.1-2.6l-4.6,2.9
		l-2-3.1l9.1-5.8c0.1,0.1,0.2,0.2,0.3,0.4c0.1,0.1,0.2,0.3,0.3,0.4c0.8,1.3,1.3,2.6,1.5,3.9c0.2,1.3,0.1,2.5-0.1,3.7
		c-0.3,1.2-0.8,2.3-1.6,3.3c-0.8,1-1.6,1.8-2.7,2.5c-1.1,0.7-2.4,1.2-3.6,1.4c-1.2,0.2-2.5,0.2-3.7-0.1c-1.2-0.3-2.3-0.8-3.3-1.5
		c-1-0.7-1.9-1.6-2.6-2.7C269.1,49.9,268.6,48.7,268.4,47.5z"/>
	<polygon class="st3" points="294.3,47 287,30.4 296.3,26.3 297.9,30 292.7,32.3 293.9,34.9 298.9,32.7 300.5,36.4 295.5,38.6 
		296.7,41.5 301.9,39.2 303.5,42.9 	"/>
	<polygon class="st3" points="307.3,41.4 302.6,23.9 306.5,22.9 316.2,32 316.2,32 313.1,21.1 317.4,19.9 322.1,37.4 318.2,38.5 
		308.7,29.6 308.6,29.7 311.6,40.2 	"/>
	<polygon class="st3" points="326.6,36.8 324.5,18.8 334.5,17.6 335,21.7 329.4,22.3 329.7,25.1 335.1,24.5 335.6,28.5 330.2,29.1 
		330.5,32.2 336.1,31.6 336.6,35.6 	"/>
	<path class="st3" d="M349.8,29.4c0.9-0.1,1.6-0.4,2.2-0.8c0.6-0.4,1.1-0.9,1.4-1.4c0.4-0.5,0.6-1.1,0.8-1.7
		c0.2-0.6,0.2-1.2,0.2-1.7c0-0.9-0.1-1.8-0.5-2.8c-0.4-0.9-0.9-1.6-1.6-2.2c-0.3-0.2-0.6-0.4-0.9-0.6c-0.3-0.2-0.7-0.3-1.1-0.4
		c-0.4-0.1-0.9-0.2-1.5-0.3c-0.6-0.1-1.2-0.1-2-0.1l-5.7-0.1l-0.4,18.1l4.4,0.1l0.1-5.8h0l4.1,5.9l5.3,0.1L349.8,29.4z M348.6,26.2
		c-0.4,0.2-1,0.3-1.6,0.2l-1.6,0l0.1-5l1.7,0c0.9,0,1.6,0.2,2.1,0.7c0.5,0.4,0.8,1,0.8,1.9c0,0.2,0,0.5-0.1,0.8
		c-0.1,0.3-0.2,0.6-0.4,0.8C349.3,25.8,349,26,348.6,26.2z"/>
	<path class="st3" d="M370.5,19.8l-3.6-0.7l-10.4,16.5l4.9,0.9l1.4-2.4l6.2,1.1l0.4,2.7l4.9,0.9L370.5,19.8z M364.7,30.8l3-5.8l0,0
		h0l0.7,6.4L364.7,30.8z"/>
	<polygon class="st3" points="386.8,43.3 377.4,40.1 383.2,22.9 387.5,24.4 383,37.7 388.1,39.5 	"/>
	<path class="st3" d="M345,48.6C289,48.6,243.6,94,243.6,150c0,56,45.4,101.4,101.4,101.4c56,0,101.4-45.4,101.4-101.4
		C446.4,94,401,48.6,345,48.6z M345,246.9c-53.5,0-96.9-43.4-96.9-96.9c0-53.5,43.4-96.9,96.9-96.9s96.9,43.4,96.9,96.9
		C441.9,203.5,398.5,246.9,345,246.9z"/>
	<path class="st3" d="M400.8,47.1c-0.2-1.2-0.3-2.4,0-3.6c0.2-1.2,0.6-2.3,1.3-3.4c0.6-1,1.4-1.8,2.3-2.6s2-1.2,3.2-1.6
		c1.2-0.3,2.4-0.4,3.7-0.2c1.3,0.2,2.6,0.6,3.8,1.4c1.2,0.8,2.1,1.6,2.8,2.6c0.7,1,1.1,2,1.4,3c0.3,1,0.4,2,0.3,2.9
		c-0.1,1-0.2,1.8-0.5,2.4l-4.1-2.6c0.1-0.4,0.1-0.8,0.1-1.2c0-0.4-0.1-0.9-0.2-1.3c-0.1-0.4-0.4-0.9-0.7-1.3
		c-0.3-0.4-0.7-0.8-1.2-1.1c-0.7-0.4-1.3-0.7-2-0.7c-0.7-0.1-1.3,0-1.9,0.2c-0.6,0.2-1.2,0.5-1.7,0.9c-0.5,0.4-1,0.9-1.3,1.5
		c-0.4,0.6-0.6,1.2-0.8,1.9c-0.2,0.7-0.2,1.3-0.1,2c0.1,0.6,0.3,1.3,0.7,1.8c0.4,0.6,0.9,1.1,1.5,1.5c0.6,0.4,1.2,0.6,1.8,0.7
		c0.6,0.1,1.1,0,1.6-0.1c0.5-0.1,0.9-0.3,1.2-0.4c0.3-0.2,0.6-0.3,0.7-0.4l4.1,2.6c-0.8,0.8-1.7,1.4-2.6,1.8c-1,0.4-1.9,0.7-2.9,0.8
		c-1,0.1-2,0-3-0.2c-1-0.2-2-0.7-2.9-1.2c-1.2-0.8-2.2-1.7-2.9-2.7C401.6,49.4,401.1,48.2,400.8,47.1z"/>
	<path class="st3" d="M437.1,55.4c-0.5-1.2-1.3-2.2-2.3-3.2c-0.9-0.9-1.9-1.5-2.9-1.9c-1-0.4-1.9-0.6-2.9-0.7
		c-0.9-0.1-1.8,0-2.6,0.2c-0.8,0.2-1.5,0.4-2.1,0.7c-0.7,0.3-1.2,0.7-1.8,1.1c-0.5,0.4-1,0.8-1.4,1.3c-0.8,0.8-1.4,1.8-1.8,3
		c-0.4,1.1-0.6,2.3-0.6,3.5c0,1.2,0.3,2.4,0.8,3.6c0.5,1.2,1.3,2.2,2.3,3.2c1,1,2.1,1.6,3.4,2.1c1.2,0.4,2.4,0.6,3.6,0.6
		c1.2-0.1,2.4-0.3,3.5-0.9c1.1-0.5,2.1-1.2,3-2.2c0.9-0.9,1.5-2,1.9-3.1c0.4-1.2,0.6-2.3,0.6-3.5C437.9,57.8,437.7,56.6,437.1,55.4z
		 M433.1,61c-0.3,0.6-0.6,1.1-1,1.5c-0.4,0.4-0.9,0.8-1.5,1.1c-0.6,0.3-1.2,0.5-1.8,0.6c-0.6,0.1-1.3,0.1-2-0.1
		c-0.7-0.2-1.3-0.5-1.9-1.1c-0.6-0.5-1-1.1-1.2-1.8c-0.2-0.6-0.4-1.3-0.3-2c0-0.7,0.2-1.3,0.4-1.9c0.3-0.6,0.6-1.2,1.1-1.7
		c0.4-0.5,0.9-0.9,1.5-1.2c0.6-0.3,1.2-0.5,1.8-0.6c0.7-0.1,1.3,0,2,0.2c0.7,0.2,1.3,0.6,1.9,1.1c0.6,0.6,1,1.2,1.3,1.9
		c0.2,0.7,0.3,1.3,0.2,2C433.5,59.7,433.4,60.4,433.1,61z"/>
	<polygon class="st3" points="431.6,75.1 446.1,64.2 448.5,67.4 443.6,79.9 443.7,79.9 452.7,72.9 455.3,76.4 440.8,87.3 
		438.4,84.1 443.1,72 443,71.9 434.3,78.7 	"/>
	<path class="st3" d="M456.2,217c0.3,0.7,0.5,1.4,0.6,2.2c0.1,0.8,0,1.5-0.3,2.3c-0.2,0.8-0.5,1.4-1,2.1c-0.5,0.8-1.1,1.4-1.9,2
		c-0.8,0.6-1.6,0.9-2.5,1c-0.4,0-0.8,0-1.2,0c-0.3,0-0.7-0.1-1-0.2c-0.3-0.1-0.6-0.2-0.8-0.3c-0.2-0.1-0.5-0.3-0.7-0.4l2.5-3.8
		c0.1,0.1,0.3,0.1,0.5,0.2c0.2,0.1,0.4,0.1,0.6,0.1s0.4,0,0.6-0.1c0.2-0.1,0.4-0.3,0.6-0.6c0.2-0.3,0.3-0.7,0.3-1.1
		c0-0.4-0.2-0.7-0.6-1c-0.2-0.2-0.4-0.2-0.6-0.3c-0.2,0-0.4,0-0.8,0.1c-0.3,0.1-0.7,0.3-1.2,0.6c-0.5,0.3-1.1,0.7-1.8,1.1
		c-0.8,0.5-1.5,0.9-2.1,1.1c-0.6,0.2-1.2,0.4-1.7,0.4c-0.5,0-1,0-1.5-0.2c-0.5-0.2-0.9-0.4-1.3-0.7c-0.6-0.4-1.1-0.8-1.5-1.4
		c-0.4-0.5-0.7-1.2-0.9-1.9c-0.2-0.7-0.2-1.5,0-2.3c0.2-0.8,0.6-1.8,1.2-2.8c0.7-1.1,1.5-1.9,2.3-2.4c0.8-0.5,1.6-0.8,2.3-0.9
		c0.8-0.1,1.5,0,2.1,0.2c0.7,0.2,1.2,0.5,1.7,0.8l0.5,0.3l-2.5,3.8c-0.4-0.3-0.8-0.5-1.2-0.5c-0.4-0.1-0.7-0.1-0.9,0
		c-0.3,0.1-0.5,0.2-0.6,0.3c-0.2,0.1-0.3,0.3-0.4,0.4c-0.3,0.5-0.4,0.9-0.3,1.4c0.1,0.5,0.4,0.8,0.7,1c0.2,0.2,0.5,0.3,0.7,0.3
		c0.2,0,0.5,0,0.8-0.2c0.3-0.1,0.7-0.3,1.1-0.6s0.9-0.6,1.6-1c0.3-0.2,0.7-0.4,1.1-0.7c0.5-0.3,1-0.5,1.6-0.7
		c0.6-0.2,1.2-0.2,1.9-0.2c0.7,0,1.4,0.3,2.1,0.8C455.3,215.7,455.8,216.3,456.2,217z"/>
	<polygon class="st3" points="454.8,83.3 458.3,81.3 464,91.7 460.4,93.6 458.7,90.5 446.4,97.2 444.1,93.2 456.5,86.4 	"/>
	<path class="st3" d="M450.9,193.3l-1.9,4l5.3,2.5l0,0.1l-7.1,1.3l-2.3,4.8l7.7-1.8c-0.2,0.8-0.3,1.6-0.2,2.3
		c0.1,0.7,0.4,1.3,0.7,1.9c0.3,0.6,0.8,1,1.2,1.4c0.5,0.4,1,0.7,1.4,0.9c0.8,0.4,1.8,0.6,2.7,0.7c1,0.1,1.9-0.1,2.7-0.6
		c0.3-0.2,0.6-0.4,0.9-0.6c0.3-0.2,0.6-0.5,0.9-0.8c0.3-0.3,0.6-0.8,0.9-1.2c0.3-0.5,0.6-1.1,0.9-1.8l2.5-5.2L450.9,193.3z
		 M461,204.8c-0.4,0.8-0.9,1.4-1.5,1.7c-0.6,0.3-1.3,0.3-2-0.1c-0.2-0.1-0.4-0.2-0.7-0.4c-0.2-0.2-0.4-0.4-0.6-0.7
		c-0.1-0.3-0.2-0.7-0.2-1.1s0.1-1,0.4-1.6l0.7-1.5l4.6,2.2L461,204.8z"/>
	<path class="st3" d="M469.4,105.5c0-0.4-0.1-0.9-0.3-1.5c-0.2-0.6-0.4-1.2-0.7-1.9l-2-5.4l-16.9,6.5l1.6,4.1l5.5-2.1l0,0.1l-4,6
		l1.9,4.9l4-6.8c0.4,0.7,1,1.3,1.5,1.7c0.6,0.4,1.2,0.7,1.9,0.8c0.6,0.1,1.3,0.2,1.9,0.1c0.6-0.1,1.2-0.2,1.6-0.4
		c0.9-0.3,1.7-0.8,2.4-1.5c0.7-0.7,1.2-1.4,1.5-2.4c0.1-0.4,0.2-0.7,0.2-1.1C469.4,106.3,469.4,106,469.4,105.5z M464.9,106.2
		c-0.2,0.7-0.7,1.1-1.4,1.4c-0.2,0.1-0.5,0.1-0.8,0.2c-0.3,0-0.6,0-0.9-0.1c-0.3-0.1-0.6-0.3-1-0.6c-0.3-0.3-0.6-0.8-0.9-1.4
		l-0.6-1.5l4.7-1.8l0.6,1.6C465,104.7,465.1,105.5,464.9,106.2z"/>
	<path class="st3" d="M473.2,182.2c-0.1-1-0.3-2-0.7-2.9c-0.4-0.9-0.8-1.6-1.3-2.2c-0.5-0.6-1-1.2-1.5-1.5c-0.6-0.4-1.2-0.8-1.8-1.1
		c-0.6-0.3-1.2-0.5-1.8-0.6c-1.1-0.3-2.3-0.4-3.4-0.2c-1.2,0.1-2.3,0.5-3.4,1.1c-1.1,0.6-2,1.4-2.8,2.3c-0.8,1-1.4,2.2-1.8,3.5
		c-0.4,1.4-0.5,2.7-0.3,3.9c0.2,1.3,0.5,2.4,1.1,3.5c0.6,1.1,1.4,2,2.4,2.7c1,0.8,2.1,1.3,3.3,1.7c1.2,0.3,2.4,0.4,3.7,0.3
		c1.2-0.2,2.4-0.5,3.4-1.1c1.1-0.6,2-1.4,2.8-2.4c0.8-1,1.4-2.2,1.8-3.5C473.2,184.4,473.3,183.3,473.2,182.2z M468.9,184.6
		c-0.2,0.8-0.6,1.4-1.1,2c-0.5,0.5-1,0.9-1.7,1.1c-0.6,0.2-1.3,0.4-1.9,0.4s-1.3,0-1.8-0.2c-0.6-0.2-1.1-0.4-1.7-0.8
		c-0.5-0.4-1-0.8-1.4-1.3c-0.4-0.5-0.7-1.1-0.8-1.8c-0.2-0.7-0.1-1.4,0.1-2.2c0.2-0.8,0.5-1.4,1-1.9c0.5-0.5,1-0.9,1.6-1.2
		c0.6-0.3,1.2-0.5,1.9-0.5c0.7,0,1.4,0,2,0.2c0.6,0.2,1.2,0.4,1.7,0.8c0.5,0.4,1,0.8,1.4,1.4c0.4,0.5,0.6,1.1,0.8,1.8
		C469.1,183.1,469.1,183.8,468.9,184.6z"/>
	<path class="st3" d="M474.2,121.4l-19.2-3.5l1,4.9l2.8,0.4l1.3,6.2l-2.4,1.4l1,4.9L475,125L474.2,121.4z M469.1,124.3l-5.7,3.1
		l-0.8-3.7L469.1,124.3L469.1,124.3L469.1,124.3z"/>
	<polygon class="st3" points="473,159.5 477.1,160 475.7,171.7 471.6,171.2 472.1,167.7 458.1,166 458.6,161.4 472.6,163.1 	"/>
	<path class="st3" d="M474.4,139c0.9,0.8,1.7,1.8,2.2,2.9c0.6,1.1,0.9,2.5,0.9,4c0.1,1.4-0.2,2.7-0.6,3.8c-0.5,1.1-1,2.1-1.7,2.8
		c-0.7,0.8-1.5,1.4-2.3,1.9c-0.8,0.5-1.6,0.8-2.3,0.9l-0.2-4.8c0.3-0.1,0.7-0.3,1-0.6c0.4-0.2,0.7-0.6,1-0.9
		c0.3-0.4,0.5-0.8,0.7-1.3c0.2-0.5,0.3-1.1,0.3-1.7c0-0.8-0.2-1.5-0.5-2.1c-0.3-0.6-0.7-1.1-1.3-1.5c-0.5-0.4-1.1-0.7-1.7-0.9
		c-0.6-0.2-1.3-0.3-1.9-0.3c-0.7,0-1.3,0.2-2,0.4s-1.2,0.6-1.7,1c-0.5,0.4-0.9,1-1.2,1.6c-0.3,0.6-0.4,1.3-0.4,2.1
		c0,0.7,0.2,1.3,0.4,1.8c0.3,0.5,0.6,0.9,0.9,1.3c0.4,0.3,0.7,0.6,1.1,0.8c0.3,0.2,0.6,0.3,0.8,0.4l0.1,4.8c-1.1-0.2-2.1-0.6-3-1.2
		c-0.9-0.6-1.7-1.2-2.3-2c-0.6-0.8-1.2-1.7-1.5-2.6c-0.4-1-0.6-2-0.6-3.1c0-1.4,0.2-2.7,0.7-3.9c0.5-1.2,1.1-2.2,2-3.1
		c0.8-0.9,1.8-1.5,2.9-2s2.3-0.8,3.5-0.8c1.2,0,2.3,0.1,3.4,0.5C472.5,137.6,473.5,138.2,474.4,139z"/>
	<path class="st3" d="M345,48.6C289,48.6,243.6,94,243.6,150c0,56,45.4,101.4,101.4,101.4c56,0,101.4-45.4,101.4-101.4
		C446.4,94,401,48.6,345,48.6z M345,246.9c-53.5,0-96.9-43.4-96.9-96.9c0-53.5,43.4-96.9,96.9-96.9s96.9,43.4,96.9,96.9
		C441.9,203.5,398.5,246.9,345,246.9z"/>
	<path class="st3" d="M345.1,77.2l-33.3,106.2l31.9,12.7l34.8-14.2L345.1,77.2z M343.6,192.7l-27.9-11.2l29.4-93.8l29.4,92.4
		L343.6,192.7z M345.1,77.2l-33.3,106.2l31.9,12.7l34.8-14.2L345.1,77.2z M343.6,192.7l-27.9-11.2l29.4-93.8l29.4,92.4L343.6,192.7z
		 M345.1,77.2l-33.3,106.2l31.9,12.7l34.8-14.2L345.1,77.2z M343.6,192.7l-27.9-11.2l29.4-93.8l29.4,92.4L343.6,192.7z M345.1,77.2
		l-33.3,106.2l31.9,12.7l34.8-14.2L345.1,77.2z M343.6,192.7l-27.9-11.2l29.4-93.8l29.4,92.4L343.6,192.7z M345.1,77.2l-33.3,106.2
		l31.9,12.7l34.8-14.2L345.1,77.2z M343.6,192.7l-27.9-11.2l29.4-93.8l29.4,92.4L343.6,192.7z M345.1,77.2l-33.3,106.2l31.9,12.7
		l34.8-14.2L345.1,77.2z M343.6,192.7l-27.9-11.2l29.4-93.8l29.4,92.4L343.6,192.7z M345.1,77.2l-33.3,106.2l31.9,12.7l34.8-14.2
		L345.1,77.2z M343.6,192.7l-27.9-11.2l29.4-93.8l29.4,92.4L343.6,192.7z M345.1,77.2l-33.3,106.2l31.9,12.7l34.8-14.2L345.1,77.2z
		 M343.6,192.7l-27.9-11.2l29.4-93.8l29.4,92.4L343.6,192.7z M345.1,77.2l-33.3,106.2l31.9,12.7l34.8-14.2L345.1,77.2z M343.6,192.7
		l-27.9-11.2l29.4-93.8l29.4,92.4L343.6,192.7z M345.1,77.2l-33.3,106.2l31.9,12.7l34.8-14.2L345.1,77.2z M343.6,192.7l-27.9-11.2
		l29.4-93.8l29.4,92.4L343.6,192.7z M345.1,77.2l-33.3,106.2l31.9,12.7l34.8-14.2L345.1,77.2z M343.6,192.7l-27.9-11.2l29.4-93.8
		l29.4,92.4L343.6,192.7z M345.1,77.2l-33.3,106.2l31.9,12.7l34.8-14.2L345.1,77.2z M343.6,192.7l-27.9-11.2l29.4-93.8l29.4,92.4
		L343.6,192.7z M416.3,204.5c-5.4,0.7-9.7-2.3-10.9-7.5l0-0.1c-0.3-1.1-33.1-105.7-37-117.4c-1.3-4-1.2-7.7,0.4-10.6
		c1-1.9,2.7-3.3,4.4-3.7l5.7-1.4l-5.6-1.7c-10.1-3.1-19.3-4.5-28.1-4.5c-9.9,0-18.5,2.1-28.5,5.3l-3.8,1.2l3.6,1.7
		c2.5,1.2,8.4,5.8,5.9,12.6l-37,118.1c-2.8,8.5-10.8,8.6-13.1,8.5l-3.7-0.3l2.4,2.9c9.8,11.9,22.6,21.4,37.1,27.3l1.5-2.8
		c-4.8-3.4-5.4-12-3.6-18.7l2.9-9.5l34.5,14.1l38.2-15.2l3.6,12.2c2.1,5.1-0.3,14.6-2.8,16.2l1.5,2.8c13-5.6,23.1-13.6,33.9-26.9
		l2.5-3.1L416.3,204.5z M387.5,228.7c1.7-4.6,2.2-11,0.6-14.8l-4.6-15.4l-40.2,16l-36.6-14.9l-3.9,12.9c-1.4,5.3-1.6,11.9,0.6,16.8
		c-10.6-5.2-20.2-12.5-28-21.3c5.2-0.6,10.6-3.6,12.9-10.6l37-118.1c2.3-6.3-0.8-11.5-4.5-14.5c8.4-2.5,15.9-4.1,24.3-4.1
		c7.4,0,15.1,1.1,23.4,3.3c-1,0.9-1.9,2-2.6,3.2c-2,3.6-2.3,8.3-0.7,13.1c3.9,11.7,36.1,114.6,37,117.3c0.6,2.4,1.7,4.5,3.3,6.1
		c0.2,0.2,0.4,0.5,0.7,0.7c1.9,1.7,4.2,2.8,6.9,3.1C404.8,217.5,397,223.9,387.5,228.7z M311.8,183.5l31.9,12.7l34.8-14.2
		L345.1,77.2L311.8,183.5z M374.5,180.2l-30.9,12.6l-27.9-11.2l29.4-93.8L374.5,180.2z M345.1,77.2l-33.3,106.2l31.9,12.7l34.8-14.2
		L345.1,77.2z M343.6,192.7l-27.9-11.2l29.4-93.8l29.4,92.4L343.6,192.7z M345.1,77.2l-33.3,106.2l31.9,12.7l34.8-14.2L345.1,77.2z
		 M343.6,192.7l-27.9-11.2l29.4-93.8l29.4,92.4L343.6,192.7z M345.1,77.2l-33.3,106.2l31.9,12.7l34.8-14.2L345.1,77.2z M343.6,192.7
		l-27.9-11.2l29.4-93.8l29.4,92.4L343.6,192.7z M345.1,77.2l-33.3,106.2l31.9,12.7l34.8-14.2L345.1,77.2z M343.6,192.7l-27.9-11.2
		l29.4-93.8l29.4,92.4L343.6,192.7z M345.1,77.2l-33.3,106.2l31.9,12.7l34.8-14.2L345.1,77.2z M343.6,192.7l-27.9-11.2l29.4-93.8
		l29.4,92.4L343.6,192.7z M345.1,77.2l-33.3,106.2l31.9,12.7l34.8-14.2L345.1,77.2z M343.6,192.7l-27.9-11.2l29.4-93.8l29.4,92.4
		L343.6,192.7z M345.1,77.2l-33.3,106.2l31.9,12.7l34.8-14.2L345.1,77.2z M343.6,192.7l-27.9-11.2l29.4-93.8l29.4,92.4L343.6,192.7z
		 M345.1,77.2l-33.3,106.2l31.9,12.7l34.8-14.2L345.1,77.2z M343.6,192.7l-27.9-11.2l29.4-93.8l29.4,92.4L343.6,192.7z M345.1,77.2
		l-33.3,106.2l31.9,12.7l34.8-14.2L345.1,77.2z M343.6,192.7l-27.9-11.2l29.4-93.8l29.4,92.4L343.6,192.7z M345.1,77.2l-33.3,106.2
		l31.9,12.7l34.8-14.2L345.1,77.2z M343.6,192.7l-27.9-11.2l29.4-93.8l29.4,92.4L343.6,192.7z M345.1,77.2l-33.3,106.2l31.9,12.7
		l34.8-14.2L345.1,77.2z M343.6,192.7l-27.9-11.2l29.4-93.8l29.4,92.4L343.6,192.7z M345.1,77.2l-33.3,106.2l31.9,12.7l34.8-14.2
		L345.1,77.2z M343.6,192.7l-27.9-11.2l29.4-93.8l29.4,92.4L343.6,192.7z"/>
	<g>
		<path class="st3" d="M279,113.7h-7l-14,34.8h9.5l1.8-5h12.1l1.7,5h9.7L279,113.7z M271.9,136.5l3.6-11.9h0.1l3.6,11.9H271.9z"/>
		<path class="st3" d="M363.6,161.1h-20.7v7.1h10.4c-0.5,1.7-1.4,3.1-2.9,4.1c-1.4,1-3.2,1.5-5.5,1.5c-1.1,0-2.2-0.2-3.3-0.6
			c-1.1-0.4-2.2-1-3.1-1.9c-0.9-0.8-1.7-1.9-2.3-3.2c-0.6-1.3-0.9-2.9-0.9-4.7c0-1.7,0.3-3.2,0.9-4.5s1.3-2.3,2.2-3.2
			c0.9-0.8,1.9-1.4,3.1-1.9c1.1-0.4,2.2-0.6,3.3-0.6c1.9,0,3.5,0.4,4.7,1.3c1.3,0.9,2.2,1.9,2.9,3.2h10c-0.5-1.7-1.3-3.3-2.4-4.8
			s-2.4-2.8-3.9-3.9c-1.5-1.1-3.3-2-5.2-2.7c-1.9-0.7-3.9-1-6-1c-2.6,0-5,0.4-7.2,1.3c-2.3,0.9-4.2,2.1-5.9,3.7
			c-1.7,1.6-3,3.5-4,5.7c-1,2.2-1.5,4.6-1.5,7.2c0,2.5,0.5,4.9,1.4,7.1c0.9,2.2,2.2,4.2,3.9,5.8c1.6,1.7,3.6,3,5.9,3.9
			c2.3,1,4.7,1.4,7.3,1.4c2.4,0,4.8-0.4,7-1.3c2.2-0.8,4.2-2.1,5.9-3.7c1.7-1.6,3.1-3.6,4.1-5.9c1-2.3,1.5-4.9,1.5-7.8v-0.9
			C363.7,161.7,363.6,161.4,363.6,161.1z"/>
		<path class="st3" d="M421,136.9c-0.4,0.6-0.9,1.3-1.5,2c-0.7,0.7-1.5,1.2-2.5,1.8c-1,0.5-2.2,0.8-3.6,0.8c-1.5,0-2.8-0.3-3.9-0.9
			c-1.2-0.6-2.1-1.4-2.9-2.3c-0.8-1-1.4-2.1-1.9-3.3c-0.4-1.2-0.7-2.5-0.7-3.8c0-1.2,0.2-2.4,0.6-3.7s1-2.3,1.8-3.3s1.8-1.7,2.9-2.3
			c1.1-0.6,2.5-0.9,4-0.9c1.2,0,2.3,0.2,3.2,0.6s1.8,0.9,2.4,1.5c0.7,0.6,1.3,1.2,1.7,2c0.4,0.7,0.8,1.4,1.1,2h9.3
			c-0.2-1.3-0.8-2.8-1.6-4.5c-0.9-1.6-2-3.1-3.5-4.5s-3.2-2.5-5.3-3.5c-2.1-0.9-4.5-1.4-7.2-1.4c-2.9,0-5.4,0.5-7.7,1.6
			c-2.3,1.1-4.2,2.4-5.7,4.1c-1.6,1.7-2.8,3.6-3.6,5.8c-0.8,2.2-1.2,4.3-1.2,6.6c0,2.3,0.5,4.6,1.3,6.8c0.9,2.2,2.1,4.1,3.8,5.8
			c1.6,1.7,3.5,3,5.8,4c2.3,1,4.8,1.5,7.5,1.5c2.1,0,4.1-0.3,6-1c1.9-0.7,3.6-1.6,5.2-2.8c1.5-1.2,2.9-2.6,4-4.3
			c1.1-1.7,1.9-3.6,2.4-5.6h-9.3C421.6,135.8,421.3,136.3,421,136.9z"/>
	</g>
	<g>
		<path class="st3" d="M250,214.7l-2.7,0.6l-3.4-5.3l1.7-2.1l-2.7-4.2l-11.4,15.8l1.9,3.1l19.2-3.6L250,214.7z M237.3,218L237.3,218
			L237.3,218l4.2-5l2,3.2L237.3,218z"/>
		<path class="st3" d="M239.9,195.6c-0.5-1.1-1-1.9-1.7-2.6s-1.3-1-2-1.3c-0.7-0.2-1.4-0.3-2.1-0.2c-0.7,0.1-1.3,0.2-2,0.5
			c-0.5,0.2-0.9,0.5-1.3,0.8s-0.7,0.7-1,1.1c-0.3,0.5-0.5,1-0.6,1.7c-0.1,0.7-0.2,1.4-0.2,2.4c0,0.9,0,1.6,0,2.2
			c0,0.6-0.1,1-0.1,1.3c-0.1,0.3-0.2,0.6-0.3,0.7c-0.1,0.2-0.3,0.3-0.6,0.4c-0.4,0.2-0.8,0.2-1.1,0c-0.4-0.2-0.6-0.5-0.8-0.8
			c-0.1-0.3-0.2-0.6-0.2-0.8c0-0.2,0.1-0.4,0.2-0.6c0.1-0.2,0.3-0.3,0.4-0.5c0.2-0.1,0.3-0.2,0.4-0.3l-1.8-4.2
			c-0.2,0.1-0.5,0.2-0.7,0.4c-0.2,0.1-0.5,0.3-0.7,0.5c-0.2,0.2-0.5,0.4-0.7,0.7s-0.4,0.6-0.6,1c-0.4,0.8-0.6,1.7-0.5,2.7
			c0.1,1,0.3,1.8,0.6,2.7c0.3,0.7,0.7,1.3,1.2,1.9c0.5,0.6,1.1,1.1,1.8,1.5c0.7,0.4,1.4,0.6,2.1,0.7c0.8,0.1,1.5-0.1,2.3-0.4
			c0.8-0.3,1.4-0.8,1.8-1.3c0.4-0.6,0.7-1.1,0.9-1.7c0.2-0.6,0.3-1.2,0.3-1.7c0-0.6,0-1,0-1.3c0-0.8,0-1.4,0-1.9
			c0-0.5,0-0.9,0.1-1.2c0.1-0.3,0.2-0.6,0.3-0.8c0.2-0.2,0.4-0.3,0.6-0.4c0.4-0.2,0.8-0.2,1.3-0.1c0.5,0.1,0.8,0.5,1,1
			c0.1,0.1,0.1,0.3,0.1,0.5c0,0.2,0,0.5-0.1,0.7c-0.1,0.3-0.2,0.5-0.5,0.8c-0.2,0.3-0.6,0.5-1.1,0.7l1.8,4.2l0.5-0.2
			c0.5-0.2,1.1-0.6,1.6-1c0.5-0.4,1-1,1.3-1.7c0.3-0.7,0.5-1.5,0.5-2.4C240.7,197.9,240.4,196.8,239.9,195.6z"/>
		<path class="st3" d="M234.8,181.3c-0.3-1.1-0.8-2.1-1.3-2.8c-0.5-0.7-1.1-1.2-1.8-1.5c-0.6-0.3-1.3-0.5-2-0.5
			c-0.7,0-1.4,0.1-2,0.2c-0.5,0.1-1,0.3-1.4,0.6c-0.4,0.2-0.8,0.6-1.1,1c-0.3,0.4-0.6,0.9-0.8,1.6c-0.2,0.6-0.4,1.4-0.5,2.3
			c-0.1,0.9-0.2,1.6-0.3,2.1c-0.1,0.5-0.2,1-0.3,1.3c-0.1,0.3-0.2,0.5-0.4,0.7c-0.1,0.1-0.3,0.2-0.6,0.3c-0.4,0.1-0.8,0.1-1.1-0.2
			c-0.3-0.2-0.6-0.6-0.7-1c-0.1-0.3-0.1-0.6-0.1-0.9c0.1-0.2,0.2-0.4,0.3-0.6c0.1-0.2,0.3-0.3,0.5-0.4c0.2-0.1,0.3-0.2,0.5-0.2
			l-1.2-4.4c-0.2,0.1-0.5,0.2-0.8,0.3s-0.5,0.2-0.8,0.4c-0.3,0.2-0.5,0.4-0.8,0.6c-0.3,0.2-0.5,0.5-0.8,0.9
			c-0.5,0.8-0.8,1.6-0.9,2.6c-0.1,0.9,0,1.9,0.2,2.7c0.2,0.7,0.5,1.4,1,2.1c0.4,0.7,1,1.2,1.6,1.7c0.6,0.5,1.3,0.8,2,1
			c0.7,0.2,1.5,0.2,2.3-0.1c0.8-0.2,1.5-0.6,1.9-1.1c0.5-0.5,0.9-1,1.1-1.6c0.2-0.6,0.4-1.1,0.5-1.7c0.1-0.5,0.2-1,0.2-1.3
			c0.1-0.8,0.2-1.4,0.2-1.9c0.1-0.5,0.1-0.9,0.2-1.2c0.1-0.3,0.2-0.6,0.4-0.7c0.2-0.2,0.4-0.3,0.7-0.4c0.4-0.1,0.8-0.1,1.3,0.1
			c0.4,0.2,0.7,0.6,0.9,1.1c0,0.1,0.1,0.3,0.1,0.5c0,0.2,0,0.5-0.2,0.7s-0.3,0.5-0.6,0.7c-0.3,0.2-0.7,0.4-1.2,0.6l1.3,4.4l0.6-0.2
			c0.6-0.2,1.1-0.4,1.7-0.8c0.6-0.4,1.1-0.9,1.5-1.5c0.4-0.6,0.7-1.4,0.8-2.3C235.2,183.6,235.1,182.5,234.8,181.3z"/>
		<path class="st3" d="M231.2,163.3c-0.2-1.4-0.6-2.6-1.2-3.8c-0.6-1.1-1.4-2-2.4-2.8c-1-0.7-2-1.3-3.2-1.6
			c-1.2-0.3-2.4-0.4-3.7-0.3c-1.2,0.1-2.4,0.5-3.5,1.1c-1.1,0.6-2,1.4-2.8,2.3c-0.8,0.9-1.3,2-1.7,3.2c-0.4,1.2-0.5,2.5-0.3,3.9
			c0.1,1.3,0.5,2.4,0.9,3.3c0.5,0.9,1.1,1.7,1.7,2.4c0.6,0.7,1.3,1.2,2.1,1.6c0.7,0.4,1.4,0.7,2,0.8c0.7,0.2,1.4,0.3,2,0.3
			c0.7,0,1.3,0,1.9-0.1c1.2-0.1,2.2-0.5,3.3-1.1c1-0.6,1.9-1.3,2.7-2.3c0.8-0.9,1.3-2,1.7-3.2C231.2,166,231.4,164.7,231.2,163.3z
			 M226.9,165.8c-0.2,0.6-0.6,1.2-1,1.7c-0.4,0.5-1,0.9-1.6,1.2c-0.6,0.3-1.3,0.5-2,0.6c-0.6,0.1-1.3,0.1-1.9-0.1
			c-0.6-0.1-1.2-0.4-1.8-0.8c-0.6-0.4-1-0.8-1.4-1.4c-0.4-0.6-0.6-1.3-0.7-2.1c-0.1-0.8,0-1.6,0.2-2.2c0.3-0.7,0.6-1.2,1.1-1.7
			c0.5-0.4,1-0.8,1.6-1.1c0.6-0.3,1.2-0.4,1.8-0.5c0.6-0.1,1.2,0,1.8,0.1c0.6,0.1,1.2,0.4,1.8,0.7c0.6,0.3,1,0.8,1.5,1.4
			c0.4,0.6,0.6,1.3,0.8,2.1C227.2,164.4,227.2,165.2,226.9,165.8z"/>
		<path class="st3" d="M230.5,138.2c-0.3-1-0.7-1.9-1.2-2.8c-0.6-0.8-1.2-1.6-2.1-2.2c-0.8-0.6-1.8-1.1-2.8-1.5l-0.4,4.8
			c0.2,0.1,0.4,0.2,0.7,0.5c0.3,0.2,0.6,0.5,1,0.9c0.3,0.4,0.6,0.8,0.8,1.4c0.2,0.5,0.3,1.2,0.3,1.9c0,0.8-0.2,1.4-0.6,2
			c-0.3,0.6-0.8,1.1-1.3,1.4c-0.5,0.4-1.1,0.7-1.8,0.8c-0.7,0.2-1.3,0.2-2,0.2c-0.6,0-1.3-0.2-1.9-0.5s-1.2-0.6-1.6-1.1
			c-0.5-0.5-0.8-1-1.1-1.6c-0.3-0.6-0.4-1.3-0.3-2.1c0-0.6,0.2-1.2,0.4-1.6c0.2-0.5,0.5-0.9,0.9-1.2c0.3-0.3,0.7-0.6,1.1-0.8
			c0.4-0.2,0.8-0.4,1.1-0.5l0.4-4.8c-0.7,0.1-1.5,0.3-2.4,0.7c-0.9,0.4-1.7,0.9-2.5,1.6c-0.8,0.7-1.4,1.6-2,2.6
			c-0.6,1.1-0.9,2.3-1,3.7c-0.1,1.5,0.1,2.8,0.5,4c0.5,1.2,1.1,2.3,1.9,3.1c0.8,0.9,1.8,1.6,2.9,2.1c1.1,0.5,2.2,0.8,3.4,0.9
			c1.2,0.1,2.4-0.1,3.6-0.4c1.2-0.4,2.2-1,3.1-1.7c0.9-0.8,1.7-1.7,2.3-2.9c0.6-1.1,1-2.4,1.1-3.8
			C230.8,140.3,230.7,139.3,230.5,138.2z"/>
		<path class="st3" d="M215.2,120.4l-0.9,4.5l17.7,3.7l1-4.5L215.2,120.4z"/>
		<path class="st3" d="M237.7,108.6l1.6-4.7l-19.5,0.9l-1.2,3.5l14.7,12.8l1.6-4.7l-2.2-1.8l2.1-5.9L237.7,108.6z M229.8,112.1
			l-5.2-3.8l0,0v0l6.5,0.3L229.8,112.1z"/>
		<path class="st3" d="M231.3,89.2l1.6-3.2l-3.6-1.9l-5.4,10.5l3.6,1.9l1.6-3.2l12.5,6.4l2.1-4.1L231.3,89.2z"/>
		<path class="st3" d="M249.3,79.2l-3.2,4.7l-2.6-1.8l3.1-4.5l-3.4-2.3l-3.1,4.5l-2.3-1.6l3.2-4.7l-3.4-2.3l-5.6,8.3l15,10.2
			l5.6-8.3L249.3,79.2z"/>
		<path class="st3" d="M262.2,66.5c-0.1-1.1-0.5-2.2-1.1-3.1c-0.6-1-1.4-1.9-2.3-2.7c-0.7-0.7-1.5-1.2-2.4-1.7
			c-0.9-0.5-1.8-0.8-2.9-0.9c-1-0.1-1.9-0.1-2.8,0.1c-0.8,0.2-1.5,0.5-2.2,0.9c-0.6,0.4-1.2,0.8-1.7,1.3c-0.5,0.5-0.9,0.9-1.2,1.3
			l-4.1,4.4L255,78.3l4.3-4.7c1.2-1.3,2-2.5,2.4-3.7C262.1,68.7,262.3,67.6,262.2,66.5z M257.6,68.8c-0.2,0.6-0.6,1.2-1.1,1.9
			l-1.3,1.5l-7.4-6.8l1.4-1.5c0.3-0.4,0.7-0.7,1-0.9c0.3-0.2,0.6-0.4,1-0.5c0.3-0.1,0.6-0.2,0.9-0.2c0.3,0,0.5,0,0.8,0
			c0.6,0.1,1.2,0.3,1.7,0.6c0.5,0.3,1,0.6,1.4,1c0.5,0.4,0.9,0.9,1.2,1.4c0.4,0.5,0.6,1,0.7,1.6C257.8,67.6,257.8,68.2,257.6,68.8z"
			/>
		<path class="st3" d="M287.4,44.3c-0.2-1.3-0.7-2.6-1.5-3.9c-0.1-0.2-0.2-0.3-0.3-0.4c-0.1-0.1-0.2-0.2-0.3-0.4l-9.1,5.8l2,3.1
			l4.6-2.9c0.3,0.9,0.2,1.7-0.1,2.6c-0.3,0.8-1,1.6-2,2.2c-0.5,0.3-1,0.5-1.6,0.7c-0.6,0.1-1.2,0.1-1.9,0c-0.6-0.1-1.3-0.4-1.9-0.8
			c-0.6-0.4-1.2-1-1.7-1.8c-0.5-0.8-0.8-1.5-0.9-2.2c-0.1-0.7-0.1-1.4,0.1-2c0.2-0.6,0.4-1.2,0.8-1.7c0.4-0.5,0.8-0.9,1.3-1.2
			c0.8-0.5,1.6-0.8,2.5-0.8c0.8,0,1.5,0.2,2.2,0.6l4.4-2.8c-0.7-0.6-1.5-1.1-2.4-1.4c-0.9-0.3-1.8-0.5-2.8-0.6c-1,0-2,0-3,0.3
			c-1,0.2-2,0.7-2.9,1.2c-1.1,0.7-2.1,1.6-2.8,2.6c-0.7,1-1.3,2.1-1.5,3.3c-0.3,1.2-0.4,2.4-0.2,3.6c0.2,1.2,0.7,2.4,1.4,3.6
			c0.7,1.1,1.6,2,2.6,2.7c1,0.7,2.1,1.2,3.3,1.5c1.2,0.3,2.4,0.3,3.7,0.1c1.3-0.2,2.5-0.7,3.6-1.4c1.1-0.7,2-1.5,2.7-2.5
			c0.7-1,1.3-2.1,1.6-3.3C287.6,46.8,287.6,45.6,287.4,44.3z"/>
		<path class="st3" d="M301.9,39.2l-5.2,2.3l-1.2-2.8l5-2.2l-1.6-3.7l-5,2.2l-1.1-2.6l5.2-2.3l-1.6-3.7l-9.2,4l7.3,16.6l9.2-4
			L301.9,39.2z"/>
		<path class="st3" d="M318.2,38.5l3.9-1l-4.7-17.5l-4.3,1.2l3.1,10.9l0,0.1l-9.7-9.2l-3.9,1l4.7,17.5l4.3-1.2l-3-10.6l0,0
			L318.2,38.5z"/>
		<path class="st3" d="M336.1,31.6l-5.6,0.6l-0.4-3.1l5.4-0.6l-0.5-4l-5.4,0.6l-0.3-2.8l5.6-0.6l-0.5-4l-10,1.1l2.1,18l10-1.1
			L336.1,31.6z"/>
		<path class="st3" d="M349.8,29.4c0.9-0.1,1.6-0.4,2.2-0.8c0.6-0.4,1.1-0.9,1.4-1.4c0.4-0.5,0.6-1.1,0.8-1.7
			c0.2-0.6,0.2-1.2,0.2-1.7c0-0.9-0.1-1.8-0.5-2.8c-0.4-0.9-0.9-1.6-1.6-2.2c-0.3-0.2-0.6-0.4-0.9-0.6c-0.3-0.2-0.7-0.3-1.1-0.4
			c-0.4-0.1-0.9-0.2-1.5-0.3c-0.6-0.1-1.2-0.1-2-0.1l-5.7-0.1l-0.4,18.1l4.4,0.1l0.1-5.8h0l4.1,5.9l5.3,0.1L349.8,29.4z M348.6,26.2
			c-0.4,0.2-1,0.3-1.6,0.2l-1.6,0l0.1-5l1.7,0c0.9,0,1.6,0.2,2.1,0.7c0.5,0.4,0.8,1,0.8,1.9c0,0.2,0,0.5-0.1,0.8
			c-0.1,0.3-0.2,0.6-0.4,0.8C349.3,25.8,349,26,348.6,26.2z"/>
		<path class="st3" d="M370.5,19.8l-3.6-0.7l-10.4,16.5l4.9,0.9l1.4-2.4l6.2,1.1l0.4,2.7l4.9,0.9L370.5,19.8z M364.7,30.8l3-5.8l0,0
			h0l0.7,6.4L364.7,30.8z"/>
		<path class="st3" d="M383,37.7l4.5-13.3l-4.4-1.5l-5.8,17.2l9.5,3.2l1.3-3.8L383,37.7z"/>
		<path class="st3" d="M419.3,42.8c-0.3-1-0.7-2-1.4-3c-0.7-1-1.6-1.9-2.8-2.6c-1.3-0.8-2.5-1.3-3.8-1.4c-1.3-0.2-2.5-0.1-3.7,0.2
			c-1.2,0.3-2.2,0.8-3.2,1.6s-1.7,1.6-2.3,2.6c-0.7,1-1.1,2.2-1.3,3.4c-0.2,1.2-0.2,2.4,0,3.6c0.2,1.2,0.7,2.3,1.5,3.4
			c0.7,1.1,1.7,2,2.9,2.7c0.9,0.6,1.9,1,2.9,1.2c1,0.2,2,0.3,3,0.2c1-0.1,2-0.4,2.9-0.8c0.9-0.4,1.8-1,2.6-1.8l-4.1-2.6
			c-0.2,0.1-0.4,0.2-0.7,0.4c-0.3,0.2-0.7,0.3-1.2,0.4c-0.5,0.1-1,0.1-1.6,0.1c-0.6-0.1-1.2-0.3-1.8-0.7c-0.6-0.4-1.1-0.9-1.5-1.5
			c-0.4-0.6-0.6-1.2-0.7-1.8c-0.1-0.7-0.1-1.3,0.1-2c0.1-0.7,0.4-1.3,0.8-1.9c0.3-0.5,0.8-1,1.3-1.5c0.5-0.4,1.1-0.7,1.7-0.9
			c0.6-0.2,1.3-0.3,1.9-0.2c0.7,0,1.3,0.3,2,0.7c0.5,0.3,0.9,0.7,1.2,1.1c0.3,0.4,0.5,0.9,0.7,1.3c0.2,0.4,0.2,0.9,0.2,1.3
			c0,0.4,0,0.8-0.1,1.2l4.1,2.6c0.3-0.7,0.4-1.5,0.5-2.4C419.7,44.8,419.6,43.8,419.3,42.8z"/>
		<path class="st3" d="M437.1,55.4c-0.5-1.2-1.3-2.2-2.3-3.2c-0.9-0.9-1.9-1.5-2.9-1.9c-1-0.4-1.9-0.6-2.9-0.7
			c-0.9-0.1-1.8,0-2.6,0.2c-0.8,0.2-1.5,0.4-2.1,0.7c-0.7,0.3-1.2,0.7-1.8,1.1c-0.5,0.4-1,0.8-1.4,1.3c-0.8,0.8-1.4,1.8-1.8,3
			c-0.4,1.1-0.6,2.3-0.6,3.5c0,1.2,0.3,2.4,0.8,3.6c0.5,1.2,1.3,2.2,2.3,3.2c1,1,2.1,1.6,3.4,2.1c1.2,0.4,2.4,0.6,3.6,0.6
			c1.2-0.1,2.4-0.3,3.5-0.9c1.1-0.5,2.1-1.2,3-2.2c0.9-0.9,1.5-2,1.9-3.1c0.4-1.2,0.6-2.3,0.6-3.5C437.9,57.8,437.7,56.6,437.1,55.4
			z M433.1,61c-0.3,0.6-0.6,1.1-1,1.5c-0.4,0.4-0.9,0.8-1.5,1.1c-0.6,0.3-1.2,0.5-1.8,0.6c-0.6,0.1-1.3,0.1-2-0.1
			c-0.7-0.2-1.3-0.5-1.9-1.1c-0.6-0.5-1-1.1-1.2-1.8c-0.2-0.6-0.4-1.3-0.3-2c0-0.7,0.2-1.3,0.4-1.9c0.3-0.6,0.6-1.2,1.1-1.7
			c0.4-0.5,0.9-0.9,1.5-1.2c0.6-0.3,1.2-0.5,1.8-0.6c0.7-0.1,1.3,0,2,0.2c0.7,0.2,1.3,0.6,1.9,1.1c0.6,0.6,1,1.2,1.3,1.9
			c0.2,0.7,0.3,1.3,0.2,2C433.5,59.7,433.4,60.4,433.1,61z"/>
		<path class="st3" d="M452.7,72.9l-9,7h-0.1l4.9-12.4l-2.4-3.2l-14.5,10.9l2.7,3.6l8.7-6.7l0,0l-4.7,12.2l2.4,3.2l14.5-10.9
			L452.7,72.9z"/>
		<path class="st3" d="M458.3,81.3l-3.6,1.9l1.7,3.1l-12.3,6.7l2.2,4.1l12.3-6.7l1.7,3.1l3.6-1.9L458.3,81.3z"/>
		<path class="st3" d="M469.4,105.5c0-0.4-0.1-0.9-0.3-1.5c-0.2-0.6-0.4-1.2-0.7-1.9l-2-5.4l-16.9,6.5l1.6,4.1l5.5-2.1l0,0.1l-4,6
			l1.9,4.9l4-6.8c0.4,0.7,1,1.3,1.5,1.7c0.6,0.4,1.2,0.7,1.9,0.8c0.6,0.1,1.3,0.2,1.9,0.1c0.6-0.1,1.2-0.2,1.6-0.4
			c0.9-0.3,1.7-0.8,2.4-1.5c0.7-0.7,1.2-1.4,1.5-2.4c0.1-0.4,0.2-0.7,0.2-1.1C469.4,106.3,469.4,106,469.4,105.5z M464.9,106.2
			c-0.2,0.7-0.7,1.1-1.4,1.4c-0.2,0.1-0.5,0.1-0.8,0.2c-0.3,0-0.6,0-0.9-0.1c-0.3-0.1-0.6-0.3-1-0.6c-0.3-0.3-0.6-0.8-0.9-1.4
			l-0.6-1.5l4.7-1.8l0.6,1.6C465,104.7,465.1,105.5,464.9,106.2z"/>
		<path class="st3" d="M474.2,121.4l-19.2-3.5l1,4.9l2.8,0.4l1.3,6.2l-2.4,1.4l1,4.9L475,125L474.2,121.4z M469.1,124.3l-5.7,3.1
			l-0.8-3.7L469.1,124.3L469.1,124.3L469.1,124.3z"/>
		<path class="st3" d="M476.6,141.9c-0.6-1.2-1.3-2.1-2.2-2.9c-0.9-0.8-1.9-1.4-3.1-1.8c-1.1-0.4-2.3-0.6-3.4-0.5
			c-1.2,0-2.4,0.3-3.5,0.8s-2.1,1.2-2.9,2c-0.9,0.9-1.5,1.9-2,3.1c-0.5,1.2-0.7,2.5-0.7,3.9c0,1.1,0.2,2.1,0.6,3.1
			c0.4,1,0.9,1.9,1.5,2.6c0.6,0.8,1.4,1.4,2.3,2c0.9,0.6,1.9,0.9,3,1.2l-0.1-4.8c-0.2-0.1-0.4-0.2-0.8-0.4c-0.4-0.2-0.7-0.4-1.1-0.8
			c-0.3-0.3-0.7-0.8-0.9-1.3c-0.3-0.5-0.4-1.1-0.4-1.8c0-0.8,0.1-1.4,0.4-2.1c0.3-0.6,0.7-1.1,1.2-1.6c0.5-0.4,1-0.8,1.7-1
			s1.3-0.4,2-0.4c0.6,0,1.3,0.1,1.9,0.3c0.7,0.2,1.2,0.5,1.7,0.9c0.5,0.4,0.9,0.9,1.3,1.5c0.3,0.6,0.5,1.3,0.5,2.1
			c0,0.6-0.1,1.2-0.3,1.7c-0.2,0.5-0.4,0.9-0.7,1.3c-0.3,0.4-0.6,0.7-1,0.9c-0.4,0.2-0.7,0.4-1,0.6l0.2,4.8c0.7-0.2,1.5-0.5,2.3-0.9
			c0.8-0.5,1.6-1.1,2.3-1.9c0.7-0.8,1.3-1.7,1.7-2.8c0.5-1.1,0.7-2.4,0.6-3.8C477.5,144.4,477.2,143.1,476.6,141.9z"/>
		<path class="st3" d="M473,159.5l-0.4,3.6l-14-1.7l-0.6,4.6l14,1.7l-0.4,3.5l4,0.5l1.4-11.7L473,159.5z"/>
		<path class="st3" d="M473.2,182.2c-0.1-1-0.3-2-0.7-2.9c-0.4-0.9-0.8-1.6-1.3-2.2c-0.5-0.6-1-1.2-1.5-1.5
			c-0.6-0.4-1.2-0.8-1.8-1.1c-0.6-0.3-1.2-0.5-1.8-0.6c-1.1-0.3-2.3-0.4-3.4-0.2c-1.2,0.1-2.3,0.5-3.4,1.1c-1.1,0.6-2,1.4-2.8,2.3
			c-0.8,1-1.4,2.2-1.8,3.5c-0.4,1.4-0.5,2.7-0.3,3.9c0.2,1.3,0.5,2.4,1.1,3.5c0.6,1.1,1.4,2,2.4,2.7c1,0.8,2.1,1.3,3.3,1.7
			c1.2,0.3,2.4,0.4,3.7,0.3c1.2-0.2,2.4-0.5,3.4-1.1c1.1-0.6,2-1.4,2.8-2.4c0.8-1,1.4-2.2,1.8-3.5
			C473.2,184.4,473.3,183.3,473.2,182.2z M468.9,184.6c-0.2,0.8-0.6,1.4-1.1,2c-0.5,0.5-1,0.9-1.7,1.1c-0.6,0.2-1.3,0.4-1.9,0.4
			s-1.3,0-1.8-0.2c-0.6-0.2-1.1-0.4-1.7-0.8c-0.5-0.4-1-0.8-1.4-1.3c-0.4-0.5-0.7-1.1-0.8-1.8c-0.2-0.7-0.1-1.4,0.1-2.2
			c0.2-0.8,0.5-1.4,1-1.9c0.5-0.5,1-0.9,1.6-1.2c0.6-0.3,1.2-0.5,1.9-0.5c0.7,0,1.4,0,2,0.2c0.6,0.2,1.2,0.4,1.7,0.8
			c0.5,0.4,1,0.8,1.4,1.4c0.4,0.5,0.6,1.1,0.8,1.8C469.1,183.1,469.1,183.8,468.9,184.6z"/>
		<path class="st3" d="M450.9,193.3l-1.9,4l5.3,2.5l0,0.1l-7.1,1.3l-2.3,4.8l7.7-1.8c-0.2,0.8-0.3,1.6-0.2,2.3
			c0.1,0.7,0.4,1.3,0.7,1.9c0.3,0.6,0.8,1,1.2,1.4c0.5,0.4,1,0.7,1.4,0.9c0.8,0.4,1.8,0.6,2.7,0.7c1,0.1,1.9-0.1,2.7-0.6
			c0.3-0.2,0.6-0.4,0.9-0.6c0.3-0.2,0.6-0.5,0.9-0.8c0.3-0.3,0.6-0.8,0.9-1.2c0.3-0.5,0.6-1.1,0.9-1.8l2.5-5.2L450.9,193.3z
			 M461,204.8c-0.4,0.8-0.9,1.4-1.5,1.7c-0.6,0.3-1.3,0.3-2-0.1c-0.2-0.1-0.4-0.2-0.7-0.4c-0.2-0.2-0.4-0.4-0.6-0.7
			c-0.1-0.3-0.2-0.7-0.2-1.1s0.1-1,0.4-1.6l0.7-1.5l4.6,2.2L461,204.8z"/>
		<path class="st3" d="M456.2,217c-0.3-0.7-0.9-1.2-1.6-1.7c-0.7-0.5-1.4-0.7-2.1-0.8c-0.7,0-1.3,0-1.9,0.2
			c-0.6,0.2-1.1,0.4-1.6,0.7c-0.5,0.3-0.9,0.5-1.1,0.7c-0.6,0.4-1.2,0.8-1.6,1s-0.8,0.5-1.1,0.6c-0.3,0.1-0.6,0.2-0.8,0.2
			c-0.2,0-0.5-0.1-0.7-0.3c-0.4-0.2-0.6-0.6-0.7-1c-0.1-0.5,0-0.9,0.3-1.4c0.1-0.1,0.2-0.3,0.4-0.4c0.2-0.1,0.4-0.3,0.6-0.3
			c0.3-0.1,0.6-0.1,0.9,0c0.3,0.1,0.7,0.2,1.2,0.5l2.5-3.8l-0.5-0.3c-0.5-0.3-1.1-0.6-1.7-0.8c-0.7-0.2-1.4-0.3-2.1-0.2
			c-0.7,0.1-1.5,0.4-2.3,0.9c-0.8,0.5-1.5,1.3-2.3,2.4c-0.7,1-1.1,1.9-1.2,2.8c-0.2,0.9-0.2,1.6,0,2.3c0.2,0.7,0.5,1.3,0.9,1.9
			c0.4,0.5,0.9,1,1.5,1.4c0.4,0.3,0.9,0.5,1.3,0.7c0.5,0.2,1,0.2,1.5,0.2c0.5,0,1.1-0.2,1.7-0.4c0.6-0.2,1.3-0.6,2.1-1.1
			c0.8-0.5,1.4-0.9,1.8-1.1c0.5-0.3,0.9-0.5,1.2-0.6c0.3-0.1,0.6-0.2,0.8-0.1c0.2,0,0.4,0.1,0.6,0.3c0.4,0.2,0.5,0.6,0.6,1
			c0,0.4-0.1,0.8-0.3,1.1c-0.2,0.3-0.4,0.5-0.6,0.6c-0.2,0.1-0.4,0.2-0.6,0.1s-0.4-0.1-0.6-0.1c-0.2-0.1-0.4-0.1-0.5-0.2l-2.5,3.8
			c0.2,0.1,0.5,0.3,0.7,0.4c0.2,0.1,0.5,0.2,0.8,0.3c0.3,0.1,0.6,0.2,1,0.2c0.4,0.1,0.7,0.1,1.2,0c0.9-0.1,1.8-0.4,2.5-1
			c0.8-0.5,1.4-1.2,1.9-2c0.4-0.6,0.8-1.3,1-2.1c0.2-0.8,0.3-1.5,0.3-2.3C456.7,218.4,456.5,217.6,456.2,217z"/>
	</g>
	<g>
		<path class="st3" d="M295.9,251.5l-3.1,6l-5.2-2.7l3.1-6l-4.1-2.1l-8.2,15.9l4.1,2.1l3.3-6.4l5.2,2.7l-3.3,6.4l4.1,2.1l8.2-15.9
			L295.9,251.5z"/>
		<path class="st3" d="M312.1,257.5c-5.2-1.6-10.3,1.2-11.9,6.5c-1.5,5.1,1.9,9.9,6.6,11.4c4.9,1.5,10.1-1.2,11.6-6.3
			C320,264.1,317.1,259,312.1,257.5z M314,267.8c-0.8,2.7-3.4,4.4-6.2,3.6c-2.8-0.9-4-3.7-3.2-6.5c0.8-2.7,3.5-4.4,6.2-3.6
			C313.7,262.2,314.9,265.1,314,267.8z"/>
		<path class="st3" d="M333.3,262.1L332,273c-0.3,2.5-1.1,3.2-2.7,3c-1.6-0.2-2.2-1.4-1.9-3.6l1.3-10.8l-4.5-0.6l-1.3,10.9
			c-0.4,3.4,0.4,5.2,2.3,6.7c1,0.7,2.2,1.2,3.7,1.4c2.7,0.3,4.8-0.5,6.2-2.3c0.7-0.9,1.2-2.2,1.4-4.1l1.3-10.9L333.3,262.1z"/>
		<path class="st3" d="M349,269.9c-2-0.8-3-1.3-3-2.3c0-0.8,0.7-1.4,1.6-1.4c0.9,0,1.4,0.4,1.7,1.7l4.5-0.1c-0.1-2.4-1-3.8-3-4.8
			c-1-0.5-2-0.7-3.2-0.7c-3.3,0.1-6.2,2.4-6.1,5.4c0.1,2.3,1.4,3.9,4.4,5c1.6,0.6,3.6,1.2,3.7,2.6c0,1-0.7,1.7-1.7,1.8
			c-1.1,0-1.9-0.9-1.9-2.4l-4.6,0.1l0,0.4c0.1,3.8,2.7,5.8,6.6,5.8c3.9-0.1,6.2-2.2,6.1-5.6C354,273,353,271.6,349,269.9z"/>
		<path class="st3" d="M367.8,264.7l-0.6-4l-11.5,1.7l0.6,4l3.5-0.5l2,13.8l4.5-0.7l-2-13.8L367.8,264.7z"/>
		<path class="st3" d="M389.6,263.5c-1.5-4.9-6.7-7.6-11.7-6c-5.2,1.6-7.8,6.8-6.2,12.1c1.6,5.1,7.1,7.2,11.9,5.7
			C388.4,273.8,391.1,268.6,389.6,263.5z M382.1,271.5c-2.8,0.9-5.4-0.8-6.3-3.7c-0.8-2.7,0.4-5.6,3.1-6.4c2.8-0.8,5.4,1,6.2,3.6
			C386,267.8,384.8,270.6,382.1,271.5z"/>
		<path class="st3" d="M411.6,262.7l-8.2-16l-3.9,2l5.4,10l-11.4-6.9l-3.5,1.8l8.2,16l3.9-2l-5.1-9.7l11.1,6.6L411.6,262.7z"/>
	</g>
	<g>
		<path class="st3" d="M428.5,244.5c2.8,0,5-2.3,5-5c0-2.8-2.3-5.1-5-5.1c-2.8,0-5,2.3-5,5.1C423.5,242.2,425.7,244.5,428.5,244.5
			L428.5,244.5z"/>
		<path class="st3" d="M261.5,244.5c2.8,0,5-2.3,5-5c0-2.8-2.3-5.1-5-5.1c-2.8,0-5,2.3-5,5.1C256.5,242.2,258.7,244.5,261.5,244.5
			L261.5,244.5z"/>
	</g>
</g>
</svg>
