<?xml version="1.0" encoding="UTF-8"?><svg id="Layer_2" xmlns="http://www.w3.org/2000/svg" viewBox="0 0 291.69 291.7"><defs><style>.cls-1{fill:#ea0029;}.cls-2{fill:#fff;}.cls-3{fill:#221f1f;}</style></defs><g id="Layer_1-2"><g><g><path class="cls-3" d="M145.83,291.7c80.56,0,145.86-65.3,145.86-145.85S226.39,0,145.83,0,0,65.3,0,145.85s65.29,145.85,145.83,145.85"/><path class="cls-2" d="M145.83,287.67c78.32,0,141.81-63.49,141.81-141.81S224.16,4.04,145.83,4.04,4.02,67.54,4.02,145.85s63.5,141.81,141.81,141.81"/><path class="cls-3" d="M145.83,247.29c56.02,0,101.42-45.41,101.42-101.43s-45.4-101.44-101.42-101.44S44.39,89.83,44.39,145.85s45.43,101.43,101.44,101.43"/><path class="cls-1" d="M145.83,242.76c53.52,0,96.9-43.39,96.9-96.91s-43.38-96.89-96.9-96.89S48.94,92.33,48.94,145.85s43.37,96.91,96.89,96.91"/><path class="cls-2" d="M213.9,203.51c-5.32-.64-9.48-4.31-10.85-9.86-.87-2.77-33.12-105.68-36.96-117.33-1.6-4.83-1.36-9.49,.67-13.14,.7-1.26,1.59-2.35,2.61-3.21-8.34-2.23-16.04-3.32-23.43-3.32-8.38,0-15.93,1.61-24.3,4.12,3.67,3.01,6.78,8.2,4.51,14.49l-36.97,118.07c-2.29,6.94-7.68,9.93-12.88,10.58,7.81,8.78,17.35,16.04,27.99,21.3-2.17-4.99-2.04-11.55-.61-16.84l3.86-12.94,36.55,14.92,40.26-15.98,4.59,15.43c1.59,3.85,1.12,10.2-.59,14.81,9.45-4.81,17.25-11.27,25.56-21.09Zm-69.46-11.47l-31.86-12.73,33.34-106.24,33.36,104.79-34.84,14.19Z"/><path class="cls-3" d="M108.77,230.75c-14.44-5.96-27.27-15.41-37.09-27.32l-2.36-2.86,3.7,.26c2.34,.16,10.3,.05,13.11-8.47l36.98-118.11c2.45-6.8-3.43-11.37-5.9-12.56l-3.62-1.74,3.83-1.21c9.98-3.16,18.65-5.27,28.51-5.27,8.8,0,18,1.48,28.1,4.52l5.62,1.69-5.71,1.38c-1.71,.42-3.36,1.79-4.41,3.67-1.59,2.85-1.74,6.61-.42,10.59,3.89,11.78,36.66,116.37,36.99,117.43l.03,.1c1.26,5.21,5.56,8.14,10.95,7.48l3.91-.48-2.48,3.07c-10.76,13.31-20.89,21.36-33.86,26.91l-1.49-2.81c2.46-1.59,4.86-11.05,2.75-16.17l-3.65-12.24-38.21,15.17-34.48-14.07-2.84,9.53c-1.82,6.72-1.18,15.34,3.57,18.73l-1.54,2.77Zm-32.48-26.84c7.81,8.78,17.35,16.04,27.99,21.3-2.17-4.99-2.04-11.55-.61-16.84l3.86-12.94,36.55,14.92,40.26-15.98,4.59,15.43c1.59,3.85,1.12,10.2-.59,14.81,9.45-4.81,17.25-11.27,25.56-21.09-5.32-.64-9.48-4.31-10.85-9.86-.87-2.77-33.12-105.68-36.96-117.33-1.6-4.83-1.36-9.49,.67-13.14,.7-1.26,1.59-2.35,2.6-3.21-8.34-2.23-16.04-3.32-23.43-3.32-8.38,0-15.93,1.61-24.3,4.12,3.67,3.01,6.78,8.2,4.51,14.49l-36.97,118.07c-2.29,6.94-7.68,9.93-12.88,10.58Zm68.15-11.87l-31.86-12.73,33.34-106.24,33.36,104.79-34.84,14.19Zm-27.93-14.6l27.92,11.16,30.92-12.59-29.41-92.36-29.43,93.8Z"/><g><path class="cls-3" d="M70.26,139.37l-1.84,5.04h-9.56l13.98-34.84h7.01l13.84,34.84h-9.65l-1.69-5.04h-12.1Zm2.45-7.06h7.3l-3.58-11.91h-.14l-3.58,11.91Z"/><path class="cls-3" d="M164.44,156.91c.03,.31,.05,.61,.05,.89v.94c0,2.92-.52,5.53-1.55,7.84-1.04,2.31-2.41,4.27-4.12,5.88-1.71,1.62-3.69,2.85-5.93,3.7-2.24,.85-4.58,1.27-6.99,1.27-2.64,0-5.08-.48-7.34-1.44-2.26-.96-4.21-2.27-5.86-3.93-1.65-1.66-2.94-3.6-3.88-5.81-.94-2.21-1.41-4.57-1.41-7.09s.49-5.01,1.46-7.2c.97-2.2,2.31-4.09,4-5.67,1.69-1.58,3.67-2.83,5.93-3.72,2.26-.89,4.68-1.34,7.25-1.34,2.07,0,4.06,.33,5.96,.99,1.9,.66,3.62,1.55,5.16,2.66,1.54,1.11,2.86,2.42,3.95,3.91,1.1,1.49,1.88,3.08,2.35,4.78h-9.98c-.69-1.22-1.67-2.28-2.94-3.18-1.27-.89-2.85-1.34-4.73-1.34-1.1,0-2.21,.2-3.34,.61-1.13,.41-2.15,1.03-3.06,1.86-.91,.83-1.66,1.88-2.24,3.15-.58,1.27-.87,2.77-.87,4.5,0,1.82,.29,3.39,.87,4.71,.58,1.32,1.33,2.4,2.26,3.25,.93,.85,1.95,1.48,3.08,1.88,1.13,.41,2.24,.61,3.34,.61,2.23,0,4.06-.51,5.48-1.53,1.43-1.02,2.38-2.38,2.85-4.07h-10.4v-7.11h20.67Z"/><path class="cls-3" d="M231.88,131.37c-.5,2.07-1.31,3.95-2.42,5.63-1.11,1.68-2.44,3.12-3.98,4.31-1.54,1.19-3.26,2.12-5.18,2.78-1.91,.66-3.92,.99-6.03,.99-2.73,0-5.23-.5-7.49-1.51-2.26-1-4.19-2.35-5.79-4.03-1.6-1.68-2.85-3.61-3.74-5.79-.89-2.18-1.34-4.45-1.34-6.8,0-2.23,.42-4.42,1.25-6.57,.83-2.15,2.03-4.07,3.6-5.77,1.57-1.69,3.48-3.07,5.74-4.12,2.26-1.05,4.82-1.58,7.67-1.58s5.15,.47,7.25,1.41c2.1,.94,3.88,2.1,5.34,3.48,1.46,1.38,2.61,2.89,3.46,4.52,.85,1.63,1.4,3.12,1.65,4.47h-9.32c-.25-.66-.6-1.34-1.06-2.05-.46-.71-1.03-1.36-1.72-1.95-.69-.6-1.51-1.09-2.45-1.48-.94-.39-2.01-.59-3.2-.59-1.51,0-2.83,.3-3.98,.89-1.15,.6-2.12,1.37-2.92,2.33-.8,.96-1.41,2.05-1.81,3.27-.41,1.22-.61,2.45-.61,3.67,0,1.32,.22,2.6,.66,3.84,.44,1.24,1.06,2.35,1.86,3.32,.8,.97,1.78,1.75,2.94,2.33,1.16,.58,2.46,.87,3.91,.87s2.57-.25,3.58-.75c1-.5,1.84-1.08,2.5-1.74,.66-.66,1.17-1.31,1.53-1.95,.36-.64,.62-1.12,.78-1.44h9.32Z"/></g><g><path class="cls-3" d="M48.12,211.18l2.72-.6,2.66,4.2-19.2,3.56-1.95-3.08,11.45-15.79,2.69,4.24-1.74,2.15,3.37,5.32Zm-3.78,.89l-2.03-3.21-4.24,4.89v.02l.04,.04,6.23-1.75Z"/><path class="cls-3" d="M28.01,195.29c-.12,.09-.27,.19-.44,.31-.17,.12-.32,.27-.44,.45s-.21,.39-.24,.62c-.03,.24,.03,.52,.17,.85,.16,.37,.43,.66,.8,.85,.37,.19,.75,.21,1.14,.04,.25-.11,.45-.24,.58-.39,.13-.15,.23-.38,.29-.7s.11-.75,.13-1.3c.02-.54,.03-1.26,.03-2.15,0-.93,.08-1.72,.22-2.38,.14-.66,.34-1.22,.6-1.68s.58-.84,.96-1.14c.38-.3,.81-.55,1.28-.76,.61-.27,1.27-.44,1.96-.51,.69-.07,1.37,.01,2.05,.25,.68,.24,1.33,.66,1.96,1.27,.63,.61,1.18,1.46,1.66,2.55,.52,1.2,.78,2.26,.77,3.19-.01,.93-.18,1.74-.51,2.41-.33,.68-.76,1.24-1.3,1.68-.54,.44-1.08,.78-1.61,1.01l-.54,.24-1.85-4.22c.48-.21,.84-.44,1.08-.7,.24-.26,.41-.52,.49-.78,.08-.26,.11-.5,.08-.71-.03-.22-.08-.39-.14-.53-.22-.51-.56-.83-1.03-.97-.46-.14-.88-.12-1.27,.05-.27,.12-.48,.27-.63,.45-.15,.18-.26,.43-.31,.75-.06,.32-.09,.73-.09,1.23,0,.5,0,1.13,.01,1.89,.01,.35,0,.8,0,1.35-.02,.55-.11,1.12-.29,1.72-.18,.59-.47,1.17-.89,1.73s-1.01,1-1.79,1.34c-.78,.34-1.54,.47-2.3,.39-.76-.08-1.46-.3-2.13-.67-.66-.37-1.25-.85-1.77-1.44-.52-.59-.93-1.24-1.24-1.94-.36-.82-.56-1.71-.61-2.66-.05-.95,.13-1.83,.54-2.65,.19-.37,.41-.69,.64-.96,.23-.27,.47-.5,.71-.7,.24-.2,.49-.36,.73-.49s.48-.26,.72-.38l1.84,4.2Z"/><path class="cls-3" d="M22.48,179.21c-.13,.07-.29,.16-.48,.25-.18,.1-.35,.22-.5,.39-.15,.16-.25,.36-.32,.59-.06,.23-.04,.52,.05,.86,.11,.39,.34,.71,.68,.95s.72,.31,1.12,.19c.27-.08,.48-.18,.62-.31,.15-.13,.28-.35,.39-.66s.21-.73,.3-1.27,.2-1.25,.32-2.13c.13-.92,.31-1.7,.53-2.33,.23-.63,.5-1.16,.82-1.58,.32-.42,.69-.76,1.1-1,.41-.24,.87-.44,1.37-.58,.64-.18,1.31-.26,2.01-.24,.69,.02,1.36,.2,2,.53s1.23,.83,1.77,1.52,.98,1.6,1.31,2.75c.36,1.26,.47,2.35,.33,3.27-.14,.92-.41,1.7-.83,2.32-.41,.63-.92,1.12-1.51,1.49-.59,.36-1.17,.63-1.74,.79l-.57,.16-1.26-4.43c.5-.14,.89-.33,1.17-.55,.28-.22,.47-.46,.59-.7s.17-.48,.17-.7c0-.22-.02-.4-.06-.54-.15-.53-.45-.9-.89-1.1-.44-.2-.86-.24-1.27-.12-.28,.08-.51,.2-.69,.36-.18,.16-.31,.39-.41,.7-.1,.31-.18,.71-.25,1.21-.07,.5-.15,1.12-.24,1.88-.04,.35-.1,.8-.19,1.34-.09,.54-.26,1.1-.52,1.66s-.62,1.1-1.11,1.59c-.49,.5-1.14,.86-1.96,1.09-.82,.23-1.59,.26-2.33,.08-.74-.18-1.41-.5-2.02-.95-.6-.46-1.12-1.01-1.56-1.67s-.76-1.35-.97-2.09c-.25-.86-.33-1.77-.25-2.72,.08-.95,.37-1.8,.89-2.56,.24-.34,.5-.63,.76-.87s.53-.44,.8-.6c.27-.16,.53-.29,.79-.39,.26-.1,.51-.19,.76-.28l1.26,4.4Z"/><path class="cls-3" d="M20.06,169.4c-.61-.18-1.28-.46-2-.85-.72-.39-1.41-.92-2.07-1.57-.66-.65-1.23-1.45-1.72-2.39-.49-.94-.8-2.04-.95-3.3-.16-1.38-.05-2.68,.31-3.91s.93-2.31,1.68-3.25c.75-.94,1.67-1.71,2.75-2.32,1.08-.6,2.25-.97,3.49-1.12,1.25-.14,2.47-.05,3.66,.29,1.19,.34,2.26,.88,3.21,1.63,.95,.75,1.74,1.67,2.38,2.78,.64,1.11,1.04,2.36,1.2,3.76,.16,1.41,.05,2.73-.33,3.96-.38,1.23-.96,2.3-1.71,3.23-.75,.93-1.65,1.68-2.7,2.26-1.04,.58-2.14,.94-3.29,1.07-.6,.07-1.23,.09-1.89,.07-.66-.02-1.34-.13-2.04-.33Zm3.13-4.31c.7-.08,1.35-.27,1.97-.57,.61-.3,1.14-.69,1.59-1.18,.45-.49,.78-1.05,1.01-1.69,.23-.64,.3-1.35,.21-2.13-.09-.81-.34-1.5-.74-2.07s-.89-1.02-1.45-1.36c-.57-.34-1.17-.57-1.81-.7-.64-.13-1.25-.16-1.84-.1s-1.18,.24-1.78,.51c-.6,.27-1.14,.64-1.62,1.1-.48,.46-.85,1.02-1.11,1.67-.26,.66-.34,1.4-.25,2.22,.09,.8,.33,1.48,.71,2.06s.84,1.05,1.4,1.4,1.15,.6,1.8,.74c.65,.14,1.29,.17,1.92,.1Z"/><path class="cls-3" d="M25.12,127.61c1.06,.34,2,.83,2.83,1.47,.83,.64,1.53,1.38,2.09,2.23s.98,1.77,1.25,2.79,.37,2.07,.29,3.16c-.1,1.42-.46,2.69-1.06,3.83-.61,1.13-1.37,2.09-2.31,2.85-.93,.77-1.98,1.34-3.15,1.73-1.16,.38-2.36,.53-3.58,.44-1.16-.08-2.28-.38-3.36-.89-1.08-.51-2.04-1.21-2.86-2.08-.82-.88-1.46-1.92-1.92-3.13-.46-1.21-.64-2.56-.53-4.04,.1-1.42,.44-2.65,1-3.71,.57-1.06,1.24-1.94,2.01-2.64,.77-.71,1.6-1.25,2.48-1.63s1.67-.61,2.38-.69l-.35,4.84c-.35,.11-.72,.26-1.1,.47s-.74,.48-1.08,.82c-.34,.34-.62,.74-.86,1.21-.24,.47-.38,1.02-.42,1.64-.06,.78,.05,1.48,.32,2.1,.27,.62,.63,1.15,1.1,1.6,.47,.45,1.01,.81,1.63,1.06s1.25,.41,1.88,.45c.68,.05,1.36-.02,2.02-.2,.66-.18,1.26-.46,1.79-.84,.53-.38,.97-.86,1.32-1.44,.35-.58,.54-1.25,.6-2,.05-.72-.04-1.34-.26-1.88-.22-.54-.49-.99-.81-1.36-.32-.37-.64-.66-.96-.87-.32-.21-.56-.36-.72-.46l.35-4.84Z"/><path class="cls-3" d="M15.13,120.82l.95-4.53,17.74,3.71-.95,4.53-17.74-3.71Z"/><path class="cls-3" d="M33.71,110.39l2.16,1.76-1.63,4.7-14.74-12.81,1.2-3.45,19.48-.86-1.65,4.74-2.76-.03-2.06,5.95Zm-3.05-2.41l1.24-3.59-6.46-.27v.02l-.02,.05,5.24,3.79Z"/><path class="cls-3" d="M29.97,89.16l-1.63,3.18-3.62-1.86,5.37-10.46,3.62,1.86-1.62,3.16,12.5,6.43-2.12,4.12-12.5-6.43Z"/><path class="cls-3" d="M32.89,75.45l5.65-8.33,3.37,2.28-3.16,4.66,2.33,1.58,3.07-4.52,3.36,2.28-3.07,4.52,2.57,1.75,3.16-4.66,3.37,2.28-5.65,8.33-15-10.17Z"/><path class="cls-3" d="M42.43,61.91l4.05-4.42c.34-.37,.75-.8,1.24-1.28,.48-.48,1.05-.91,1.69-1.3s1.38-.7,2.2-.92c.82-.22,1.74-.26,2.77-.12,1.06,.13,2.02,.42,2.88,.88,.86,.46,1.66,1.03,2.4,1.7,.91,.84,1.67,1.75,2.26,2.74,.59,.99,.95,2.03,1.06,3.13,.12,1.1-.05,2.26-.5,3.46-.45,1.2-1.25,2.44-2.41,3.7l-4.29,4.68-13.36-12.25Zm13.49,6.09l1.34-1.46c.58-.64,.97-1.26,1.15-1.87,.18-.61,.22-1.19,.11-1.75-.11-.56-.34-1.09-.69-1.6-.35-.51-.76-.98-1.23-1.41-.39-.35-.84-.68-1.37-.99-.53-.31-1.09-.52-1.7-.63-.23-.04-.49-.05-.77-.04s-.58,.06-.88,.16-.62,.26-.95,.47c-.33,.22-.67,.51-1.01,.88l-1.36,1.48,7.37,6.75Z"/><path class="cls-3" d="M86.21,35.5c.1,.13,.19,.25,.27,.38,.08,.12,.17,.26,.27,.41,.82,1.28,1.33,2.57,1.52,3.87,.19,1.3,.15,2.55-.15,3.73-.29,1.19-.81,2.28-1.56,3.29-.74,1-1.65,1.84-2.7,2.52-1.15,.74-2.36,1.22-3.62,1.44-1.26,.22-2.48,.19-3.67-.07-1.19-.27-2.3-.75-3.33-1.45-1.03-.7-1.9-1.61-2.61-2.7-.73-1.14-1.19-2.33-1.39-3.56-.19-1.24-.14-2.44,.16-3.61s.81-2.27,1.55-3.3c.74-1.03,1.67-1.9,2.8-2.63,.91-.58,1.87-1,2.89-1.24,1.02-.24,2.02-.34,3-.28,.99,.06,1.93,.26,2.83,.6,.9,.34,1.69,.82,2.37,1.43l-4.37,2.81c-.65-.34-1.37-.53-2.18-.56-.81-.03-1.62,.21-2.45,.74-.48,.31-.91,.71-1.29,1.21-.38,.5-.65,1.06-.82,1.67-.16,.62-.19,1.29-.09,2.01,.1,.72,.4,1.46,.88,2.21,.51,.8,1.08,1.4,1.7,1.82,.62,.41,1.26,.68,1.9,.79,.64,.11,1.27,.1,1.88-.04s1.15-.36,1.64-.67c.97-.63,1.63-1.36,1.97-2.21,.34-.85,.37-1.71,.1-2.58l-4.55,2.92-2-3.11,9.05-5.81Z"/><path class="cls-3" d="M87.86,26.21l9.22-4.04,1.63,3.72-5.16,2.26,1.13,2.58,5-2.19,1.63,3.72-5,2.19,1.25,2.85,5.16-2.26,1.63,3.72-9.22,4.04-7.27-16.6Z"/><path class="cls-3" d="M103.44,19.75l3.86-1.04,9.73,9.17,.03-.06-3.14-10.9,4.28-1.15,4.72,17.5-3.88,1.05-9.54-8.84-.04,.04,2.98,10.59-4.28,1.15-4.72-17.5Z"/><path class="cls-3" d="M125.35,14.61l10-1.15,.47,4.04-5.6,.64,.32,2.8,5.42-.62,.47,4.04-5.43,.62,.36,3.09,5.6-.64,.47,4.04-10,1.15-2.07-18Z"/><path class="cls-3" d="M141.88,13.08l5.73,.12c.8,.02,1.48,.06,2.05,.12,.57,.06,1.07,.15,1.49,.26,.42,.12,.79,.26,1.11,.43,.32,.17,.62,.37,.91,.61,.74,.6,1.28,1.35,1.63,2.25,.35,.9,.51,1.81,.49,2.74-.01,.52-.09,1.08-.25,1.68-.16,.6-.42,1.17-.78,1.71s-.84,1.01-1.43,1.42c-.59,.4-1.31,.67-2.16,.8l4.8,6.27-5.29-.11-4.07-5.94h-.05l-.12,5.85-4.43-.09,.37-18.12Zm4.24,9.2l1.64,.03c.69,.01,1.23-.07,1.63-.25,.4-.18,.71-.4,.92-.67,.21-.27,.35-.54,.42-.84s.11-.55,.11-.78c.02-.83-.24-1.45-.78-1.87-.54-.41-1.26-.63-2.15-.64l-1.69-.04-.1,5.04Z"/><path class="cls-3" d="M163.61,30.04l-1.41,2.41-4.89-.9,10.42-16.52,3.59,.66,3.82,19.12-4.94-.9-.4-2.74-6.19-1.13Zm1.92-3.38l3.73,.68-.71-6.43h-.07l-2.95,5.75Z"/><path class="cls-3" d="M183.98,18.8l4.39,1.48-4.5,13.32,5.08,1.72-1.3,3.85-9.47-3.2,5.8-17.17Z"/><path class="cls-3" d="M217.55,47.8c-.79,.78-1.67,1.38-2.62,1.82-.95,.43-1.93,.7-2.94,.81s-2.02,.04-3.05-.2c-1.03-.24-2-.64-2.93-1.22-1.21-.75-2.17-1.66-2.89-2.72-.72-1.07-1.2-2.19-1.45-3.37-.24-1.18-.26-2.38-.06-3.59,.21-1.21,.63-2.33,1.28-3.37,.61-.98,1.4-1.84,2.36-2.56s2.02-1.24,3.18-1.56c1.16-.32,2.38-.4,3.67-.24,1.29,.16,2.56,.63,3.82,1.41,1.21,.75,2.14,1.62,2.81,2.62,.67,.99,1.14,2,1.4,3.01,.27,1.01,.36,1.99,.28,2.95s-.24,1.76-.5,2.43l-4.11-2.56c.07-.36,.1-.76,.09-1.2s-.08-.88-.22-1.34c-.14-.45-.37-.9-.67-1.33-.31-.43-.73-.81-1.25-1.14-.67-.41-1.33-.65-2-.7-.67-.05-1.31,.02-1.93,.23-.62,.2-1.18,.52-1.7,.95-.52,.43-.94,.91-1.28,1.45-.36,.58-.62,1.21-.76,1.88-.15,.67-.18,1.33-.09,1.98,.08,.65,.3,1.26,.66,1.84,.35,.58,.85,1.06,1.49,1.46,.61,.38,1.21,.6,1.79,.65,.58,.06,1.11,.03,1.58-.08,.47-.11,.88-.26,1.21-.44,.34-.19,.58-.33,.74-.42l4.12,2.56Z"/><path class="cls-3" d="M225.26,46.33c.58-.27,1.27-.48,2.07-.65,.8-.17,1.67-.22,2.59-.16,.93,.07,1.88,.3,2.86,.69s1.94,1.02,2.87,1.89c1.02,.94,1.79,2,2.31,3.17,.52,1.17,.8,2.36,.84,3.56,.04,1.21-.15,2.39-.58,3.55-.43,1.16-1.07,2.2-1.92,3.13-.85,.92-1.84,1.64-2.96,2.16-1.12,.52-2.29,.8-3.49,.86-1.21,.05-2.41-.13-3.62-.56-1.21-.43-2.33-1.11-3.36-2.07-1.04-.96-1.82-2.04-2.33-3.22-.51-1.18-.78-2.37-.81-3.56-.03-1.19,.16-2.35,.57-3.47,.41-1.12,1.01-2.11,1.8-2.96,.41-.44,.87-.87,1.39-1.29,.51-.41,1.1-.77,1.76-1.08Zm.44,5.3c-.48,.52-.85,1.09-1.12,1.72-.27,.63-.41,1.27-.43,1.93-.02,.66,.09,1.31,.34,1.94,.24,.64,.65,1.22,1.23,1.75,.6,.55,1.24,.92,1.92,1.08,.68,.17,1.34,.2,1.99,.09s1.26-.33,1.83-.65c.57-.32,1.06-.69,1.45-1.12s.74-.95,1.01-1.55c.28-.6,.45-1.23,.51-1.89,.06-.66-.02-1.33-.24-1.99-.23-.67-.65-1.28-1.26-1.85-.59-.54-1.22-.91-1.88-1.1-.67-.19-1.32-.24-1.97-.16-.65,.09-1.27,.29-1.85,.61-.58,.32-1.09,.71-1.52,1.18Z"/><path class="cls-3" d="M246.96,60.07l2.4,3.19-4.89,12.44h.07l8.95-6.96,2.66,3.54-14.49,10.89-2.41-3.21,4.66-12.14-.05-.02-8.71,6.71-2.66-3.54,14.49-10.89Z"/><path class="cls-3" d="M257.3,82.28l-1.71-3.14,3.57-1.95,5.64,10.32-3.57,1.95-1.7-3.12-12.34,6.74-2.22-4.06,12.34-6.74Z"/><path class="cls-3" d="M267.17,92.59l2.05,5.35c.29,.75,.51,1.4,.67,1.95s.26,1.04,.32,1.48,.06,.83,.02,1.19c-.04,.36-.11,.71-.22,1.07-.28,.91-.77,1.7-1.47,2.36s-1.49,1.16-2.35,1.49c-.49,.19-1.04,.32-1.66,.4-.62,.08-1.24,.05-1.88-.08-.64-.13-1.25-.4-1.85-.79-.6-.39-1.11-.96-1.55-1.7l-4.01,6.8-1.89-4.94,3.97-6-.02-.05-5.47,2.09-1.58-4.14,16.93-6.47Zm-6.93,7.39l.59,1.53c.24,.64,.52,1.11,.84,1.42s.64,.51,.96,.6c.32,.09,.64,.12,.93,.08,.3-.04,.55-.11,.77-.19,.78-.3,1.26-.77,1.43-1.43,.18-.65,.11-1.4-.21-2.24l-.6-1.58-4.71,1.8Z"/><path class="cls-3" d="M259.59,119.04l-2.76-.41-1-4.87,19.22,3.47,.74,3.57-16.3,10.71-1.01-4.92,2.39-1.39-1.27-6.17Zm3.86,.51l.77,3.72,5.69-3.07v-.02l-.02-.05-6.44-.57Z"/><path class="cls-3" d="M267.03,151.3c-1.08-.23-2.07-.62-2.97-1.17-.89-.55-1.66-1.22-2.31-2-.65-.78-1.16-1.66-1.53-2.65-.37-.98-.58-2.02-.61-3.12-.05-1.42,.17-2.73,.66-3.92,.48-1.19,1.15-2.22,2-3.08,.85-.86,1.83-1.54,2.95-2.04,1.12-.5,2.29-.77,3.51-.81,1.16-.04,2.3,.14,3.44,.54s2.15,.99,3.06,1.78c.91,.79,1.65,1.76,2.24,2.92,.58,1.16,.9,2.48,.95,3.96,.05,1.42-.16,2.68-.61,3.79-.45,1.11-1.03,2.05-1.72,2.84-.69,.78-1.46,1.41-2.29,1.88-.84,.47-1.6,.78-2.3,.93l-.16-4.85c.34-.14,.69-.34,1.05-.58,.36-.25,.69-.56,.99-.93,.3-.37,.54-.8,.73-1.3s.27-1.05,.25-1.67c-.02-.78-.2-1.47-.53-2.05-.33-.59-.75-1.08-1.26-1.48-.51-.4-1.09-.7-1.73-.89-.64-.19-1.28-.28-1.92-.26-.69,.02-1.35,.16-1.98,.41-.64,.25-1.2,.59-1.69,1.02-.49,.43-.88,.96-1.16,1.57-.28,.61-.41,1.3-.39,2.05,.02,.72,.17,1.33,.45,1.85s.6,.94,.95,1.27c.35,.33,.7,.59,1.04,.76,.34,.18,.59,.3,.76,.38l.16,4.85Z"/><path class="cls-3" d="M273.43,158.94l.42-3.55,4.04,.48-1.39,11.67-4.04-.48,.42-3.53-13.96-1.66,.55-4.6,13.96,1.66Z"/><path class="cls-3" d="M270.46,171.45c.5,.39,1.01,.91,1.53,1.54,.52,.63,.96,1.38,1.32,2.24,.36,.85,.59,1.81,.69,2.86,.1,1.05-.02,2.19-.37,3.42-.37,1.34-.96,2.5-1.76,3.5-.8,1-1.73,1.79-2.78,2.38-1.05,.59-2.19,.96-3.42,1.11-1.23,.15-2.45,.06-3.66-.28s-2.31-.89-3.28-1.65c-.98-.76-1.76-1.67-2.36-2.71-.6-1.05-.98-2.21-1.16-3.47s-.07-2.58,.3-3.93c.38-1.37,.98-2.55,1.8-3.54,.82-.99,1.75-1.78,2.8-2.35,1.05-.57,2.17-.93,3.35-1.08,1.18-.15,2.33-.06,3.45,.25,.58,.16,1.17,.38,1.78,.65s1.19,.63,1.76,1.07Zm-4.52,2.81c-.68-.19-1.36-.26-2.04-.21-.68,.05-1.32,.21-1.92,.5-.6,.28-1.12,.68-1.58,1.19s-.79,1.14-1,1.9c-.22,.79-.25,1.52-.09,2.2,.16,.68,.44,1.28,.83,1.81,.4,.53,.87,.97,1.41,1.33s1.1,.62,1.66,.78,1.18,.22,1.84,.19c.66-.03,1.3-.17,1.92-.41,.62-.24,1.17-.62,1.66-1.13,.49-.51,.84-1.16,1.07-1.97,.21-.77,.25-1.5,.12-2.18-.13-.68-.39-1.29-.76-1.83-.38-.54-.84-.99-1.39-1.36-.55-.37-1.13-.64-1.74-.82Z"/><path class="cls-3" d="M268.13,196.87l-2.45,5.18c-.34,.72-.66,1.33-.95,1.83-.29,.5-.57,.91-.85,1.25-.28,.34-.56,.62-.84,.83-.28,.22-.59,.41-.93,.58-.85,.43-1.76,.62-2.72,.57-.96-.05-1.86-.27-2.7-.67-.47-.22-.95-.53-1.43-.92-.48-.39-.9-.86-1.24-1.41-.34-.55-.58-1.18-.71-1.88-.13-.7-.08-1.47,.15-2.3l-7.69,1.81,2.27-4.78,7.08-1.28,.02-.04-5.29-2.51,1.9-4.01,16.38,7.76Zm-10.13,.1l-.7,1.48c-.29,.62-.44,1.15-.44,1.59s.08,.81,.23,1.11c.16,.3,.35,.54,.59,.73,.24,.18,.46,.33,.67,.42,.75,.36,1.43,.37,2.02,.05,.6-.32,1.09-.89,1.47-1.7l.72-1.53-4.56-2.16Z"/><path class="cls-3" d="M250.82,217.49c.14,.05,.31,.12,.5,.2,.19,.08,.4,.12,.62,.13,.22,0,.44-.04,.65-.14,.21-.1,.42-.3,.62-.6,.22-.34,.32-.72,.28-1.14s-.23-.74-.59-.98c-.23-.15-.44-.25-.64-.28-.19-.03-.45,.01-.75,.14-.31,.12-.69,.32-1.16,.6s-1.08,.66-1.83,1.14c-.78,.5-1.49,.87-2.12,1.11s-1.21,.38-1.74,.41c-.53,.03-1.02-.03-1.48-.19-.45-.15-.9-.38-1.34-.66-.56-.37-1.06-.83-1.49-1.37s-.73-1.16-.9-1.86c-.17-.7-.17-1.47,0-2.33,.17-.86,.58-1.79,1.24-2.78,.72-1.09,1.48-1.88,2.26-2.38,.79-.5,1.56-.79,2.3-.88,.75-.09,1.45-.03,2.11,.18,.66,.21,1.24,.48,1.73,.81l.49,.32-2.54,3.84c-.44-.29-.83-.46-1.18-.53-.35-.06-.65-.06-.92,0-.26,.07-.48,.18-.64,.33-.17,.14-.29,.28-.37,.4-.31,.46-.39,.93-.26,1.39s.38,.81,.73,1.04c.24,.16,.48,.26,.72,.29,.24,.03,.5-.02,.8-.15,.3-.13,.66-.32,1.08-.59,.42-.27,.95-.62,1.58-1.04,.29-.2,.67-.44,1.14-.73,.47-.29,1.01-.51,1.6-.69s1.24-.24,1.93-.19c.69,.05,1.39,.31,2.1,.77s1.24,1.04,1.58,1.72c.35,.68,.54,1.39,.59,2.15s-.04,1.51-.25,2.27c-.22,.76-.54,1.46-.96,2.1-.5,.75-1.13,1.4-1.9,1.96-.77,.56-1.61,.89-2.52,.99-.42,.04-.8,.03-1.15-.01-.35-.05-.68-.12-.97-.22-.3-.1-.57-.21-.81-.35-.25-.13-.48-.26-.71-.39l2.53-3.82Z"/></g><g><path class="cls-3" d="M88.53,263.34l3.3-6.38-5.21-2.7-3.3,6.38-4.07-2.11,8.24-15.94,4.07,2.1-3.1,5.99,5.21,2.7,3.1-5.99,4.07,2.11-8.24,15.94-4.07-2.1Z"/><path class="cls-3" d="M101.02,259.85c1.62-5.31,6.67-8.13,11.89-6.53,5.01,1.53,7.88,6.65,6.38,11.56-1.55,5.08-6.7,7.82-11.62,6.31-4.78-1.46-8.2-6.26-6.65-11.34Zm13.84,3.83c.82-2.69-.37-5.67-3.13-6.51-2.74-.84-5.36,.87-6.19,3.58-.87,2.83,.36,5.69,3.17,6.55,2.71,.83,5.32-.88,6.16-3.62Z"/><path class="cls-3" d="M134.15,257.99l4.55,.56-1.35,10.9c-.23,1.85-.69,3.21-1.41,4.1-1.41,1.76-3.55,2.64-6.25,2.31-1.49-.18-2.73-.63-3.69-1.36-1.94-1.49-2.75-3.27-2.32-6.71l1.35-10.92,4.55,.56-1.34,10.85c-.27,2.21,.29,3.38,1.9,3.58,1.54,.19,2.36-.49,2.67-2.99l1.34-10.88Z"/><path class="cls-3" d="M150.03,263.74c-.22-1.28-.76-1.73-1.66-1.71-.85,.02-1.56,.64-1.55,1.44,.02,1.07,1,1.53,2.98,2.34,3.99,1.62,5.01,3.02,5.06,5.38,.07,3.47-2.26,5.55-6.14,5.63-3.9,.08-6.52-1.9-6.6-5.76v-.39l4.55-.09c.05,1.48,.8,2.43,1.94,2.41,.95-.02,1.71-.79,1.69-1.76-.03-1.43-2.03-2.02-3.67-2.64-2.96-1.13-4.32-2.65-4.37-4.98-.06-3.06,2.85-5.35,6.15-5.42,1.19-.02,2.24,.22,3.19,.69,1.94,.95,2.89,2.37,2.96,4.77l-4.53,.09Z"/><path class="cls-3" d="M162.61,275.46l-2.01-13.78-3.5,.51-.58-3.98,11.52-1.68,.58,3.98-3.48,.51,2,13.78-4.54,.66Z"/><path class="cls-3" d="M172.43,265.43c-1.62-5.31,.99-10.47,6.21-12.06,5.01-1.53,10.25,1.11,11.75,6.03,1.55,5.08-1.19,10.22-6.11,11.72-4.78,1.46-10.3-.61-11.85-5.69Zm13.62-4.55c-.82-2.69-3.47-4.49-6.23-3.65-2.74,.83-3.96,3.72-3.14,6.43,.86,2.83,3.48,4.52,6.29,3.66,2.71-.83,3.92-3.7,3.08-6.44Z"/><path class="cls-3" d="M208.86,260.39l-11.15-6.58,5.14,9.68-3.9,2.01-8.23-15.94,3.51-1.81,11.41,6.88-5.38-9.99,3.9-2.01,8.23,15.94-3.53,1.82Z"/></g></g><g><path class="cls-3" d="M229.35,240.31c2.78,0,5.05-2.26,5.05-5.04s-2.27-5.05-5.05-5.05-5.05,2.26-5.05,5.05,2.27,5.04,5.05,5.04"/><path class="cls-3" d="M62.35,240.31c2.78,0,5.05-2.26,5.05-5.04s-2.27-5.05-5.05-5.05-5.05,2.26-5.05,5.05,2.27,5.04,5.05,5.04"/></g></g></g></svg>