<?xml version="1.0" encoding="utf-8"?>
<!-- Generator: Adobe Illustrator 26.3.1, SVG Export Plug-In . SVG Version: 6.00 Build 0)  -->
<svg version="1.1" id="Layer_2_00000142865230811469188970000007896879414759794614_"
	 xmlns="http://www.w3.org/2000/svg" xmlns:xlink="http://www.w3.org/1999/xlink" x="0px" y="0px" viewBox="0 0 760.3 302.7"
	 style="enable-background:new 0 0 760.3 302.7;" xml:space="preserve">
<style type="text/css">
	.st0{fill:#221F1F;}
	.st1{fill:#FFFFFF;}
	.st2{fill:#EA0029;}
</style>
<g>
	<path class="st0" d="M149.2,297.1v-51.2H20.8v-54.4L151.1,5.6h69.3v182h32.3v58.3h-32.3v51.2H149.2z M153.9,96.2h-0.8l-57.5,91.4
		h58.3V96.2z"/>
	<path class="st0" d="M635.9,297.1v-51.2H507.5v-54.4L637.9,5.6h69.3v182h32.3v58.3h-32.3v51.2H635.9z M640.7,96.2h-0.8l-57.5,91.4
		h58.3V96.2z"/>
	<g id="Layer_1-2">
		<g>
			<g>
				<path class="st0" d="M380.1,297.2c80.6,0,145.9-65.3,145.9-145.9S460.7,5.5,380.1,5.5S234.3,70.8,234.3,151.4
					S299.6,297.2,380.1,297.2"/>
				<path class="st1" d="M380.1,293.2c78.3,0,141.8-63.5,141.8-141.8S458.5,9.5,380.1,9.5S238.3,73,238.3,151.4
					S301.8,293.2,380.1,293.2"/>
				<path class="st0" d="M380.1,252.8c56,0,101.4-45.4,101.4-101.4S436.1,49.9,380.1,49.9S278.7,95.3,278.7,151.4
					S324.1,252.8,380.1,252.8"/>
				<path class="st2" d="M380.1,248.3c53.5,0,96.9-43.4,96.9-96.9s-43.4-96.9-96.9-96.9s-96.9,43.4-96.9,96.9
					S326.6,248.3,380.1,248.3"/>
				<path class="st1" d="M448.2,209c-5.3-0.6-9.5-4.3-10.9-9.9c-0.9-2.8-33.1-105.7-37-117.3c-1.6-4.8-1.4-9.5,0.7-13.1
					c0.7-1.3,1.6-2.3,2.6-3.2c-8.3-2.2-16-3.3-23.4-3.3c-8.4,0-15.9,1.6-24.3,4.1c3.7,3,6.8,8.2,4.5,14.5l-37,118.1
					c-2.3,6.9-7.7,9.9-12.9,10.6c7.8,8.8,17.4,16,28,21.3c-2.2-5-2-11.6-0.6-16.8l3.9-12.9l36.5,14.9l40.3-16l4.6,15.4
					c1.6,3.9,1.1,10.2-0.6,14.8C432.1,225.3,439.9,218.8,448.2,209L448.2,209z M378.7,197.5l-31.9-12.7l33.3-106.2l33.4,104.8
					L378.7,197.5L378.7,197.5z"/>
				<path class="st0" d="M343.1,236.3c-14.4-6-27.3-15.4-37.1-27.3l-2.4-2.9l3.7,0.3c2.3,0.2,10.3,0.1,13.1-8.5l37-118.1
					c2.5-6.8-3.4-11.4-5.9-12.6l-3.6-1.7l3.8-1.2c10-3.2,18.6-5.3,28.5-5.3c8.8,0,18,1.5,28.1,4.5l5.6,1.7l-5.7,1.4
					c-1.7,0.4-3.4,1.8-4.4,3.7c-1.6,2.8-1.7,6.6-0.4,10.6c3.9,11.8,36.7,116.4,37,117.4l0,0.1c1.3,5.2,5.6,8.1,11,7.5l3.9-0.5
					l-2.5,3.1c-10.8,13.3-20.9,21.4-33.9,26.9l-1.5-2.8c2.5-1.6,4.9-11.1,2.8-16.2l-3.6-12.2l-38.2,15.2l-34.5-14.1l-2.8,9.5
					c-1.8,6.7-1.2,15.3,3.6,18.7L343.1,236.3L343.1,236.3z M310.6,209.4c7.8,8.8,17.4,16,28,21.3c-2.2-5-2-11.6-0.6-16.8l3.9-12.9
					l36.5,14.9l40.3-16l4.6,15.4c1.6,3.9,1.1,10.2-0.6,14.8c9.4-4.8,17.2-11.3,25.6-21.1c-5.3-0.6-9.5-4.3-10.9-9.9
					c-0.9-2.8-33.1-105.7-37-117.3c-1.6-4.8-1.4-9.5,0.7-13.1c0.7-1.3,1.6-2.3,2.6-3.2c-8.3-2.2-16-3.3-23.4-3.3
					c-8.4,0-15.9,1.6-24.3,4.1c3.7,3,6.8,8.2,4.5,14.5l-37,118.1C321.2,205.8,315.8,208.8,310.6,209.4L310.6,209.4z M378.7,197.5
					l-31.9-12.7l33.3-106.2l33.4,104.8L378.7,197.5L378.7,197.5z M350.8,182.9l27.9,11.2l30.9-12.6l-29.4-92.4L350.8,182.9
					L350.8,182.9z"/>
				<g>
					<path class="st0" d="M304.6,144.9l-1.8,5h-9.6l14-34.8h7l13.8,34.8h-9.6l-1.7-5H304.6L304.6,144.9z M307,137.8h7.3l-3.6-11.9
						h-0.1L307,137.8z"/>
					<path class="st0" d="M398.7,162.4c0,0.3,0.1,0.6,0.1,0.9v0.9c0,2.9-0.5,5.5-1.6,7.8c-1,2.3-2.4,4.3-4.1,5.9
						c-1.7,1.6-3.7,2.9-5.9,3.7c-2.2,0.9-4.6,1.3-7,1.3c-2.6,0-5.1-0.5-7.3-1.4c-2.3-1-4.2-2.3-5.9-3.9c-1.6-1.7-2.9-3.6-3.9-5.8
						c-0.9-2.2-1.4-4.6-1.4-7.1s0.5-5,1.5-7.2c1-2.2,2.3-4.1,4-5.7s3.7-2.8,5.9-3.7c2.3-0.9,4.7-1.3,7.2-1.3c2.1,0,4.1,0.3,6,1
						s3.6,1.6,5.2,2.7s2.9,2.4,4,3.9c1.1,1.5,1.9,3.1,2.4,4.8h-10c-0.7-1.2-1.7-2.3-2.9-3.2c-1.3-0.9-2.9-1.3-4.7-1.3
						c-1.1,0-2.2,0.2-3.3,0.6c-1.1,0.4-2.1,1-3.1,1.9s-1.7,1.9-2.2,3.1c-0.6,1.3-0.9,2.8-0.9,4.5c0,1.8,0.3,3.4,0.9,4.7
						c0.6,1.3,1.3,2.4,2.3,3.2s1.9,1.5,3.1,1.9c1.1,0.4,2.2,0.6,3.3,0.6c2.2,0,4.1-0.5,5.5-1.5c1.4-1,2.4-2.4,2.9-4.1h-10.4v-7.1
						L398.7,162.4L398.7,162.4z"/>
					<path class="st0" d="M466.2,136.9c-0.5,2.1-1.3,3.9-2.4,5.6c-1.1,1.7-2.4,3.1-4,4.3c-1.5,1.2-3.3,2.1-5.2,2.8
						c-1.9,0.7-3.9,1-6,1c-2.7,0-5.2-0.5-7.5-1.5c-2.3-1-4.2-2.4-5.8-4s-2.9-3.6-3.7-5.8c-0.9-2.2-1.3-4.4-1.3-6.8
						c0-2.2,0.4-4.4,1.2-6.6c0.8-2.2,2-4.1,3.6-5.8c1.6-1.7,3.5-3.1,5.7-4.1s4.8-1.6,7.7-1.6c2.8,0,5.1,0.5,7.2,1.4s3.9,2.1,5.3,3.5
						c1.5,1.4,2.6,2.9,3.5,4.5s1.4,3.1,1.6,4.5h-9.3c-0.2-0.7-0.6-1.3-1.1-2.1c-0.5-0.7-1-1.4-1.7-1.9c-0.7-0.6-1.5-1.1-2.4-1.5
						c-0.9-0.4-2-0.6-3.2-0.6c-1.5,0-2.8,0.3-4,0.9c-1.1,0.6-2.1,1.4-2.9,2.3c-0.8,1-1.4,2.1-1.8,3.3c-0.4,1.2-0.6,2.4-0.6,3.7
						c0,1.3,0.2,2.6,0.7,3.8s1.1,2.4,1.9,3.3c0.8,1,1.8,1.8,2.9,2.3s2.5,0.9,3.9,0.9c1.5,0,2.6-0.2,3.6-0.8c1-0.5,1.8-1.1,2.5-1.7
						s1.2-1.3,1.5-1.9c0.4-0.6,0.6-1.1,0.8-1.4L466.2,136.9L466.2,136.9z"/>
				</g>
				<g>
					<path class="st0" d="M282.4,216.7l2.7-0.6l2.7,4.2l-19.2,3.6l-2-3.1l11.5-15.8l2.7,4.2l-1.7,2.1
						C279,211.4,282.4,216.7,282.4,216.7z M278.6,217.6l-2-3.2l-4.2,4.9v0l0,0L278.6,217.6L278.6,217.6z"/>
					<path class="st0" d="M262.3,200.8c-0.1,0.1-0.3,0.2-0.4,0.3s-0.3,0.3-0.4,0.4s-0.2,0.4-0.2,0.6c0,0.2,0,0.5,0.2,0.9
						c0.2,0.4,0.4,0.7,0.8,0.9s0.8,0.2,1.1,0c0.2-0.1,0.5-0.2,0.6-0.4c0.1-0.1,0.2-0.4,0.3-0.7c0.1-0.3,0.1-0.8,0.1-1.3
						c0-0.5,0-1.3,0-2.1c0-0.9,0.1-1.7,0.2-2.4c0.1-0.7,0.3-1.2,0.6-1.7s0.6-0.8,1-1.1s0.8-0.6,1.3-0.8c0.6-0.3,1.3-0.4,2-0.5
						c0.7-0.1,1.4,0,2,0.2s1.3,0.7,2,1.3s1.2,1.5,1.7,2.6c0.5,1.2,0.8,2.3,0.8,3.2c0,0.9-0.2,1.7-0.5,2.4c-0.3,0.7-0.8,1.2-1.3,1.7
						c-0.5,0.4-1.1,0.8-1.6,1l-0.5,0.2l-1.9-4.2c0.5-0.2,0.8-0.4,1.1-0.7s0.4-0.5,0.5-0.8c0.1-0.3,0.1-0.5,0.1-0.7
						c0-0.2-0.1-0.4-0.1-0.5c-0.2-0.5-0.6-0.8-1-1c-0.5-0.1-0.9-0.1-1.3,0.1c-0.3,0.1-0.5,0.3-0.6,0.4s-0.3,0.4-0.3,0.8
						c-0.1,0.3-0.1,0.7-0.1,1.2s0,1.1,0,1.9c0,0.4,0,0.8,0,1.4c0,0.6-0.1,1.1-0.3,1.7c-0.2,0.6-0.5,1.2-0.9,1.7
						c-0.4,0.6-1,1-1.8,1.3s-1.5,0.5-2.3,0.4s-1.5-0.3-2.1-0.7c-0.7-0.4-1.2-0.9-1.8-1.4c-0.5-0.6-0.9-1.2-1.2-1.9
						c-0.4-0.8-0.6-1.7-0.6-2.7s0.1-1.8,0.5-2.6c0.2-0.4,0.4-0.7,0.6-1c0.2-0.3,0.5-0.5,0.7-0.7c0.2-0.2,0.5-0.4,0.7-0.5
						s0.5-0.3,0.7-0.4L262.3,200.8L262.3,200.8z"/>
					<path class="st0" d="M256.8,184.7c-0.1,0.1-0.3,0.2-0.5,0.2c-0.2,0.1-0.3,0.2-0.5,0.4c-0.2,0.2-0.2,0.4-0.3,0.6
						c-0.1,0.2,0,0.5,0.1,0.9c0.1,0.4,0.3,0.7,0.7,0.9s0.7,0.3,1.1,0.2c0.3-0.1,0.5-0.2,0.6-0.3c0.1-0.1,0.3-0.4,0.4-0.7
						s0.2-0.7,0.3-1.3c0.1-0.5,0.2-1.2,0.3-2.1c0.1-0.9,0.3-1.7,0.5-2.3c0.2-0.6,0.5-1.2,0.8-1.6s0.7-0.8,1.1-1s0.9-0.4,1.4-0.6
						c0.6-0.2,1.3-0.3,2-0.2c0.7,0,1.4,0.2,2,0.5c0.6,0.3,1.2,0.8,1.8,1.5s1,1.6,1.3,2.8c0.4,1.3,0.5,2.4,0.3,3.3
						c-0.1,0.9-0.4,1.7-0.8,2.3c-0.4,0.6-0.9,1.1-1.5,1.5c-0.6,0.4-1.2,0.6-1.7,0.8l-0.6,0.2l-1.3-4.4c0.5-0.1,0.9-0.3,1.2-0.6
						s0.5-0.5,0.6-0.7c0.1-0.2,0.2-0.5,0.2-0.7s0-0.4-0.1-0.5c-0.1-0.5-0.5-0.9-0.9-1.1c-0.4-0.2-0.9-0.2-1.3-0.1
						c-0.3,0.1-0.5,0.2-0.7,0.4s-0.3,0.4-0.4,0.7s-0.2,0.7-0.2,1.2c-0.1,0.5-0.1,1.1-0.2,1.9c0,0.4-0.1,0.8-0.2,1.3
						s-0.3,1.1-0.5,1.7c-0.3,0.6-0.6,1.1-1.1,1.6c-0.5,0.5-1.1,0.9-2,1.1s-1.6,0.3-2.3,0.1c-0.7-0.2-1.4-0.5-2-0.9
						c-0.6-0.5-1.1-1-1.6-1.7s-0.8-1.4-1-2.1c-0.2-0.9-0.3-1.8-0.2-2.7s0.4-1.8,0.9-2.6c0.2-0.3,0.5-0.6,0.8-0.9
						c0.3-0.2,0.5-0.4,0.8-0.6c0.3-0.2,0.5-0.3,0.8-0.4c0.3-0.1,0.5-0.2,0.8-0.3L256.8,184.7L256.8,184.7z"/>
					<path class="st0" d="M254.4,174.9c-0.6-0.2-1.3-0.5-2-0.9s-1.4-0.9-2.1-1.6c-0.7-0.6-1.2-1.4-1.7-2.4c-0.5-0.9-0.8-2-0.9-3.3
						c-0.2-1.4-0.1-2.7,0.3-3.9s0.9-2.3,1.7-3.2s1.7-1.7,2.8-2.3c1.1-0.6,2.2-1,3.5-1.1c1.3-0.1,2.5-0.1,3.7,0.3s2.3,0.9,3.2,1.6
						s1.7,1.7,2.4,2.8c0.6,1.1,1,2.4,1.2,3.8c0.2,1.4,0.1,2.7-0.3,4c-0.4,1.2-1,2.3-1.7,3.2s-1.7,1.7-2.7,2.3
						c-1,0.6-2.1,0.9-3.3,1.1c-0.6,0.1-1.2,0.1-1.9,0.1C255.7,175.2,255,175.1,254.4,174.9L254.4,174.9z M257.5,170.6
						c0.7-0.1,1.4-0.3,2-0.6c0.6-0.3,1.1-0.7,1.6-1.2c0.5-0.5,0.8-1.1,1-1.7s0.3-1.4,0.2-2.1c-0.1-0.8-0.3-1.5-0.7-2.1
						s-0.9-1-1.5-1.4c-0.6-0.3-1.2-0.6-1.8-0.7c-0.6-0.1-1.2-0.2-1.8-0.1s-1.2,0.2-1.8,0.5c-0.6,0.3-1.1,0.6-1.6,1.1
						c-0.5,0.5-0.9,1-1.1,1.7c-0.3,0.7-0.3,1.4-0.2,2.2c0.1,0.8,0.3,1.5,0.7,2.1s0.8,1.1,1.4,1.4c0.6,0.3,1.2,0.6,1.8,0.7
						S256.9,170.7,257.5,170.6L257.5,170.6z"/>
					<path class="st0" d="M259.4,133.1c1.1,0.3,2,0.8,2.8,1.5c0.8,0.6,1.5,1.4,2.1,2.2s1,1.8,1.2,2.8s0.4,2.1,0.3,3.2
						c-0.1,1.4-0.5,2.7-1.1,3.8c-0.6,1.1-1.4,2.1-2.3,2.9c-0.9,0.8-2,1.3-3.2,1.7c-1.2,0.4-2.4,0.5-3.6,0.4
						c-1.2-0.1-2.3-0.4-3.4-0.9s-2-1.2-2.9-2.1c-0.8-0.9-1.5-1.9-1.9-3.1s-0.6-2.6-0.5-4c0.1-1.4,0.4-2.6,1-3.7
						c0.6-1.1,1.2-1.9,2-2.6c0.8-0.7,1.6-1.2,2.5-1.6c0.9-0.4,1.7-0.6,2.4-0.7l-0.3,4.8c-0.4,0.1-0.7,0.3-1.1,0.5s-0.7,0.5-1.1,0.8
						c-0.3,0.3-0.6,0.7-0.9,1.2c-0.2,0.5-0.4,1-0.4,1.6c-0.1,0.8,0.1,1.5,0.3,2.1c0.3,0.6,0.6,1.1,1.1,1.6c0.5,0.4,1,0.8,1.6,1.1
						s1.2,0.4,1.9,0.4c0.7,0.1,1.4,0,2-0.2s1.3-0.5,1.8-0.8c0.5-0.4,1-0.9,1.3-1.4c0.3-0.6,0.5-1.2,0.6-2c0.1-0.7,0-1.3-0.3-1.9
						c-0.2-0.5-0.5-1-0.8-1.4c-0.3-0.4-0.6-0.7-1-0.9c-0.3-0.2-0.6-0.4-0.7-0.5L259.4,133.1L259.4,133.1z"/>
					<path class="st0" d="M249.4,126.3l0.9-4.5l17.7,3.7l-1,4.5C267.2,130,249.4,126.3,249.4,126.3z"/>
					<path class="st0" d="M268,115.9l2.2,1.8l-1.6,4.7l-14.7-12.8l1.2-3.4l19.5-0.9l-1.7,4.7l-2.8,0L268,115.9z M265,113.5l1.2-3.6
						l-6.5-0.3v0l0,0.1C259.7,109.7,265,113.5,265,113.5z"/>
					<path class="st0" d="M264.3,94.7l-1.6,3.2L259,96l5.4-10.5l3.6,1.9l-1.6,3.2l12.5,6.4l-2.1,4.1
						C276.8,101.1,264.3,94.7,264.3,94.7z"/>
					<path class="st0" d="M267.2,81l5.6-8.3l3.4,2.3l-3.2,4.7l2.3,1.6l3.1-4.5l3.4,2.3l-3.1,4.5l2.6,1.8l3.2-4.7l3.4,2.3l-5.6,8.3
						L267.2,81z"/>
					<path class="st0" d="M276.7,67.4l4-4.4c0.3-0.4,0.8-0.8,1.2-1.3c0.5-0.5,1.1-0.9,1.7-1.3c0.6-0.4,1.4-0.7,2.2-0.9
						c0.8-0.2,1.7-0.3,2.8-0.1c1.1,0.1,2,0.4,2.9,0.9c0.9,0.5,1.7,1,2.4,1.7c0.9,0.8,1.7,1.8,2.3,2.7c0.6,1,1,2,1.1,3.1
						c0.1,1.1,0,2.3-0.5,3.5s-1.2,2.4-2.4,3.7l-4.3,4.7L276.7,67.4L276.7,67.4z M290.2,73.5l1.3-1.5c0.6-0.6,1-1.3,1.1-1.9
						s0.2-1.2,0.1-1.8c-0.1-0.6-0.3-1.1-0.7-1.6c-0.4-0.5-0.8-1-1.2-1.4c-0.4-0.3-0.8-0.7-1.4-1c-0.5-0.3-1.1-0.5-1.7-0.6
						c-0.2,0-0.5,0-0.8,0s-0.6,0.1-0.9,0.2c-0.3,0.1-0.6,0.3-0.9,0.5c-0.3,0.2-0.7,0.5-1,0.9l-1.4,1.5L290.2,73.5L290.2,73.5z"/>
					<path class="st0" d="M320.5,41c0.1,0.1,0.2,0.2,0.3,0.4c0.1,0.1,0.2,0.3,0.3,0.4c0.8,1.3,1.3,2.6,1.5,3.9
						c0.2,1.3,0.2,2.5-0.1,3.7c-0.3,1.2-0.8,2.3-1.6,3.3c-0.7,1-1.6,1.8-2.7,2.5c-1.2,0.7-2.4,1.2-3.6,1.4c-1.3,0.2-2.5,0.2-3.7-0.1
						c-1.2-0.3-2.3-0.8-3.3-1.5s-1.9-1.6-2.6-2.7c-0.7-1.1-1.2-2.3-1.4-3.6c-0.2-1.2-0.1-2.4,0.2-3.6c0.3-1.2,0.8-2.3,1.6-3.3
						c0.7-1,1.7-1.9,2.8-2.6c0.9-0.6,1.9-1,2.9-1.2s2-0.3,3-0.3c1,0.1,1.9,0.3,2.8,0.6c0.9,0.3,1.7,0.8,2.4,1.4l-4.4,2.8
						c-0.6-0.3-1.4-0.5-2.2-0.6c-0.8,0-1.6,0.2-2.4,0.7c-0.5,0.3-0.9,0.7-1.3,1.2s-0.6,1.1-0.8,1.7c-0.2,0.6-0.2,1.3-0.1,2
						c0.1,0.7,0.4,1.5,0.9,2.2c0.5,0.8,1.1,1.4,1.7,1.8c0.6,0.4,1.3,0.7,1.9,0.8c0.6,0.1,1.3,0.1,1.9,0c0.6-0.1,1.2-0.4,1.6-0.7
						c1-0.6,1.6-1.4,2-2.2s0.4-1.7,0.1-2.6l-4.6,2.9l-2-3.1L320.5,41L320.5,41z"/>
					<path class="st0" d="M322.2,31.7l9.2-4l1.6,3.7l-5.2,2.3l1.1,2.6l5-2.2l1.6,3.7l-5,2.2l1.2,2.8l5.2-2.3l1.6,3.7l-9.2,4
						L322.2,31.7L322.2,31.7z"/>
					<path class="st0" d="M337.7,25.3l3.9-1l9.7,9.2l0-0.1l-3.1-10.9l4.3-1.1l4.7,17.5l-3.9,1l-9.5-8.8l0,0l3,10.6l-4.3,1.2
						L337.7,25.3L337.7,25.3z"/>
					<path class="st0" d="M359.6,20.1l10-1.1l0.5,4l-5.6,0.6l0.3,2.8l5.4-0.6l0.5,4l-5.4,0.6l0.4,3.1l5.6-0.6l0.5,4l-10,1.2
						L359.6,20.1L359.6,20.1z"/>
					<path class="st0" d="M376.2,18.6l5.7,0.1c0.8,0,1.5,0.1,2,0.1s1.1,0.1,1.5,0.3c0.4,0.1,0.8,0.3,1.1,0.4s0.6,0.4,0.9,0.6
						c0.7,0.6,1.3,1.4,1.6,2.2s0.5,1.8,0.5,2.7c0,0.5-0.1,1.1-0.2,1.7s-0.4,1.2-0.8,1.7c-0.4,0.5-0.8,1-1.4,1.4
						c-0.6,0.4-1.3,0.7-2.2,0.8l4.8,6.3l-5.3-0.1l-4.1-5.9h-0.1l-0.1,5.9l-4.4-0.1L376.2,18.6L376.2,18.6z M380.4,27.8l1.6,0
						c0.7,0,1.2-0.1,1.6-0.2s0.7-0.4,0.9-0.7s0.4-0.5,0.4-0.8c0.1-0.3,0.1-0.5,0.1-0.8c0-0.8-0.2-1.5-0.8-1.9
						c-0.5-0.4-1.3-0.6-2.1-0.6l-1.7,0L380.4,27.8L380.4,27.8z"/>
					<path class="st0" d="M397.9,35.5l-1.4,2.4l-4.9-0.9L402,20.5l3.6,0.7l3.8,19.1l-4.9-0.9l-0.4-2.7L397.9,35.5z M399.8,32.2
						l3.7,0.7l-0.7-6.4h-0.1L399.8,32.2L399.8,32.2z"/>
					<path class="st0" d="M418.3,24.3l4.4,1.5l-4.5,13.3l5.1,1.7l-1.3,3.8l-9.5-3.2C412.5,41.5,418.3,24.3,418.3,24.3z"/>
					<path class="st0" d="M451.8,53.3c-0.8,0.8-1.7,1.4-2.6,1.8c-1,0.4-1.9,0.7-2.9,0.8s-2,0-3.1-0.2s-2-0.6-2.9-1.2
						c-1.2-0.8-2.2-1.7-2.9-2.7c-0.7-1.1-1.2-2.2-1.5-3.4c-0.2-1.2-0.3-2.4-0.1-3.6c0.2-1.2,0.6-2.3,1.3-3.4c0.6-1,1.4-1.8,2.4-2.6
						c1-0.7,2-1.2,3.2-1.6c1.2-0.3,2.4-0.4,3.7-0.2c1.3,0.2,2.6,0.6,3.8,1.4c1.2,0.8,2.1,1.6,2.8,2.6c0.7,1,1.1,2,1.4,3
						c0.3,1,0.4,2,0.3,3c-0.1,1-0.2,1.8-0.5,2.4l-4.1-2.6c0.1-0.4,0.1-0.8,0.1-1.2s-0.1-0.9-0.2-1.3c-0.1-0.5-0.4-0.9-0.7-1.3
						c-0.3-0.4-0.7-0.8-1.2-1.1c-0.7-0.4-1.3-0.7-2-0.7c-0.7,0-1.3,0-1.9,0.2c-0.6,0.2-1.2,0.5-1.7,1c-0.5,0.4-0.9,0.9-1.3,1.5
						c-0.4,0.6-0.6,1.2-0.8,1.9c-0.1,0.7-0.2,1.3-0.1,2c0.1,0.7,0.3,1.3,0.7,1.8c0.4,0.6,0.9,1.1,1.5,1.5c0.6,0.4,1.2,0.6,1.8,0.7
						c0.6,0.1,1.1,0,1.6-0.1s0.9-0.3,1.2-0.4c0.3-0.2,0.6-0.3,0.7-0.4L451.8,53.3L451.8,53.3z"/>
					<path class="st0" d="M459.6,51.8c0.6-0.3,1.3-0.5,2.1-0.7c0.8-0.2,1.7-0.2,2.6-0.2c0.9,0.1,1.9,0.3,2.9,0.7
						c1,0.4,1.9,1,2.9,1.9c1,0.9,1.8,2,2.3,3.2c0.5,1.2,0.8,2.4,0.8,3.6c0,1.2-0.1,2.4-0.6,3.5c-0.4,1.2-1.1,2.2-1.9,3.1
						c-0.9,0.9-1.8,1.6-3,2.2s-2.3,0.8-3.5,0.9c-1.2,0.1-2.4-0.1-3.6-0.6s-2.3-1.1-3.4-2.1c-1-1-1.8-2-2.3-3.2
						c-0.5-1.2-0.8-2.4-0.8-3.6c0-1.2,0.2-2.3,0.6-3.5c0.4-1.1,1-2.1,1.8-3c0.4-0.4,0.9-0.9,1.4-1.3
						C458.3,52.5,458.9,52.1,459.6,51.8L459.6,51.8z M460,57.1c-0.5,0.5-0.9,1.1-1.1,1.7c-0.3,0.6-0.4,1.3-0.4,1.9
						c0,0.7,0.1,1.3,0.3,1.9c0.2,0.6,0.6,1.2,1.2,1.8c0.6,0.6,1.2,0.9,1.9,1.1c0.7,0.2,1.3,0.2,2,0.1c0.7-0.1,1.3-0.3,1.8-0.7
						s1.1-0.7,1.4-1.1c0.4-0.4,0.7-1,1-1.5c0.3-0.6,0.4-1.2,0.5-1.9s0-1.3-0.2-2c-0.2-0.7-0.6-1.3-1.3-1.8c-0.6-0.5-1.2-0.9-1.9-1.1
						c-0.7-0.2-1.3-0.2-2-0.2c-0.6,0.1-1.3,0.3-1.9,0.6C460.9,56.3,460.4,56.7,460,57.1L460,57.1z"/>
					<path class="st0" d="M481.3,65.6l2.4,3.2l-4.9,12.4h0.1l9-7l2.7,3.5L476,88.7l-2.4-3.2l4.7-12.1l-0.1,0l-8.7,6.7l-2.7-3.5
						L481.3,65.6L481.3,65.6z"/>
					<path class="st0" d="M491.6,87.8l-1.7-3.1l3.6-1.9l5.6,10.3l-3.6,1.9l-1.7-3.1l-12.3,6.7l-2.2-4.1L491.6,87.8L491.6,87.8z"/>
					<path class="st0" d="M501.5,98.1l2,5.3c0.3,0.8,0.5,1.4,0.7,1.9s0.3,1,0.3,1.5s0.1,0.8,0,1.2s-0.1,0.7-0.2,1.1
						c-0.3,0.9-0.8,1.7-1.5,2.4s-1.5,1.2-2.4,1.5c-0.5,0.2-1,0.3-1.7,0.4s-1.2,0.1-1.9-0.1c-0.6-0.1-1.2-0.4-1.9-0.8s-1.1-1-1.5-1.7
						l-4,6.8l-1.9-4.9l4-6l0-0.1l-5.5,2.1l-1.6-4.1L501.5,98.1L501.5,98.1z M494.5,105.5l0.6,1.5c0.2,0.6,0.5,1.1,0.8,1.4
						s0.6,0.5,1,0.6c0.3,0.1,0.6,0.1,0.9,0.1c0.3,0,0.5-0.1,0.8-0.2c0.8-0.3,1.3-0.8,1.4-1.4c0.2-0.7,0.1-1.4-0.2-2.2l-0.6-1.6
						L494.5,105.5L494.5,105.5z"/>
					<path class="st0" d="M493.9,124.5l-2.8-0.4l-1-4.9l19.2,3.5l0.7,3.6L493.8,137l-1-4.9l2.4-1.4L493.9,124.5L493.9,124.5z
						 M497.7,125.1l0.8,3.7l5.7-3.1v0l0-0.1L497.7,125.1L497.7,125.1z"/>
					<path class="st0" d="M501.3,156.8c-1.1-0.2-2.1-0.6-3-1.2c-0.9-0.6-1.7-1.2-2.3-2s-1.2-1.7-1.5-2.6c-0.4-1-0.6-2-0.6-3.1
						c0-1.4,0.2-2.7,0.7-3.9c0.5-1.2,1.1-2.2,2-3.1s1.8-1.5,3-2c1.1-0.5,2.3-0.8,3.5-0.8c1.2,0,2.3,0.1,3.4,0.5s2.1,1,3.1,1.8
						s1.6,1.8,2.2,2.9c0.6,1.2,0.9,2.5,1,4c0,1.4-0.2,2.7-0.6,3.8c-0.5,1.1-1,2.1-1.7,2.8c-0.7,0.8-1.5,1.4-2.3,1.9
						c-0.8,0.5-1.6,0.8-2.3,0.9l-0.2-4.9c0.3-0.1,0.7-0.3,1-0.6c0.4-0.2,0.7-0.6,1-0.9s0.5-0.8,0.7-1.3s0.3-1.1,0.2-1.7
						c0-0.8-0.2-1.5-0.5-2.1c-0.3-0.6-0.8-1.1-1.3-1.5s-1.1-0.7-1.7-0.9s-1.3-0.3-1.9-0.3c-0.7,0-1.4,0.2-2,0.4
						c-0.6,0.2-1.2,0.6-1.7,1c-0.5,0.4-0.9,1-1.2,1.6s-0.4,1.3-0.4,2.1c0,0.7,0.2,1.3,0.5,1.9s0.6,0.9,1,1.3s0.7,0.6,1,0.8
						c0.3,0.2,0.6,0.3,0.8,0.4L501.3,156.8L501.3,156.8z"/>
					<path class="st0" d="M507.7,164.4l0.4-3.6l4,0.5l-1.4,11.7l-4-0.5l0.4-3.5l-14-1.7l0.5-4.6L507.7,164.4L507.7,164.4z"/>
					<path class="st0" d="M504.8,177c0.5,0.4,1,0.9,1.5,1.5c0.5,0.6,1,1.4,1.3,2.2c0.4,0.9,0.6,1.8,0.7,2.9s0,2.2-0.4,3.4
						c-0.4,1.3-1,2.5-1.8,3.5c-0.8,1-1.7,1.8-2.8,2.4c-1,0.6-2.2,1-3.4,1.1s-2.5,0.1-3.7-0.3s-2.3-0.9-3.3-1.6
						c-1-0.8-1.8-1.7-2.4-2.7c-0.6-1.1-1-2.2-1.2-3.5c-0.2-1.3-0.1-2.6,0.3-3.9c0.4-1.4,1-2.6,1.8-3.5c0.8-1,1.8-1.8,2.8-2.4
						s2.2-0.9,3.4-1.1c1.2-0.1,2.3-0.1,3.5,0.2c0.6,0.2,1.2,0.4,1.8,0.6S504.2,176.5,504.8,177L504.8,177z M500.2,179.8
						c-0.7-0.2-1.4-0.3-2-0.2c-0.7,0.1-1.3,0.2-1.9,0.5c-0.6,0.3-1.1,0.7-1.6,1.2s-0.8,1.1-1,1.9c-0.2,0.8-0.2,1.5-0.1,2.2
						s0.4,1.3,0.8,1.8c0.4,0.5,0.9,1,1.4,1.3s1.1,0.6,1.7,0.8s1.2,0.2,1.8,0.2s1.3-0.2,1.9-0.4c0.6-0.2,1.2-0.6,1.7-1.1
						c0.5-0.5,0.8-1.2,1.1-2c0.2-0.8,0.2-1.5,0.1-2.2s-0.4-1.3-0.8-1.8c-0.4-0.5-0.8-1-1.4-1.4C501.4,180.2,500.8,179.9,500.2,179.8
						L500.2,179.8z"/>
					<path class="st0" d="M502.4,202.4l-2.5,5.2c-0.3,0.7-0.7,1.3-1,1.8s-0.6,0.9-0.9,1.2s-0.6,0.6-0.8,0.8
						c-0.3,0.2-0.6,0.4-0.9,0.6c-0.9,0.4-1.8,0.6-2.7,0.6c-1-0.1-1.9-0.3-2.7-0.7c-0.5-0.2-0.9-0.5-1.4-0.9
						c-0.5-0.4-0.9-0.9-1.2-1.4s-0.6-1.2-0.7-1.9c-0.1-0.7-0.1-1.5,0.1-2.3l-7.7,1.8l2.3-4.8l7.1-1.3l0,0l-5.3-2.5l1.9-4
						L502.4,202.4L502.4,202.4z M492.3,202.5l-0.7,1.5c-0.3,0.6-0.4,1.1-0.4,1.6s0.1,0.8,0.2,1.1c0.2,0.3,0.4,0.5,0.6,0.7
						c0.2,0.2,0.5,0.3,0.7,0.4c0.8,0.4,1.4,0.4,2,0.1c0.6-0.3,1.1-0.9,1.5-1.7l0.7-1.5L492.3,202.5L492.3,202.5z"/>
					<path class="st0" d="M485.1,223c0.1,0.1,0.3,0.1,0.5,0.2s0.4,0.1,0.6,0.1c0.2,0,0.4,0,0.6-0.1c0.2-0.1,0.4-0.3,0.6-0.6
						c0.2-0.3,0.3-0.7,0.3-1.1s-0.2-0.7-0.6-1c-0.2-0.1-0.4-0.2-0.6-0.3c-0.2,0-0.5,0-0.8,0.1c-0.3,0.1-0.7,0.3-1.2,0.6
						s-1.1,0.7-1.8,1.1c-0.8,0.5-1.5,0.9-2.1,1.1c-0.6,0.2-1.2,0.4-1.7,0.4s-1,0-1.5-0.2c-0.4-0.1-0.9-0.4-1.3-0.7
						c-0.6-0.4-1.1-0.8-1.5-1.4c-0.4-0.5-0.7-1.2-0.9-1.9c-0.2-0.7-0.2-1.5,0-2.3c0.2-0.9,0.6-1.8,1.2-2.8c0.7-1.1,1.5-1.9,2.3-2.4
						c0.8-0.5,1.6-0.8,2.3-0.9c0.8-0.1,1.5,0,2.1,0.2c0.7,0.2,1.2,0.5,1.7,0.8l0.5,0.3l-2.5,3.8c-0.4-0.3-0.8-0.5-1.2-0.5
						c-0.4-0.1-0.6-0.1-0.9,0c-0.3,0.1-0.5,0.2-0.6,0.3c-0.2,0.1-0.3,0.3-0.4,0.4c-0.3,0.5-0.4,0.9-0.3,1.4s0.4,0.8,0.7,1
						c0.2,0.2,0.5,0.3,0.7,0.3c0.2,0,0.5,0,0.8-0.1c0.3-0.1,0.7-0.3,1.1-0.6c0.4-0.3,1-0.6,1.6-1c0.3-0.2,0.7-0.4,1.1-0.7
						s1-0.5,1.6-0.7c0.6-0.2,1.2-0.2,1.9-0.2c0.7,0.1,1.4,0.3,2.1,0.8c0.7,0.5,1.2,1,1.6,1.7c0.4,0.7,0.5,1.4,0.6,2.1s0,1.5-0.2,2.3
						c-0.2,0.8-0.5,1.5-1,2.1c-0.5,0.8-1.1,1.4-1.9,2c-0.8,0.6-1.6,0.9-2.5,1c-0.4,0-0.8,0-1.1,0c-0.4-0.1-0.7-0.1-1-0.2
						c-0.3-0.1-0.6-0.2-0.8-0.4c-0.2-0.1-0.5-0.3-0.7-0.4L485.1,223L485.1,223z"/>
				</g>
				<g>
					<path class="st0" d="M322.8,268.8l3.3-6.4l-5.2-2.7l-3.3,6.4l-4.1-2.1l8.2-15.9l4.1,2.1l-3.1,6l5.2,2.7l3.1-6l4.1,2.1
						l-8.2,15.9L322.8,268.8z"/>
					<path class="st0" d="M335.3,265.4c1.6-5.3,6.7-8.1,11.9-6.5c5,1.5,7.9,6.6,6.4,11.6c-1.6,5.1-6.7,7.8-11.6,6.3
						C337.2,275.2,333.8,270.4,335.3,265.4z M349.2,269.2c0.8-2.7-0.4-5.7-3.1-6.5c-2.7-0.8-5.4,0.9-6.2,3.6
						c-0.9,2.8,0.4,5.7,3.2,6.5C345.7,273.6,348.3,271.9,349.2,269.2L349.2,269.2z"/>
					<path class="st0" d="M368.4,263.5l4.6,0.6l-1.4,10.9c-0.2,1.9-0.7,3.2-1.4,4.1c-1.4,1.8-3.6,2.6-6.2,2.3
						c-1.5-0.2-2.7-0.6-3.7-1.4c-1.9-1.5-2.8-3.3-2.3-6.7l1.4-10.9l4.5,0.6l-1.3,10.9c-0.3,2.2,0.3,3.4,1.9,3.6
						c1.5,0.2,2.4-0.5,2.7-3L368.4,263.5L368.4,263.5z"/>
					<path class="st0" d="M384.3,269.2c-0.2-1.3-0.8-1.7-1.7-1.7c-0.9,0-1.6,0.6-1.5,1.4c0,1.1,1,1.5,3,2.3c4,1.6,5,3,5.1,5.4
						c0.1,3.5-2.3,5.5-6.1,5.6c-3.9,0.1-6.5-1.9-6.6-5.8v-0.4l4.5-0.1c0.1,1.5,0.8,2.4,1.9,2.4c1,0,1.7-0.8,1.7-1.8
						c0-1.4-2-2-3.7-2.6c-3-1.1-4.3-2.6-4.4-5c-0.1-3.1,2.9-5.4,6.1-5.4c1.2,0,2.2,0.2,3.2,0.7c1.9,1,2.9,2.4,3,4.8L384.3,269.2
						L384.3,269.2z"/>
					<path class="st0" d="M396.9,281l-2-13.8l-3.5,0.5l-0.6-4l11.5-1.7l0.6,4l-3.5,0.5l2,13.8L396.9,281L396.9,281z"/>
					<path class="st0" d="M406.7,270.9c-1.6-5.3,1-10.5,6.2-12.1c5-1.5,10.2,1.1,11.8,6c1.5,5.1-1.2,10.2-6.1,11.7
						C413.8,278.1,408.3,276,406.7,270.9z M420.3,266.4c-0.8-2.7-3.5-4.5-6.2-3.6c-2.7,0.8-4,3.7-3.1,6.4c0.9,2.8,3.5,4.5,6.3,3.7
						C420,272,421.2,269.1,420.3,266.4z"/>
					<path class="st0" d="M443.2,265.9l-11.1-6.6l5.1,9.7l-3.9,2l-8.2-15.9l3.5-1.8l11.4,6.9l-5.4-10l3.9-2l8.2,15.9L443.2,265.9
						L443.2,265.9z"/>
				</g>
			</g>
			<g>
				<path class="st0" d="M463.6,245.8c2.8,0,5.1-2.3,5.1-5s-2.3-5.1-5.1-5.1s-5,2.3-5,5.1S460.9,245.8,463.6,245.8"/>
				<path class="st0" d="M296.6,245.8c2.8,0,5.1-2.3,5.1-5s-2.3-5.1-5.1-5.1s-5,2.3-5,5.1S293.9,245.8,296.6,245.8"/>
			</g>
		</g>
	</g>
</g>
</svg>
