<svg xmlns="http://www.w3.org/2000/svg" viewBox="0 0 500.99 125.91"><defs><style>.cls-1{fill:#1c5a7d;}.cls-2{fill:#11a0db;}</style></defs><g id="Layer_2" data-name="Layer 2"><g id="Layer_1-2" data-name="Layer 1"><path class="cls-1" d="M108.61,15.67,95.87,10.83,69.61,14V47.83L45.38,50.77V71.61L21.15,74.55v30.76l.24.1c1,.39,1.94.71,2.91,1l.5.14V77.78l20.58-2.49v32.33l.44-.05a83.51,83.51,0,0,0,14.26-3.18l.27-.09-.2-28.09L49,72V54l20.58-2.5v49.31l.54-.25c3-1.33,6-2.81,8.79-4.39,1.8-1,3.62-2.12,5.43-3.31l.18-.11-.17-40.32L73.26,48.16V17.25l20.58-2.5v71l.64-.55a81.79,81.79,0,0,0,14.21-15.73l.07-.1Z"/><path class="cls-2" d="M18.36,72.08l5.25-.64a36.7,36.7,0,0,1,2.39-4c5.5-8.21,14-16.17,25.12-22.59a105.72,105.72,0,0,1,15.7-7.09V27.19a107,107,0,0,0-22.88,9.47C12.55,54.57,2.64,80.55,11,96.06a23.43,23.43,0,0,0,7.32,7.39Z"/><path class="cls-1" d="M128.79,38.14c-3.35-6.65-9.55-11.17-17.37-13.79l0,5.28a24.92,24.92,0,0,1,4.43,5.61c5.51,9.61,3.89,20.26-1.94,32.3-4.82,9.93-17.45,24.4-34.91,34.2-31.26,17.55-65.18,16.7-76-2.3a24.94,24.94,0,0,1-2.86-8,29.87,29.87,0,0,0,3.5,17.91c12,21.07,49.7,22.18,84.26,2.54C117.85,94.88,141.62,63.65,128.79,38.14Z"/><path class="cls-1" d="M181.15,46.2A18,18,0,0,1,167.6,52c-10.07,0-17.38-7.52-17.38-17.88s7.31-18.06,17.38-18.06A17.8,17.8,0,0,1,180,21.22l.7.79L184,17.72l-.45-.53c-.22-.26-5.5-6.36-15.92-6.36-13,0-22.87,10-22.87,23.29s9.62,23.11,22.87,23.11c10.85,0,16.54-6.67,16.77-7l.41-.48-2.87-4.56Z"/><path class="cls-1" d="M212.18,10.83a22.7,22.7,0,0,0-23,23c0,13.15,10.08,23.45,23,23.45s22.94-10.3,22.94-23.45A22.7,22.7,0,0,0,212.18,10.83Zm0,41.17c-9.79,0-17.46-8-17.46-18.22a17.46,17.46,0,1,1,34.92,0C229.64,44,222,52,212.18,52Z"/><path class="cls-1" d="M263.7,10.83a20.31,20.31,0,0,0-17,9.11V11.85h-5.32V56.21h5.32V34.54a20.33,20.33,0,0,1,.65-5.57A17.18,17.18,0,0,1,263.7,16.06c8,0,9.61,5,9.61,13.54V56.21h5.32V28.32C278.63,20.18,276.93,10.83,263.7,10.83Z"/><path class="cls-1" d="M302.58,31.52c-5.42-2.12-10.1-4-10.1-8.57,0-5.08,4.52-6.89,8.76-6.89,6.73,0,10.06,3.67,10.09,3.71l.71.81,3.18-4.32-.44-.52c-.18-.2-4.29-4.91-13.28-4.91C291.48,10.83,287,17,287,23.2c0,8,7.1,10.76,13.37,13.22,5.4,2.12,10.07,3.95,10.07,8.44,0,4.94-4.48,7.14-8.93,7.14a17.88,17.88,0,0,1-12.57-5.08l-.67-.74-3.41,4,.47.55c.21.27,5.49,6.45,16.09,6.45,8.41,0,14.51-5.2,14.51-12.37C315.92,36.76,308.83,34,302.58,31.52Z"/><path class="cls-1" d="M328.34,0H323V39.91c0,15,10.09,16.64,14.43,16.64a12.39,12.39,0,0,0,2.3-.19l.7-.14v-5.1l-1.05.22a9.31,9.31,0,0,1-1.77.15c-3.47,0-9.28-1.54-9.28-11.83V16.82h12.11v-5H328.34Z"/><path class="cls-1" d="M365.47,11.51c-5.13,0-9.69,3.07-12.6,8.24v-7.9h-5.32V56.21h5.32V36.93a29.17,29.17,0,0,1,1.24-8.7c1-3.41,4.19-11.32,11.87-11.32a13.36,13.36,0,0,1,1.82.16l1,.17V11.93l-.69-.15A14.51,14.51,0,0,0,365.47,11.51Z"/><path class="cls-1" d="M406.57,33.52C406.57,42.61,400.36,52,390,52c-8,0-9.62-5-9.62-13.54V11.85H375V39.74c0,12.1,4.6,17.49,14.93,17.49a19.84,19.84,0,0,0,16.61-9.08v8.06h5.32V11.85h-5.32Z"/><path class="cls-1" d="M454.53,46.2A18.11,18.11,0,0,1,441,52c-10.07,0-17.38-7.52-17.38-17.88S430.9,16.06,441,16.06a17.74,17.74,0,0,1,12.39,5.17l.71.78,3.27-4.29-.45-.53c-.22-.26-5.49-6.36-15.92-6.36-13,0-22.86,10-22.86,23.29S427.72,57.23,441,57.23c10.85,0,16.54-6.67,16.78-7l.4-.48-2.86-4.56Z"/><path class="cls-1" d="M481.79,16.82v-5h-12.1V0h-5.32V39.91c0,15,10.09,16.64,14.42,16.64a12.57,12.57,0,0,0,2.31-.19l.69-.14v-5.1l-1.05.22a9.62,9.62,0,0,1-1.78.15c-3.46,0-9.27-1.54-9.27-11.83V16.82Z"/><path class="cls-1" d="M184.86,108.27c-.06,0-5.57,5.56-12.83,5.56-8.74,0-13.32-6.74-13.32-13.41,0-7.66,5.45-13.23,13-13.23a17.11,17.11,0,0,1,11.27,4.66l1,1,6.3-9.8-.52-.63c-.25-.3-6.21-7.32-18.69-7.32-15.23,0-26.3,10.68-26.3,25.39s11.07,25.4,26.3,25.4c12.82,0,19.65-7.6,19.94-7.93l.52-.59-5.56-10.21Z"/><path class="cls-1" d="M218.45,75.12c-15.14,0-26.57,10.92-26.57,25.39s11.46,25.4,26.67,25.4,26.57-10.92,26.57-25.4S233.66,75.12,218.45,75.12Zm12.69,25.39c0,7.6-5.41,13.32-12.59,13.32s-12.69-5.72-12.69-13.32,5.46-13.32,12.69-13.32S231.14,92.92,231.14,100.51Z"/><path class="cls-1" d="M278.51,75.06a19.06,19.06,0,0,0-15.32,7V76.24H249.84v48.52h13.8v-22.4a18.12,18.12,0,0,1,.77-5.84,11.72,11.72,0,0,1,11.37-8.66c4.48,0,6.23,2.34,6.23,8.32v28.58h13.71V93.82C295.72,81.37,289.93,75.06,278.51,75.06Z"/><path class="cls-1" d="M332.32,75.06a19.07,19.07,0,0,0-15.32,7V76.24H303.65v48.52h13.81v-22.4a18.43,18.43,0,0,1,.76-5.84,11.72,11.72,0,0,1,11.37-8.66c4.55,0,6.23,2.26,6.23,8.32v28.58h13.71V93.82C349.53,81.37,343.74,75.06,332.32,75.06Z"/><path class="cls-1" d="M447,108.27s-5.56,5.56-12.82,5.56c-8.75,0-13.32-6.74-13.32-13.41,0-7.66,5.45-13.23,12.95-13.23a17.18,17.18,0,0,1,11.28,4.66l1,1,6.31-9.8-.53-.63c-.25-.3-6.21-7.32-18.68-7.32-15.24,0-26.3,10.68-26.3,25.39s11.06,25.4,26.3,25.4c12.81,0,19.65-7.6,19.93-7.93l.53-.59L448,107.18Z"/><path class="cls-1" d="M481.79,112.2l-1.37.3a10.13,10.13,0,0,1-1.85.15c-3,0-8.05-1-8.05-7.59V87.68h11.27V76.24H470.52V62.76H457l-.28,43.75c0,16.77,14.27,18.58,20.4,18.58a19.82,19.82,0,0,0,3.77-.3l.9-.18Z"/><path class="cls-1" d="M378.94,75.08c-14.54,0-24.69,10.45-24.69,25.41,0,14.73,11,25.42,26.06,25.42A29.89,29.89,0,0,0,399.73,119l.59-.55-5.47-10.16-1,.85c-.06,0-5.75,4.86-12.74,4.86-5.24,0-11.56-2.71-12.78-10.24h33.43l.08-1c0-.13.27-3.17.27-4.57C402.13,84.81,392.38,75.08,378.94,75.08ZM368.83,93.7c1.31-4.84,4.84-7.59,9.83-7.59,4.29,0,8.9,2.65,9.61,7.59Z"/><path class="cls-1" d="M494.35,111.64a6.74,6.74,0,1,1-6.54,6.73A6.66,6.66,0,0,1,494.35,111.64Zm0,12.48a5.75,5.75,0,1,0-5.45-5.75A5.56,5.56,0,0,0,494.35,124.12Zm-2.19-9.36h2.58a2,2,0,0,1,2.17,2.15,1.9,1.9,0,0,1-1.35,1.91v0s.07.1.24.41l1.39,2.73H496l-1.45-2.93H493.2V122h-1Zm2.4,3.48a1.22,1.22,0,0,0,1.28-1.33,1.18,1.18,0,0,0-1.28-1.28H493.2v2.61Z"/></g></g></svg>