<svg xmlns="http://www.w3.org/2000/svg" width="125" height="48" viewBox="0 0 125 48">
    <g fill="#0A2C3B" fill-rule="evenodd">
        <path d="M60.466 34.229a1.387 1.387 0 0 0 1.04-.466c.123-.14.218-.304.287-.491.067-.187.102-.382.102-.586 0-.205-.035-.4-.102-.587a1.537 1.537 0 0 0-.287-.491 1.402 1.402 0 0 0-.453-.338 1.348 1.348 0 0 0-.587-.128h-1.415v3.087h1.415zm-3.48-4.77h3.735c.493 0 .94.088 1.34.262.399.174.74.407 1.026.701.285.293.503.635.657 1.027.153.391.23.802.23 1.237 0 .433-.077.845-.23 1.236a3.055 3.055 0 0 1-.657 1.027 3.194 3.194 0 0 1-1.027.701c-.4.175-.846.262-1.339.262h-1.67v2.474h-2.066V29.46zM67.786 36.88c.22 0 .42-.041.6-.126a1.461 1.461 0 0 0 .758-.836 1.7 1.7 0 0 0 .108-.605 1.65 1.65 0 0 0-.408-1.097 1.387 1.387 0 0 0-1.058-.472 1.384 1.384 0 0 0-1.058.472 1.63 1.63 0 0 0-.409 1.097c0 .212.037.414.109.605.072.191.172.357.3.497.127.14.28.254.459.339.178.085.378.127.599.127zm3.418-4.64v6.146h-1.952v-.867a1.599 1.599 0 0 1-.305.402c-.128.123-.275.23-.44.318-.166.09-.347.162-.542.217a2.16 2.16 0 0 1-.587.083c-.442 0-.848-.083-1.218-.249a2.885 2.885 0 0 1-.95-.676 2.994 2.994 0 0 1-.612-1.02 3.708 3.708 0 0 1-.217-1.281c0-.46.073-.887.217-1.282.144-.395.348-.736.612-1.02.264-.285.58-.51.95-.676.37-.166.776-.249 1.218-.249.195 0 .391.028.587.083.195.056.376.13.542.224.165.093.312.203.44.33.127.128.229.26.305.396v-.88h1.952zM77.068 34.012a3.393 3.393 0 0 0-.344-.07 2.61 2.61 0 0 0-.345-.02c-.535 0-.964.158-1.288.472-.323.315-.484.846-.484 1.594v2.398h-1.951v-6.147h1.95v.995c.145-.289.385-.544.721-.765.336-.221.72-.332 1.154-.332.23 0 .425.034.587.102v1.773M81.918 38.386a7.412 7.412 0 0 1-1.301.102c-.23 0-.472-.017-.727-.051a1.7 1.7 0 0 1-.708-.262c-.216-.14-.395-.356-.535-.65-.14-.294-.21-.695-.21-1.205v-2.627h-.97V32.24h.97v-1.824h1.938v1.824h1.403v1.454h-1.403v2.189c0 .229.02.411.063.547.043.136.102.24.179.312a.591.591 0 0 0 .268.146c.102.026.212.038.331.038h.37a1.5 1.5 0 0 0 .332-.032v1.493M82.94 32.24h1.951v.892c.17-.332.427-.588.772-.771.344-.183.758-.275 1.243-.275.4 0 .744.062 1.033.185.289.123.518.295.688.517.196.237.326.512.39.822.063.31.095.687.095 1.128v3.648h-1.951v-3.15c0-.442-.079-.801-.236-1.078-.158-.276-.44-.414-.848-.414-.4 0-.697.14-.893.42-.195.281-.293.66-.293 1.136v3.086h-1.95v-6.147M93.384 33.374c-.383 0-.697.11-.944.332-.246.22-.37.54-.37.956h2.576c0-.4-.117-.714-.35-.944-.234-.23-.538-.344-.912-.344zm-1.313 2.41c.007.187.036.363.082.53.047.165.123.31.23.433.106.123.244.22.414.293.17.073.383.109.638.109.34 0 .597-.068.771-.204.174-.136.295-.302.364-.498h1.912c-.042.29-.142.561-.3.817a2.392 2.392 0 0 1-.624.67c-.26.19-.566.341-.918.452-.353.11-.75.166-1.192.166-.536 0-1.01-.079-1.422-.236a2.821 2.821 0 0 1-1.04-.67 2.87 2.87 0 0 1-.637-1.027 3.778 3.778 0 0 1-.217-1.306c0-.451.07-.872.21-1.263.14-.39.349-.733.625-1.026a2.964 2.964 0 0 1 1.02-.696c.404-.17.874-.254 1.41-.254.484 0 .92.076 1.307.23.386.152.718.356.994.611a2.654 2.654 0 0 1 .861 1.964c0 .127-.002.264-.007.408a3.353 3.353 0 0 1-.057.497h-4.424zM102.114 34.012a3.375 3.375 0 0 0-.344-.07 2.604 2.604 0 0 0-.345-.02c-.535 0-.965.158-1.288.472-.323.315-.484.846-.484 1.594v2.398h-1.951v-6.147h1.95v.995c.145-.289.385-.544.721-.765.336-.221.72-.332 1.154-.332.23 0 .425.034.587.102v1.773M106.17 34.764c.272.077.527.16.765.249.238.09.447.2.625.331.178.133.321.296.428.491.106.196.159.442.159.74 0 .365-.073.674-.217.925a1.72 1.72 0 0 1-.6.612c-.254.158-.55.27-.885.338a5.41 5.41 0 0 1-1.078.102c-.876 0-1.567-.192-2.073-.574-.505-.383-.758-.932-.758-1.645h1.913c0 .323.09.554.274.694.183.14.419.211.708.211.238 0 .43-.045.58-.134.148-.09.223-.235.223-.44a.417.417 0 0 0-.096-.287.926.926 0 0 0-.293-.204 3.65 3.65 0 0 0-.51-.19 53.764 53.764 0 0 1-.746-.237 9.692 9.692 0 0 1-.727-.249 2.653 2.653 0 0 1-.606-.325 1.39 1.39 0 0 1-.414-.485c-.102-.195-.153-.441-.153-.74 0-.637.245-1.108.733-1.415.489-.305 1.15-.458 1.983-.458.442 0 .831.052 1.167.158.336.107.612.254.829.44.217.188.38.41.49.664.111.255.167.527.167.816h-1.926c0-.255-.066-.453-.198-.593-.132-.14-.334-.21-.605-.21a.95.95 0 0 0-.51.133c-.145.09-.217.228-.217.415 0 .11.034.202.102.274a.942.942 0 0 0 .3.198c.13.06.295.119.49.179.196.06.421.132.676.216"/>
        <g>
            <path d="M60.466 23.602c.213 0 .408-.042.587-.127.178-.085.33-.197.453-.339.123-.14.218-.303.287-.49.067-.187.102-.383.102-.587 0-.204-.035-.399-.102-.586a1.537 1.537 0 0 0-.287-.492 1.402 1.402 0 0 0-.453-.337 1.348 1.348 0 0 0-.587-.128h-1.415v3.086h1.415zm-3.48-4.769h3.735c.493 0 .94.088 1.34.261.399.175.74.408 1.026.702.285.293.503.635.657 1.026.153.392.23.803.23 1.237 0 .434-.077.846-.23 1.238a3.053 3.053 0 0 1-.657 1.026 3.194 3.194 0 0 1-1.027.701c-.4.174-.846.262-1.339.262h-1.67v2.473h-2.066v-8.926zM70.885 21.613v6.146h-1.952v-.88c-.17.324-.426.577-.77.76-.345.182-.76.273-1.244.273-.4 0-.744-.061-1.033-.185a1.67 1.67 0 0 1-.689-.516 1.806 1.806 0 0 1-.382-.823c-.06-.31-.09-.686-.09-1.128v-3.647h1.939v3.15c0 .442.078.8.236 1.077.157.277.44.414.848.414s.707-.14.899-.42c.191-.28.286-.659.286-1.135v-3.086h1.952M76.75 23.386a3.375 3.375 0 0 0-.345-.07 2.612 2.612 0 0 0-.344-.02c-.536 0-.965.157-1.289.472-.323.314-.484.846-.484 1.594v2.397h-1.951v-6.146h1.95v.995c.146-.29.385-.545.721-.765a2.05 2.05 0 0 1 1.154-.332c.23 0 .426.034.587.102v1.773M81.685 24.023a1.112 1.112 0 0 0-.337-.663c-.184-.17-.475-.255-.874-.255-.23 0-.432.043-.606.128-.174.084-.317.2-.427.344-.11.145-.194.313-.249.503a2.185 2.185 0 0 0-.083.606c0 .213.028.415.083.605.055.192.14.36.255.504.115.145.264.26.447.345.182.085.401.127.656.127.34 0 .595-.07.765-.21.17-.14.298-.342.383-.605h1.951c-.05.348-.153.673-.306.975a2.462 2.462 0 0 1-.625.784 2.935 2.935 0 0 1-.962.523c-.379.128-.81.191-1.295.191-.536 0-1.01-.09-1.422-.268A3.096 3.096 0 0 1 78 26.944a2.93 2.93 0 0 1-.631-1.034c-.14-.39-.21-.799-.21-1.224 0-.425.07-.833.21-1.224.14-.391.35-.735.631-1.033.28-.297.627-.536 1.039-.714.413-.178.886-.268 1.422-.268.518 0 .969.073 1.352.217.382.145.703.336.963.574.259.238.459.512.599.822.14.31.227.632.261.963h-1.95M84.713 18.833H86.6v3.672c.17-.322.425-.578.765-.764.34-.187.748-.28 1.224-.28.4 0 .735.06 1.008.184.271.123.492.295.663.517.195.237.327.513.395.828.068.314.102.693.102 1.135v3.634H88.87v-3.15c0-.441-.08-.8-.236-1.077-.158-.276-.44-.414-.848-.414-.4 0-.697.14-.893.42-.195.281-.293.66-.293 1.135v3.086h-1.887v-8.926M95.194 26.254c.221 0 .421-.041.6-.127a1.454 1.454 0 0 0 .758-.836c.073-.19.109-.392.109-.605a1.642 1.642 0 0 0-.408-1.096 1.387 1.387 0 0 0-1.058-.472 1.384 1.384 0 0 0-1.059.472 1.63 1.63 0 0 0-.408 1.096c0 .213.036.415.108.605.072.192.172.358.3.498.127.14.28.253.46.338.178.086.377.127.598.127zm3.418-4.64v6.145h-1.951v-.867c-.077.145-.179.28-.306.402-.128.124-.274.23-.44.318-.166.09-.347.162-.542.218a2.16 2.16 0 0 1-.587.082c-.442 0-.848-.082-1.217-.248a2.879 2.879 0 0 1-.95-.676 2.988 2.988 0 0 1-.613-1.02 3.708 3.708 0 0 1-.216-1.282c0-.459.072-.886.216-1.281.145-.396.349-.736.612-1.02.264-.285.58-.51.95-.676.37-.166.776-.249 1.218-.249.196 0 .391.028.587.083.195.055.376.13.542.223.166.094.312.204.44.331.127.128.23.26.306.396v-.88h1.951zM103.35 24.138c.272.076.528.16.766.248.238.09.446.2.625.332.178.132.32.295.427.491.106.196.16.442.16.74 0 .365-.073.674-.218.924-.144.25-.344.455-.599.612a2.68 2.68 0 0 1-.886.338 5.407 5.407 0 0 1-1.078.102c-.875 0-1.566-.191-2.072-.574-.506-.382-.759-.93-.759-1.645h1.913c0 .324.091.555.274.695.183.14.419.21.708.21.238 0 .431-.044.58-.133.149-.09.223-.236.223-.44a.42.42 0 0 0-.095-.287.934.934 0 0 0-.294-.204 3.65 3.65 0 0 0-.51-.191 53.764 53.764 0 0 1-.745-.236 9.617 9.617 0 0 1-.727-.249 2.672 2.672 0 0 1-.606-.325 1.39 1.39 0 0 1-.415-.485c-.101-.195-.153-.442-.153-.74 0-.637.245-1.109.734-1.415.488-.306 1.15-.459 1.983-.459.441 0 .83.053 1.166.16.336.106.613.253.83.44.216.187.38.408.49.662.11.256.166.528.166.817h-1.925c0-.256-.067-.453-.198-.593-.132-.14-.334-.21-.606-.21a.95.95 0 0 0-.51.133c-.145.09-.217.228-.217.414 0 .111.034.203.102.275a.942.942 0 0 0 .3.198c.132.06.295.119.49.178.197.06.422.132.677.217M106.46 27.76h1.95v-6.147h-1.95v6.146zm-.28-8.187c0-.349.118-.642.356-.88s.536-.357.893-.357a1.284 1.284 0 0 1 .899.356 1.243 1.243 0 0 1-.9 2.117 1.233 1.233 0 0 1-1.249-1.236zM109.879 21.613h1.95v.892a1.78 1.78 0 0 1 .772-.77c.344-.183.758-.275 1.243-.275.4 0 .744.062 1.033.185.289.123.519.295.689.517.196.237.325.511.389.822.063.31.095.687.095 1.128v3.647h-1.95v-3.15c0-.441-.08-.8-.237-1.077-.157-.276-.44-.414-.848-.414-.4 0-.697.14-.892.42-.196.281-.294.66-.294 1.135v3.086h-1.95v-6.146M120.481 23.118a1.384 1.384 0 0 0-1.058.472c-.128.144-.225.31-.294.497a1.74 1.74 0 0 0-.101.6c0 .212.034.414.101.604a1.444 1.444 0 0 0 .753.835c.178.087.378.128.6.128a1.434 1.434 0 0 0 1.071-.465c.127-.14.227-.306.3-.498a1.7 1.7 0 0 0 .108-.605 1.65 1.65 0 0 0-.408-1.096 1.406 1.406 0 0 0-1.072-.472zm3.43 4.603c0 .56-.08 1.027-.241 1.396-.162.37-.404.678-.728.925-.289.221-.633.387-1.032.497-.4.11-.885.166-1.454.166-.578 0-1.06-.064-1.447-.191a2.777 2.777 0 0 1-.963-.523 2.534 2.534 0 0 1-.638-.797 2.365 2.365 0 0 1-.255-.963h1.951c.025.264.15.502.376.715.225.212.55.319.976.319.459 0 .824-.112 1.097-.332.271-.222.408-.575.408-1.059v-1.032c-.17.28-.425.51-.766.688-.34.179-.71.268-1.109.268-.442 0-.848-.077-1.218-.23a2.743 2.743 0 0 1-.95-.644 2.982 2.982 0 0 1-.618-.982 3.401 3.401 0 0 1-.223-1.256c0-.459.07-.886.21-1.281.14-.396.342-.736.606-1.02.263-.285.578-.51.943-.676a2.927 2.927 0 0 1 1.224-.249c.391 0 .763.092 1.116.274.353.183.614.436.785.759v-.88h1.95v6.108z"/>
        </g>
        <g>
            <path d="M62.366 14.021V8.206h2.053v8.927h-2.155l-3.213-5.74v5.74h-2.066V8.206h2.155l3.226 5.815M69.019 15.627c.221 0 .42-.041.6-.127a1.463 1.463 0 0 0 .758-.835c.072-.191.109-.393.109-.606a1.65 1.65 0 0 0-.408-1.097 1.378 1.378 0 0 0-1.058-.472 1.377 1.377 0 0 0-1.06.472 1.646 1.646 0 0 0-.407 1.097c0 .213.036.415.108.606a1.458 1.458 0 0 0 .76.835c.177.086.377.127.598.127zm3.418-4.64v6.146h-1.951v-.868a1.6 1.6 0 0 1-.307.403c-.127.122-.274.229-.44.318-.165.09-.346.162-.541.217a2.176 2.176 0 0 1-.587.082c-.442 0-.848-.082-1.218-.248a2.884 2.884 0 0 1-.95-.676 2.978 2.978 0 0 1-.612-1.02 3.697 3.697 0 0 1-.217-1.282c0-.458.072-.886.217-1.281a2.99 2.99 0 0 1 .612-1.02 2.894 2.894 0 0 1 2.168-.924c.195 0 .391.027.587.082.195.055.376.13.541.223.166.094.313.204.44.331.128.129.23.26.307.396v-.88h1.95zM77.778 17.133a7.615 7.615 0 0 1-1.3.102c-.23 0-.472-.018-.727-.052a1.696 1.696 0 0 1-.708-.26c-.217-.141-.396-.358-.536-.651-.14-.294-.21-.695-.21-1.205V12.44h-.97v-1.454h.97V9.162h1.938v1.824h1.403v1.454h-1.403v2.189c0 .229.021.412.064.547.043.136.102.24.179.312a.592.592 0 0 0 .267.146c.102.026.213.038.332.038h.37c.127 0 .237-.01.331-.031v1.492M78.756 17.132h1.951v-6.146h-1.95v6.146zm-.28-8.186c0-.349.119-.642.357-.88a1.21 1.21 0 0 1 .892-.357 1.291 1.291 0 0 1 .9.357c.114.11.204.242.267.395a1.25 1.25 0 0 1-.268 1.358 1.212 1.212 0 0 1-.401.268 1.284 1.284 0 0 1-.498.096 1.233 1.233 0 0 1-1.25-1.237zM85.127 15.627c.221 0 .423-.04.606-.12.182-.081.338-.194.465-.339.128-.144.228-.31.3-.497a1.69 1.69 0 0 0 .108-.612c0-.212-.036-.414-.108-.605a1.531 1.531 0 0 0-.3-.497 1.432 1.432 0 0 0-1.07-.466c-.222 0-.422.042-.6.127a1.447 1.447 0 0 0-.753.836 1.8 1.8 0 0 0-.101.605c0 .221.033.426.101.612.069.187.166.353.294.497.127.145.28.258.459.339.178.08.378.12.6.12zm0 1.671a3.694 3.694 0 0 1-1.422-.26 3.26 3.26 0 0 1-1.07-.702 3.043 3.043 0 0 1-.677-1.027 3.31 3.31 0 0 1-.236-1.25c0-.441.079-.858.236-1.25.158-.39.383-.732.676-1.026a3.26 3.26 0 0 1 1.071-.701c.421-.174.895-.262 1.422-.262a3.73 3.73 0 0 1 1.435.262c.42.174.778.408 1.07.701.294.294.52.636.677 1.026.157.392.236.809.236 1.25 0 .442-.079.86-.236 1.25-.157.39-.383.733-.676 1.027-.293.293-.65.527-1.071.701-.421.174-.9.261-1.435.261zM89.602 10.986h1.951v.893c.17-.332.427-.589.771-.772.345-.182.76-.273 1.244-.273.4 0 .743.06 1.033.184.288.123.518.295.688.517.196.237.325.512.39.822.063.31.095.687.095 1.129v3.647h-1.951v-3.15c0-.442-.079-.802-.236-1.078-.157-.276-.44-.414-.848-.414-.4 0-.697.14-.893.421-.195.28-.293.659-.293 1.135v3.086h-1.951v-6.147M100.205 15.627c.22 0 .42-.041.6-.127a1.461 1.461 0 0 0 .758-.835c.072-.191.108-.393.108-.606a1.65 1.65 0 0 0-.408-1.097 1.381 1.381 0 0 0-1.058-.472 1.377 1.377 0 0 0-1.059.472 1.637 1.637 0 0 0-.408 1.097c0 .213.036.415.109.606a1.458 1.458 0 0 0 .759.835c.178.086.378.127.599.127zm3.417-4.64v6.146h-1.95v-.868a1.59 1.59 0 0 1-.307.403c-.127.122-.274.229-.44.318-.165.09-.346.162-.541.217a2.176 2.176 0 0 1-.587.082c-.442 0-.848-.082-1.218-.248a2.884 2.884 0 0 1-.95-.676 2.984 2.984 0 0 1-.612-1.02 3.697 3.697 0 0 1-.217-1.282c0-.458.072-.886.217-1.281.145-.396.349-.735.612-1.02a2.894 2.894 0 0 1 2.168-.924c.195 0 .391.027.587.082.195.055.376.13.542.223.165.094.312.204.44.331.127.129.229.26.305.396v-.88h1.951zM105.071 17.133h1.95V8.206h-1.95z"/>
        </g>
        <g>
            <path d="M.028 47.939H47.94V.027H.028V47.94zm2.077-2.078h43.757V2.105H2.105v43.756z"/>
            <path d="M35.204 21.108a2.557 2.557 0 0 0-2.468 1.747c-.122.346-.182.711-.182 1.095s.06.75.182 1.095c.122.346.298.647.528.903a2.563 2.563 0 0 0 1.94.845c.397 0 .755-.077 1.075-.23.32-.155.596-.36.826-.615a2.66 2.66 0 0 0 .528-.903c.121-.346.182-.71.182-1.095 0-.384-.06-.749-.182-1.095a2.66 2.66 0 0 0-.528-.902 2.63 2.63 0 0 0-.826-.614 2.45 2.45 0 0 0-1.075-.231zm-2.65-.422c.281-.448.682-.8 1.2-1.056a3.512 3.512 0 0 1 1.565-.384c.679 0 1.3.124 1.863.374s1.047.593 1.45 1.027a4.87 4.87 0 0 1 1.277 3.303 4.84 4.84 0 0 1-.337 1.805 4.77 4.77 0 0 1-.94 1.498 4.355 4.355 0 0 1-1.45 1.027 4.543 4.543 0 0 1-1.863.375 3.5 3.5 0 0 1-1.565-.384 2.888 2.888 0 0 1-1.2-1.056v5.703H30.46V19.476h2.093v1.21zM23.957 21.108a2.556 2.556 0 0 0-2.467 1.747c-.123.346-.183.711-.183 1.095s.06.75.183 1.095c.12.346.297.647.528.903.23.255.508.46.835.614.326.154.694.23 1.104.23.397 0 .755-.076 1.075-.23.32-.154.596-.359.826-.614a2.66 2.66 0 0 0 .528-.903c.122-.346.182-.71.182-1.095 0-.384-.06-.749-.182-1.095a2.66 2.66 0 0 0-.528-.902 2.634 2.634 0 0 0-.826-.614 2.452 2.452 0 0 0-1.075-.231zm-2.65-.422a2.89 2.89 0 0 1 1.2-1.056 3.512 3.512 0 0 1 1.565-.384c.679 0 1.3.124 1.863.374s1.047.593 1.45 1.027a4.87 4.87 0 0 1 1.277 3.303 4.84 4.84 0 0 1-.337 1.805 4.777 4.777 0 0 1-.94 1.498 4.355 4.355 0 0 1-1.45 1.027 4.543 4.543 0 0 1-1.863.375 3.5 3.5 0 0 1-1.565-.384 2.885 2.885 0 0 1-1.2-1.056v5.703h-2.093V19.476h2.093v1.21zM8.668 19.476h2.093v1.248a2.743 2.743 0 0 1 1.172-1.104c.499-.25 1.08-.374 1.747-.374.653 0 1.2.109 1.642.326.441.218.79.512 1.046.883.217.334.368.705.451 1.114.084.41.125.922.125 1.536v5.32h-2.093v-4.628c0-.384-.032-.743-.096-1.076a2.518 2.518 0 0 0-.317-.854 1.641 1.641 0 0 0-.595-.567c-.25-.14-.56-.21-.931-.21-.73 0-1.271.258-1.623.777-.352.518-.528 1.161-.528 1.93v4.628H8.668v-8.949"/>
        </g>
    </g>
</svg>
